<svg width="1278" height="1635" viewBox="0 0 1278 1635" fill="none" xmlns="http://www.w3.org/2000/svg">
<rect x="-432" y="859.933" width="1065.48" height="1312.7" transform="rotate(-53.8119 -432 859.933)" fill="#DAEA02"/>
<rect x="-335" y="826.518" width="1039.22" height="1233.22" transform="rotate(-50.9903 -335 826.518)" fill="#6965E2"/>
<rect x="-217.656" y="783.617" width="40.2" height="295.158" transform="rotate(-51.3387 -217.656 783.617)" fill="#DD4E0C"/>
<rect x="-62.8516" y="590.122" width="40.2" height="295.158" transform="rotate(-51.3387 -62.8516 590.122)" fill="#009A8F"/>
<rect x="129.061" y="350.244" width="39.6" height="295.158" transform="rotate(-51.3387 129.061 350.244)" fill="#009A8F"/>
<rect x="167.293" y="302.456" width="39.6" height="295.158" transform="rotate(-51.3387 167.293 302.456)" fill="#DAEA02"/>
<rect x="272.832" y="151.764" width="40.2" height="295.158" transform="rotate(-51.3387 272.832 151.764)" fill="#009A8F"/>
<path d="M55.7006 1078.88L-250.544 840.65L341.275 80.1208L654.357 330.599L55.7006 1078.88Z" stroke="black" stroke-width="3"/>
<line x1="-163.789" y1="725.67" x2="143.511" y2="971.523" stroke="black" stroke-width="3"/>
<line x1="-178.135" y1="789.494" x2="106.778" y2="1017.44" stroke="black" stroke-width="3"/>
<line x1="-45.3422" y1="577.621" x2="261.958" y2="823.473" stroke="black" stroke-width="3"/>
<line x1="-127.055" y1="679.756" x2="180.245" y2="925.609" stroke="black" stroke-width="3"/>
<line x1="-86.4936" y1="623.842" x2="202.999" y2="855.448" stroke="black" stroke-width="3"/>
<line y1="-1.5" x2="373.572" y2="-1.5" transform="matrix(0.776374 0.630273 -0.631266 0.775566 7.4707 543.59)" stroke="black" stroke-width="3"/>
<line x1="34.4957" y1="477.828" x2="341.795" y2="723.68" stroke="black" stroke-width="3"/>
<line x1="107.587" y1="386.468" x2="399.115" y2="619.702" stroke="black" stroke-width="3"/>
<line x1="147.025" y1="331.959" x2="454.833" y2="578.219" stroke="black" stroke-width="3"/>
<line x1="189.3" y1="284.332" x2="496.6" y2="530.185" stroke="black" stroke-width="3"/>
<line x1="220.117" y1="240.6" x2="527.925" y2="486.859" stroke="black" stroke-width="3"/>
<line x1="284.617" y1="206.912" x2="571.566" y2="436.483" stroke="black" stroke-width="3"/>
<line x1="314.521" y1="145.544" x2="604.014" y2="377.151" stroke="black" stroke-width="3"/>
<rect x="320.599" y="110.834" width="39.6" height="295.158" transform="rotate(-51.3387 320.599 110.834)" fill="#DD4E0C"/>
<rect x="205.525" y="254.668" width="40.2" height="301.022" transform="rotate(-51.3387 205.525 254.668)" fill="#DD4E0C"/>
<rect x="63.4131" y="455.243" width="40.2" height="295.158" transform="rotate(-51.3387 63.4131 455.243)" fill="#009A8F"/>
<line x1="101.728" y1="453.24" x2="380.028" y2="675.892" stroke="black" stroke-width="3"/>
<rect x="18.5654" y="497.739" width="40.2" height="295.158" transform="rotate(-51.3387 18.5654 497.739)" fill="#DD4E0C"/>
<rect x="-114.822" y="626.919" width="40.2" height="295.158" transform="rotate(-51.3387 -114.822 626.919)" fill="#DAEA02"/>
<rect x="-139.612" y="695.451" width="39.6" height="295.158" transform="rotate(-51.3387 -139.612 695.451)" fill="#DD4E0C"/>
<rect x="-254.39" y="829.531" width="40.2" height="295.158" transform="rotate(-51.3387 -254.39 829.531)" fill="#009A8F"/>
</svg>
