<svg width="25" height="20" viewBox="0 0 25 20" fill="none" xmlns="http://www.w3.org/2000/svg">
<path d="M13.9428 16.3474C14.1683 14.7254 14.3782 13.0497 14.5724 11.3203C14.756 9.55501 14.9143 7.83605 15.0473 6.1634C15.1803 4.49075 15.2835 2.98239 15.357 1.63833L20.5704 0.112893L20.9584 0.641202C20.7879 2.05255 20.5234 3.60808 20.165 5.3078C19.796 6.97169 19.3786 8.66923 18.9127 10.4004C18.4363 12.0957 17.9621 13.7321 17.49 15.3095L13.9428 16.3474ZM4.05339 19.241C4.27899 17.619 4.48885 15.9433 4.683 14.2139C4.90248 12.4381 5.07871 10.7139 5.21168 9.04128C5.38047 7.35815 5.48371 5.84979 5.52139 4.51621L10.6811 3.0065L11.069 3.53481C10.8627 4.95664 10.5803 6.51742 10.2219 8.21714C9.88876 9.87055 9.48926 11.5628 9.02333 13.294C8.58275 14.9789 8.12644 16.61 7.65441 18.1873L4.05339 19.241Z" fill="white"/>
</svg>
