<svg width="574" height="696" viewBox="0 0 574 696" fill="none" xmlns="http://www.w3.org/2000/svg">
<path d="M47.3534 222.031L51.1215 221.667L56.8154 192.154L53.0927 190.835L53.5255 188.482L64.879 190.571L71.8514 219.347L87.6882 194.767L99.5531 196.95L99.1203 199.303L95.0977 199.038L89.4995 229.468L93.6878 230.555L93.2739 232.806L77.7268 229.945L78.1408 227.695L82.4326 228.22L87.3157 201.678L69.7016 228.733C69.5311 228.702 69.3234 228.681 69.0785 228.672C68.8336 228.662 68.6088 228.638 68.4043 228.6L66.9764 228.602L59.1083 196.647L54.5857 222.093L60.5991 224.468L60.1852 226.718L46.9394 224.281L47.3534 222.031Z" fill="#009A8F"/>
<path d="M128.139 238.055L128.655 239.857C126.349 241.377 124.09 241.783 121.878 241.076C119.071 240.179 118.021 238.17 118.728 235.047L118.53 234.984C117.415 236.193 116.033 236.988 114.382 237.371C112.775 237.731 111.179 237.657 109.594 237.151C107.547 236.496 106.064 235.44 105.147 233.983C104.274 232.503 104.148 230.788 104.771 228.84C105.193 227.519 105.904 226.491 106.903 225.755C107.913 224.986 109.07 224.555 110.374 224.462C111.688 224.336 112.954 224.358 114.173 224.53C115.425 224.711 116.679 225.003 117.934 225.404C118.924 225.72 119.85 226.071 120.71 226.455L122.611 220.675C122.854 219.916 123.027 219.316 123.131 218.876C123.269 218.447 123.35 217.909 123.375 217.262C123.432 216.625 123.377 216.116 123.208 215.734C123.071 215.363 122.793 214.983 122.371 214.594C121.95 214.204 121.376 213.893 120.649 213.661C119.163 213.186 117.683 213.15 116.208 213.552C116.09 213.806 115.947 214.197 115.778 214.725L115.367 216.013C114.85 217.631 114.445 219.067 114.154 220.32C113.177 220.19 112.292 219.998 111.499 219.745C110.674 219.481 109.957 219.161 109.349 218.785C109.453 218.345 109.674 217.596 110.012 216.54C110.158 215.968 110.411 215.121 110.77 213.998C111.076 213.04 111.314 212.352 111.484 211.933C111.759 211.075 111.97 210.469 112.119 210.116C112.373 210.234 112.814 210.393 113.441 210.593L114.184 210.831C115.064 211.039 115.849 211.144 116.54 211.147C118.786 211.064 120.933 211.35 122.98 212.004C125.589 212.838 127.518 214.091 128.766 215.764C130.026 217.404 130.265 219.446 129.484 221.889L125.439 233.862L125.012 235.199C124.497 237.037 124.785 238.129 125.875 238.478C126.469 238.668 127.224 238.527 128.139 238.055ZM113.3 234.95C114.125 235.214 115.007 235.187 115.946 234.868C116.929 234.527 117.8 234.023 118.559 233.356L120.155 228.188C119.593 227.899 119.031 227.665 118.469 227.486C116.884 226.979 115.48 226.931 114.258 227.341C113.068 227.761 112.23 228.731 111.745 230.25C110.932 232.793 111.45 234.359 113.3 234.95Z" fill="#009A8F"/>
<path d="M158.473 233.512C158.204 233.283 158.024 233.144 157.933 233.093C157.205 232.689 156.253 232.655 155.074 232.992C153.943 233.315 152.899 233.767 151.943 234.346L143.483 249.574L147.65 252.245L146.615 254.109L132.978 246.533L134.013 244.67L137.321 246.21L147.447 227.982L143.892 225.709L144.978 223.755L155.231 227.785L152.781 232.194L152.917 232.27C156.682 230.276 159.943 230.046 162.701 231.578C163.61 232.083 164.406 232.684 165.09 233.381C164.712 234.202 164.347 234.931 163.994 235.568L161.443 240.159C161.005 240.947 160.679 241.499 160.463 241.816C159.773 241.63 159.049 241.327 158.291 240.906C157.958 240.721 157.694 240.555 157.499 240.406C157.105 240.188 156.825 240.012 156.66 239.881C155.993 239.511 155.549 239.204 155.327 238.962C155.99 237.982 156.608 236.977 157.18 235.947L157.837 234.765C158.14 234.219 158.352 233.802 158.473 233.512Z" fill="#009A8F"/>
<path d="M182.743 234.725L179.455 232.074L180.726 230.235L190.837 235.452L184.083 245.133L169.389 266.394L172.621 268.943L171.409 270.697L159.26 262.301L160.472 260.547L163.614 262.403L182.743 234.725Z" fill="#009A8F"/>
<path d="M182.639 275.506C182.449 272.076 183.63 268.807 186.181 265.699C188.732 262.59 191.796 260.687 195.373 259.99C198.977 259.315 202.279 260.209 205.28 262.673C208.148 265.026 209.614 267.665 209.681 270.589C209.774 273.536 208.655 276.43 206.323 279.27L205.136 280.717L192.072 269.996C187.617 275.533 187.279 279.852 191.057 282.953C193.228 284.735 195.829 285.636 198.861 285.658L198.657 287.71C194.461 288.123 190.808 287.054 187.7 284.503C184.538 281.908 182.851 278.909 182.639 275.506ZM203.595 264.316C201.103 262.271 197.814 263.519 193.729 268.059L201.487 274.426L202.344 273.381C203.136 272.416 203.779 271.441 204.273 270.457C204.794 269.494 205.046 268.422 205.028 267.242C205.011 266.061 204.533 265.086 203.595 264.316Z" fill="#009A8F"/>
<path d="M222.71 283.851L219.868 280.732L221.424 279.127L230.277 285.684L226.186 289.902L226.298 290.011C231.41 289.222 235.297 290.118 237.96 292.701C241.494 296.128 241.221 299.944 237.142 304.15C232.726 308.704 228.874 312.551 225.588 315.69L228.58 318.954L227.096 320.484L216.457 310.167L217.942 308.636L220.586 310.839C221.795 309.693 223.582 307.949 225.949 305.608L231.017 300.382C232.538 298.815 233.547 297.475 234.044 296.364C234.468 295.23 234.195 294.192 233.225 293.251C231.632 291.707 228.817 291.223 224.781 291.799L213.233 303.707L216.038 306.79L214.554 308.32L203.915 298.003L205.399 296.472L208.193 298.82L222.71 283.851Z" fill="#009A8F"/>
<path d="M237.716 327.492C238.002 324.069 239.623 320.994 242.579 318.268C245.535 315.541 248.832 314.08 252.471 313.884C256.133 313.713 259.281 315.054 261.913 317.908C264.428 320.635 265.516 323.451 265.178 326.357C264.863 329.288 263.355 332 260.654 334.491L259.278 335.76L247.82 323.337C242.643 328.206 241.711 332.437 245.025 336.03C246.929 338.095 249.381 339.347 252.381 339.787L251.895 341.791C247.682 341.621 244.212 340.058 241.486 337.102C238.713 334.095 237.456 330.891 237.716 327.492ZM260.016 319.304C257.831 316.934 254.401 317.715 249.728 321.648L256.532 329.025L257.526 328.109C258.444 327.262 259.215 326.386 259.84 325.479C260.489 324.597 260.887 323.571 261.032 322.399C261.178 321.227 260.839 320.196 260.016 319.304Z" fill="#009A8F"/>
<path d="M272.11 367.604L275.259 369.705L298.336 350.447L296.286 347.07L298.11 345.522L305.583 354.321L292.783 381.02L320.596 371.997L328.406 381.193L326.582 382.741L323.634 379.992L300.051 400.021L302.608 403.513L300.864 404.994L290.63 392.945L292.374 391.464L295.366 394.585L315.937 377.115L285.181 386.931C285.069 386.798 284.921 386.651 284.737 386.489C284.554 386.326 284.395 386.166 284.26 386.007L283.153 385.105L297.27 355.377L277.673 372.226L280.828 377.87L279.084 379.351L270.366 369.085L272.11 367.604Z" fill="#009A8F"/>
<path d="M311.577 413.965C312.169 410.582 314.059 407.665 317.248 405.215C320.437 402.765 323.852 401.605 327.494 401.736C331.157 401.895 334.171 403.514 336.537 406.593C338.797 409.534 339.628 412.437 339.03 415.3C338.453 418.191 336.708 420.756 333.794 422.995L332.31 424.136L322.013 410.734C316.42 415.119 315.113 419.249 318.091 423.126C319.801 425.352 322.131 426.819 325.079 427.527L324.415 429.48C320.235 428.932 316.919 427.064 314.469 423.875C311.977 420.631 311.013 417.328 311.577 413.965ZM334.523 407.812C332.558 405.255 329.073 405.726 324.065 409.223L330.18 417.181L331.252 416.358C332.242 415.597 333.089 414.794 333.793 413.947C334.518 413.127 335.006 412.14 335.256 410.986C335.506 409.832 335.262 408.774 334.523 407.812Z" fill="#009A8F"/>
<path d="M367.996 434.968L365.054 430.488L366.874 429.189L375.309 438.502L365.949 444.99L344.997 459.942L347.087 463.497L345.309 464.766L338.681 456.911L341.753 454.144L341.602 453.932C340.042 453.895 338.519 453.491 337.033 452.721C335.566 451.979 334.39 450.987 333.504 449.745C332.416 448.222 331.794 446.664 331.638 445.072C331.509 443.46 331.798 441.955 332.504 440.557C333.21 439.159 334.083 437.876 335.123 436.707C336.212 435.547 337.476 434.454 338.915 433.427C342.385 430.95 345.83 429.897 349.247 430.269C352.692 430.622 355.603 432.462 357.979 435.792C359.067 437.316 359.816 438.932 360.226 440.641L364.229 437.657L367.996 434.968ZM356.437 437.659C355.672 436.587 354.717 435.906 353.573 435.615C352.428 435.324 351.209 435.406 349.915 435.861C348.65 436.296 347.501 436.775 346.469 437.299C345.457 437.85 344.429 438.499 343.385 439.244C340.564 441.257 338.651 443.112 337.646 444.809C336.413 446.541 336.349 448.183 337.457 449.735C338.685 451.456 340.629 452.39 343.289 452.536L357.85 442.145C357.955 440.622 357.484 439.127 356.437 437.659Z" fill="#009A8F"/>
<path d="M371.971 463.552L369.833 459.914L371.687 458.664L379.142 467.122L358.573 480.984L360.683 484.579L358.915 485.77L350.632 473.481L352.4 472.289L354.679 475.205L371.971 463.552ZM383.035 455.405C384.013 454.747 385.007 454.578 386.018 454.9C387.058 455.203 387.917 455.857 388.595 456.863C389.254 457.84 389.509 458.839 389.36 459.859C389.26 460.888 388.721 461.732 387.743 462.391C386.766 463.05 385.752 463.252 384.703 462.998C383.683 462.724 382.833 462.084 382.155 461.078C381.458 460.043 381.174 459.001 381.303 457.952C381.452 456.933 382.029 456.084 383.035 455.405Z" fill="#009A8F"/>
<path d="M381.657 515.78L383.71 519.466L381.871 520.645L375.463 512.09L380.43 508.661L380.318 508.485C376.908 508.241 374.003 507.241 371.602 505.486C370.816 504.837 370.142 504.074 369.581 503.199C366.925 499.054 368.049 495.411 372.952 492.268L382.541 486.124C383.942 485.227 385.002 484.568 385.721 484.148L383.808 480.68L385.691 479.474L392.908 487.942C390.4 489.426 387.906 490.963 385.424 492.552C383.673 493.675 382.384 494.521 381.556 495.093L378.097 497.309C376.229 498.506 374.95 499.594 374.259 500.572C373.52 501.539 373.525 502.607 374.273 503.774C374.927 504.796 376.033 505.59 377.59 506.157C379.166 506.753 380.704 507.064 382.204 507.092L395.12 498.815L392.701 494.559L394.584 493.353L402.278 502.566L381.657 515.78Z" fill="#009A8F"/>
<path d="M408.372 520.208L406.418 516.468L408.332 515.312L415.223 523.907L410.326 526.864L410.407 526.997C415.409 527.501 418.796 529.221 420.57 532.159C422.667 535.631 422.227 538.691 419.25 541.339L419.33 541.473C424.207 541.97 427.523 543.673 429.279 546.581C431.86 550.855 430.642 554.506 425.627 557.534C422.541 559.398 417.846 562.152 411.542 565.796L413.551 569.625L411.726 570.727L404.092 558.085L405.917 556.983L407.914 559.787C411.535 557.803 415.793 555.332 420.69 552.376C421.461 551.91 422.067 551.504 422.506 551.158C422.992 550.823 423.508 550.37 424.054 549.798C424.647 549.237 424.987 548.627 425.074 547.967C425.161 547.306 424.99 546.62 424.56 545.908C423.503 544.157 421.095 543.121 417.336 542.798L416.891 543.067C412.232 545.88 407.546 548.649 402.833 551.374L404.68 554.936L402.855 556.038L395.544 543.93L397.369 542.828L399.187 545.436C403.484 542.962 407.74 540.453 411.954 537.909C412.726 537.443 413.331 537.037 413.77 536.691C414.256 536.356 414.772 535.903 415.318 535.331C415.911 534.77 416.251 534.16 416.338 533.5C416.425 532.84 416.254 532.153 415.824 531.441C414.749 529.661 412.302 528.627 408.485 528.341L394.151 536.996L396.079 540.691L394.254 541.793L386.593 529.107L388.418 528.005L390.522 530.986L408.372 520.208Z" fill="#009A8F"/>
</svg>
