<svg width="1049" height="443" viewBox="0 0 1049 443" fill="none" xmlns="http://www.w3.org/2000/svg">
<rect x="1.44336" y="335.2" width="1065.49" height="112.939" transform="rotate(-18.3365 1.44336 335.2)" fill="#2A2927"/>
<rect x="0.374023" y="312.62" width="1048" height="105" transform="rotate(-16.3094 0.374023 312.62)" fill="white"/>
<rect x="101.148" y="283.133" width="330" height="105" transform="rotate(-16.3094 101.148 283.133)" fill="#DD4E0C"/>
<rect x="417.869" y="190.461" width="548" height="105" transform="rotate(-16.3094 417.869 190.461)" fill="#565656"/>
<path d="M85.1639 309.691L72.9919 321.132C70.4315 323.539 71.996 327.841 75.5043 328.04L82.4473 328.435C85.8013 328.626 87.4403 332.616 85.1889 335.11L80.0813 340.766C78.084 342.978 79.1201 346.518 81.9946 347.305L90.4169 349.609C93.4526 350.439 94.3845 354.288 92.0649 356.415L88.0015 360.142C85.4973 362.438 86.8155 366.613 90.1843 367.056L108.703 369.487" stroke="#C4C4C4" stroke-width="3"/>
<path d="M70.7674 313.903L58.5954 325.345C56.035 327.751 57.5996 332.053 61.1078 332.253L68.0508 332.648C71.4048 332.838 73.0438 336.829 70.7924 339.322L65.6848 344.978C63.6875 347.19 64.7236 350.731 67.5981 351.517L76.0204 353.821C79.0561 354.652 79.988 358.5 77.6685 360.628L73.605 364.354C71.1008 366.65 72.4191 370.826 75.7878 371.268L94.3067 373.699" stroke="#C4C4C4" stroke-width="3"/>
<path d="M56.3709 318.116L44.1989 329.557C41.6385 331.964 43.2031 336.265 46.7113 336.465L53.6543 336.86C57.0083 337.051 58.6473 341.041 56.3959 343.534L51.2883 349.191C49.2911 351.402 50.3271 354.943 53.2016 355.73L61.624 358.034C64.6596 358.864 65.5915 362.713 63.272 364.84L59.2085 368.566C56.7043 370.863 58.0226 375.038 61.3913 375.48L79.9102 377.912" stroke="#C4C4C4" stroke-width="3"/>
<path d="M41.9744 322.328L29.8024 333.769C27.2421 336.176 28.8066 340.478 32.3148 340.677L39.2578 341.072C42.6118 341.263 44.2509 345.253 41.9994 347.747L36.8918 353.403C34.8946 355.615 35.9306 359.156 38.8051 359.942L47.2275 362.246C50.2631 363.076 51.195 366.925 48.8755 369.052L44.812 372.779C42.3079 375.075 43.6261 379.251 46.9948 379.693L65.5138 382.124" stroke="#C4C4C4" stroke-width="3"/>
<path d="M990.44 81.1549L991.71 80.8521C992.163 81.3956 992.806 82.2671 993.638 83.4668C995.131 85.6726 996.523 87.3133 997.813 88.389C998.564 88.9829 999.355 89.3038 1000.19 89.3515C1000.9 89.3925 1001.43 89.2807 1001.76 89.0159C1002.11 88.7522 1002.3 88.2792 1002.34 87.5969C1002.39 86.8149 1002.22 86.0459 1001.85 85.2899C1001.47 84.5505 1000.96 83.9621 1000.32 83.5246L1001.06 82.8159C1001.8 83.2924 1002.39 84.0187 1002.82 84.9949C1003.26 85.9719 1003.46 86.9264 1003.4 87.8582C1003.33 89.1061 1002.92 90.0923 1002.16 90.8167C1001.81 91.1137 1001.45 91.3188 1001.09 91.4318C1000.69 91.5421 1000.32 91.5876 999.985 91.5685C999.352 91.5323 998.721 91.3291 998.091 90.9591C997.477 90.6067 996.95 90.2008 996.509 89.7415C996.067 89.2821 995.601 88.6794 995.11 87.9334C994.635 87.1883 994.27 86.5747 994.013 86.0926C993.757 85.6105 993.45 85.0002 993.092 84.2618C992.775 83.676 992.479 83.1582 992.204 82.7084L992.048 91.1133L989.889 90.7641L990.44 81.1549Z" fill="#DD4E0C"/>
<path d="M987.499 97.0312C988.249 95.3947 989.342 94.3095 990.778 93.7757C992.214 93.2419 993.735 93.3428 995.341 94.0785C997.326 94.9876 998.698 96.3764 999.455 98.2449C1000.21 100.128 1000.13 102.048 999.238 104.002C998.495 105.624 997.379 106.68 995.889 107.171C994.408 107.684 992.871 107.576 991.28 106.847C989.25 105.917 987.883 104.539 987.179 102.714C986.483 100.91 986.59 99.0163 987.499 97.0312ZM988.425 97.5925C988.05 98.4108 987.891 99.1993 987.946 99.9581C988.01 100.739 988.254 101.428 988.677 102.025C989.093 102.637 989.596 103.179 990.187 103.652C990.792 104.131 991.474 104.544 992.232 104.891C993.504 105.474 994.693 105.679 995.799 105.507C996.919 105.342 997.757 104.653 998.312 103.441C998.694 102.608 998.853 101.8 998.789 101.02C998.74 100.246 998.508 99.5525 998.092 98.9403C997.668 98.3432 997.154 97.8052 996.549 97.3262C995.943 96.8472 995.254 96.4307 994.481 96.0768C993.239 95.5077 992.054 95.3132 990.926 95.4934C989.807 95.6957 988.973 96.3954 988.425 97.5925Z" fill="#DD4E0C"/>
<path d="M984.479 103.817L985.623 104.446C985.593 105.153 985.484 106.23 985.294 107.678C984.918 110.315 984.846 112.465 985.079 114.129C985.236 115.073 985.606 115.843 986.19 116.437C986.693 116.948 987.156 117.217 987.58 117.245C988.015 117.284 988.477 117.064 988.964 116.585C989.523 116.036 989.918 115.356 990.149 114.545C990.368 113.745 990.387 112.967 990.205 112.212L991.23 112.185C991.459 113.036 991.403 113.966 991.065 114.977C990.737 115.999 990.241 116.838 989.575 117.492C988.684 118.368 987.713 118.819 986.664 118.845C986.205 118.83 985.805 118.744 985.464 118.587C985.089 118.396 984.784 118.181 984.551 117.943C984.107 117.491 983.776 116.917 983.558 116.22C983.34 115.546 983.222 114.891 983.204 114.254C983.186 113.618 983.246 112.858 983.383 111.975C983.532 111.104 983.674 110.404 983.808 109.875C983.942 109.346 984.125 108.688 984.355 107.9C984.514 107.253 984.643 106.671 984.742 106.153L978.978 112.273L977.614 110.564L984.479 103.817Z" fill="#DD4E0C"/>
<path d="M977.269 111.067L978.159 112.021C977.91 112.683 977.47 113.673 976.838 114.989C975.658 117.377 974.919 119.397 974.622 121.051C974.476 121.997 974.588 122.843 974.958 123.59C975.275 124.233 975.631 124.633 976.026 124.791C976.428 124.964 976.935 124.899 977.547 124.596C978.249 124.249 978.837 123.726 979.309 123.027C979.767 122.336 980.027 121.603 980.09 120.828L981.072 121.123C981.024 122.002 980.681 122.869 980.044 123.723C979.414 124.593 978.681 125.235 977.845 125.648C976.724 126.203 975.662 126.329 974.657 126.026C974.225 125.868 973.872 125.662 973.597 125.407C973.3 125.108 973.078 124.808 972.93 124.51C972.649 123.942 972.514 123.293 972.525 122.563C972.527 121.855 972.62 121.195 972.801 120.585C972.983 119.974 973.276 119.271 973.682 118.475C974.095 117.695 974.448 117.074 974.741 116.613C975.034 116.152 975.412 115.583 975.877 114.907C976.23 114.342 976.534 113.829 976.789 113.368L969.405 117.384L968.642 115.335L977.269 111.067Z" fill="#DD4E0C"/>
<path d="M957.384 129.758L959.293 116.234C959.675 113.308 961.286 111.278 964.127 110.145L964.595 110.909C963.904 111.292 963.337 111.68 962.897 112.074C962.472 112.467 962.142 112.942 961.905 113.498C961.667 114.037 961.496 114.541 961.39 115.01C961.284 115.479 961.166 116.141 961.036 116.994L959.528 128.382L961.854 128.428L961.726 129.356L957.384 129.758ZM958.774 132.501L958.229 135.915C957.897 136.006 957.607 136.054 957.357 136.06C957.14 136.065 956.889 136.03 956.604 135.953L957.173 132.489C957.422 132.433 957.663 132.402 957.896 132.397C958.113 132.392 958.405 132.426 958.774 132.501Z" fill="#DD4E0C"/>
<path d="M945.307 128.013C944.807 127.883 944.319 127.704 943.845 127.477L942.034 127.187L946.879 116.022L944.975 115.397L945.353 114.54L949.055 115.504L945.87 122.476L945.967 122.501C947.5 120.317 948.878 118.696 950.101 117.636C951.365 116.553 952.561 116.159 953.69 116.453C954.174 116.579 954.56 116.817 954.848 117.167C955.115 117.53 955.283 117.944 955.351 118.409C955.399 118.887 955.408 119.345 955.38 119.786C955.335 120.222 955.254 120.666 955.136 121.117C954.473 123.666 953.278 125.611 951.551 126.952C949.807 128.289 947.726 128.643 945.307 128.013ZM952.746 117.498C952.182 117.351 951.488 117.601 950.665 118.248C949.822 118.907 949.003 119.77 948.208 120.838C947.398 121.901 946.686 122.913 946.075 123.873C945.443 124.845 944.939 125.687 944.564 126.399C944.993 126.803 945.449 127.068 945.933 127.194C946.869 127.438 947.756 127.402 948.596 127.087C949.436 126.772 950.155 126.261 950.752 125.556C951.344 124.866 951.851 124.111 952.271 123.291C952.671 122.482 952.985 121.642 953.212 120.771C953.371 120.158 953.45 119.49 953.449 118.766C953.432 118.039 953.198 117.616 952.746 117.498Z" fill="#DD4E0C"/>
<path d="M935.373 123.416L928.843 118.97C928.965 118.791 929.062 118.604 929.133 118.411L942.162 114.822L937.327 111.529C937.084 111.767 936.937 111.909 936.886 111.955C936.858 111.996 936.816 112.058 936.759 112.141C936.68 112.228 936.619 112.287 936.577 112.319C936.535 112.351 936.491 112.402 936.444 112.47C936.374 112.544 936.325 112.601 936.297 112.642C936.25 112.711 936.137 112.847 935.96 113.048C935.637 112.929 935.38 112.804 935.187 112.673C935.022 112.561 934.838 112.385 934.637 112.148C935.675 110.979 936.595 110.013 937.398 109.249C937.594 109.463 937.837 109.669 938.127 109.866L945.215 114.692C945.107 114.82 945.004 115.002 944.904 115.237L932.027 118.869L936.201 121.711L936.916 120.928C936.935 120.9 936.979 120.85 937.049 120.777C937.11 120.717 937.154 120.667 937.182 120.625C937.294 120.52 937.413 120.389 937.54 120.234C937.862 120.352 938.12 120.477 938.313 120.609C938.395 120.665 938.482 120.744 938.574 120.847L938.842 121.12C937.832 122.247 936.912 123.214 936.081 124.019C935.788 123.739 935.552 123.538 935.373 123.416Z" fill="#DD4E0C"/>
<path d="M924.542 114.465L919.701 108.223C919.872 108.09 920.021 107.943 920.149 107.781L933.65 108.382L930.065 103.759C929.76 103.911 929.577 104.001 929.514 104.028C929.474 104.059 929.415 104.105 929.336 104.166C929.234 104.225 929.158 104.262 929.108 104.28C929.058 104.297 929 104.332 928.935 104.383C928.845 104.431 928.781 104.47 928.741 104.501C928.676 104.552 928.527 104.646 928.296 104.783C928.026 104.571 927.819 104.373 927.676 104.188C927.554 104.03 927.433 103.807 927.315 103.519C928.663 102.727 929.836 102.091 930.835 101.612C930.956 101.876 931.124 102.147 931.338 102.424L936.594 109.199C936.452 109.288 936.297 109.429 936.13 109.622L922.76 109.108L925.855 113.099L926.777 112.574C926.803 112.553 926.861 112.519 926.95 112.471C927.027 112.433 927.084 112.399 927.124 112.368C927.263 112.303 927.416 112.215 927.585 112.106C927.855 112.318 928.061 112.516 928.204 112.701C928.266 112.78 928.324 112.882 928.379 113.008L928.55 113.35C927.242 114.111 926.069 114.747 925.03 115.257C924.838 114.901 924.675 114.637 924.542 114.465Z" fill="#DD4E0C"/>
<path d="M907.932 91.3337C908.035 91.8228 908.237 92.2145 908.538 92.5086C908.823 92.8062 909.206 93.0062 909.687 93.1087C910.166 93.1949 910.576 93.2443 910.92 93.2568C911.263 93.2694 911.712 93.2595 912.268 93.2271L914.414 93.1052L913.767 90.0479L914.806 90.0069L915.453 93.0643L932.34 92.2L931.89 89.2287L932.767 89.1454L934.112 95.5046L933.236 95.5879L932.733 94.0588L915.846 94.9231L916.214 96.6597L915.175 96.7006L914.68 94.9655L912.582 95.0771C911.305 95.1599 910.112 94.8757 909.003 94.2245C907.875 93.5603 907.185 92.6331 906.933 91.4428C906.781 90.7254 906.762 89.9117 906.876 89.0017C906.891 88.8283 906.886 88.6845 906.862 88.5703C906.875 88.5506 906.877 88.5244 906.871 88.4918C906.86 88.4429 906.822 88.3403 906.754 88.1842C908.211 88.0634 909.425 88.0025 910.395 88.0015C910.546 88.3104 910.642 88.5627 910.683 88.7583C910.735 89.0029 910.751 89.2806 910.732 89.5913C910.359 89.602 910.096 89.6066 909.943 89.605C909.858 89.6059 909.748 89.6121 909.614 89.6234C909.477 89.6183 909.376 89.6227 909.31 89.6365C909.245 89.6503 909.146 89.6629 909.012 89.6742C908.874 89.6692 908.763 89.6671 908.678 89.6681C908.479 89.6932 908.254 89.7153 908.002 89.7344C907.814 90.1321 907.79 90.6651 907.932 91.3337Z" fill="#DD4E0C"/>
<path d="M921.75 88.015C920.751 87.9731 919.757 87.8063 918.768 87.5145C917.78 87.2228 916.854 86.817 915.992 86.297C915.13 85.7771 914.441 85.0893 913.927 84.2336C913.413 83.3613 913.178 82.3922 913.223 81.3265C913.261 80.4273 913.517 79.6957 913.991 79.1318C914.466 78.5512 915.136 78.2791 916.002 78.3154C916.501 78.3364 917.01 78.5329 917.528 78.905C918.03 79.2763 918.454 79.7028 918.801 80.1845C919.841 81.6294 920.312 83.5258 920.214 85.8737C920.908 86.0196 921.522 86.1038 922.055 86.1261C922.438 86.1422 922.814 86.108 923.185 86.0235C923.571 85.9563 923.919 85.8207 924.228 85.6169C924.913 85.1952 925.275 84.5181 925.314 83.5856C925.347 82.803 924.979 81.8284 924.211 80.6618L925.032 80.1708C925.551 80.9099 925.923 81.5844 926.148 82.1944C926.356 82.8036 926.443 83.5162 926.409 84.3322C926.353 85.6477 925.896 86.6044 925.037 87.2022C924.178 87.8 923.082 88.071 921.75 88.015ZM914.16 81.6661C914.137 82.199 914.291 82.7059 914.621 83.1868C914.952 83.6511 915.394 84.045 915.948 84.3685C916.501 84.692 917.049 84.9652 917.59 85.1881C918.115 85.3936 918.65 85.5579 919.196 85.6808C919.3 83.1997 918.611 81.5277 917.129 80.6648C916.721 80.4475 916.326 80.3308 915.943 80.3147C915.46 80.2944 915.047 80.4022 914.703 80.638C914.36 80.8571 914.179 81.1998 914.16 81.6661Z" fill="#DD4E0C"/>
<path d="M925.695 77.4831C926.073 77.1554 926.409 76.5663 926.703 75.7158C926.823 75.3693 926.904 75.0356 926.944 74.7145C927.09 73.9888 927.015 73.3897 926.72 72.9172C926.601 72.6997 926.384 72.5365 926.069 72.4275C925.644 72.2803 925.201 72.2594 924.742 72.3648C923.832 72.6495 922.928 73.1213 922.029 73.7804C920.291 75.0307 918.966 75.4977 918.052 75.1815C916.855 74.7672 916.081 73.9966 915.731 72.8699C915.38 71.7432 915.417 70.5656 915.842 69.3371C915.957 69.0064 916.106 68.6523 916.289 68.2749C916.58 67.7407 916.742 67.4526 916.774 67.4108C916.861 67.1588 916.96 66.7699 917.072 66.2441C918.131 66.6991 919.31 67.3188 920.608 68.1032C920.578 68.4455 920.533 68.7032 920.473 68.8765C920.391 69.1127 920.262 69.359 920.085 69.6152C919.629 69.3517 918.799 68.8968 917.594 68.2504C917.222 68.5624 916.896 69.12 916.618 69.9232C916.368 70.6477 916.268 71.2922 916.319 71.8568C916.443 72.5698 916.82 73.0353 917.45 73.2534C918.127 73.4878 918.962 73.2919 919.955 72.6655C920.453 72.3972 920.915 72.1073 921.341 71.7959C922.361 71.0908 923.299 70.622 924.156 70.3894C924.647 70.2949 925.121 70.3267 925.578 70.4848C926.759 70.8937 927.485 71.6478 927.757 72.7473C928.035 73.831 927.961 74.9871 927.536 76.2156C927.219 77.1291 926.863 77.8523 926.467 78.3854C926.462 78.4012 926.448 78.4405 926.426 78.5035C926.389 78.5611 926.364 78.6056 926.353 78.6371L926.288 78.8261C926.244 79.0048 926.202 79.202 926.163 79.4176C925.969 79.3153 925.662 79.1562 925.243 78.9406C924.808 78.7195 924.507 78.5711 924.339 78.4954C924.114 78.3821 923.804 78.2309 923.411 78.0419C923.008 77.8317 922.717 77.6782 922.539 77.5813C922.534 77.5443 922.538 77.4837 922.549 77.3995C922.561 77.3153 922.567 77.2469 922.567 77.1942C922.579 77.11 922.612 76.9891 922.666 76.8316C922.743 76.6111 922.869 76.3728 923.046 76.1165C923.517 76.3855 923.944 76.6039 924.327 76.7717C924.956 77.0951 925.412 77.3323 925.695 77.4831Z" fill="#DD4E0C"/>
<path d="M931.62 63.6521L932.471 63.7783C932.629 65.1158 932.338 66.3287 931.597 67.417C931.409 67.6926 931.21 67.9403 931 68.1601C930.734 68.4025 930.483 68.5641 930.246 68.645C929.675 68.9214 929.017 68.8064 928.273 68.2998C928.053 68.1497 927.826 67.9649 927.592 67.7454L921.334 61.7901L920.278 63.34L919.495 62.625L920.482 60.9982L918.155 58.5069L919.098 57.1224L921.62 59.5047L923.829 56.2603L924.612 56.9753L922.403 60.2196L928.559 66.0144C928.752 66.2058 928.944 66.3671 929.137 66.4985C929.867 66.9956 930.471 66.8929 930.95 66.1903C931.372 65.5704 931.595 64.7243 931.62 63.6521Z" fill="#DD4E0C"/>
<path d="M937.503 59.7218L936.561 58.8191C936.772 58.1439 937.156 57.1313 937.713 55.7813C938.757 53.3313 939.382 51.2725 939.586 49.6049C939.679 48.6523 939.519 47.8134 939.109 47.0884C938.755 46.4648 938.377 46.0852 937.975 45.9493C937.564 45.799 937.061 45.8923 936.467 46.2292C935.785 46.6153 935.228 47.1704 934.795 47.8945C934.377 48.6103 934.159 49.3568 934.139 50.134L933.142 49.8947C933.141 49.0141 933.434 48.1293 934.023 47.2405C934.603 46.3371 935.299 45.6554 936.111 45.1953C937.198 44.579 938.252 44.3937 939.273 44.6393C939.712 44.7732 940.077 44.9595 940.365 45.1983C940.678 45.4806 940.917 45.7667 941.081 46.0567C941.394 46.6078 941.565 47.2482 941.595 47.978C941.632 48.6852 941.577 49.3486 941.43 49.9682C941.283 50.5879 941.029 51.3063 940.669 52.1237C940.3 52.9265 939.982 53.5662 939.716 54.0428C939.45 54.5193 939.103 55.1083 938.677 55.8096C938.356 56.3935 938.082 56.9227 937.853 57.3974L945.001 52.9735L945.877 54.9768L937.503 59.7218Z" fill="#DD4E0C"/>
<path d="M952.291 53.5743C950.51 53.8377 949.005 53.5129 947.774 52.5998C946.544 51.6867 945.8 50.3563 945.541 48.6087C945.222 46.4488 945.639 44.5423 946.793 42.8889C947.963 41.2331 949.611 40.2479 951.738 39.9332C953.502 39.6722 954.996 40.0325 956.22 41.014C957.457 41.9766 958.204 43.3234 958.46 45.0546C958.787 47.2639 958.377 49.161 957.23 50.7459C956.097 52.3119 954.45 53.2547 952.291 53.5743ZM952.257 52.4926C953.147 52.3608 953.895 52.0648 954.501 51.6045C955.121 51.1253 955.566 50.5456 955.836 49.8654C956.123 49.1828 956.303 48.4654 956.377 47.7131C956.448 46.9444 956.423 46.1478 956.301 45.3234C956.096 43.9385 955.621 42.8295 954.874 41.9965C954.125 41.147 953.091 40.8198 951.772 41.015C950.865 41.1491 950.102 41.4558 949.482 41.935C948.86 42.3978 948.405 42.9704 948.119 43.6531C947.849 44.3332 947.678 45.0577 947.606 45.8265C947.535 46.5952 947.561 47.4 947.685 48.2409C947.885 49.5928 948.368 50.6923 949.134 51.5394C949.913 52.3675 950.954 52.6853 952.257 52.4926Z" fill="#DD4E0C"/>
<path d="M959.772 52.3309L959.685 51.0288C960.296 50.6727 961.262 50.184 962.584 49.5628C965.008 48.4582 966.857 47.3593 968.133 46.266C968.843 45.6248 969.292 44.8981 969.477 44.0857C969.637 43.387 969.614 42.8518 969.408 42.4799C969.206 42.0919 968.772 41.8217 968.106 41.6695C967.342 41.495 966.557 41.5292 965.749 41.7721C964.957 42.0186 964.292 42.4223 963.754 42.9831L963.179 42.1336C963.772 41.4828 964.585 41.0275 965.619 40.768C966.657 40.4921 967.63 40.4582 968.54 40.6661C969.759 40.9445 970.662 41.5185 971.25 42.3879C971.484 42.7834 971.628 43.1666 971.68 43.5375C971.72 43.9571 971.704 44.3294 971.63 44.6544C971.488 45.2718 971.183 45.8602 970.713 46.4197C970.264 46.9665 969.775 47.4192 969.249 47.7776C968.723 48.136 968.051 48.4954 967.233 48.8557C966.42 49.1997 965.754 49.4579 965.236 49.6301C964.717 49.8024 964.065 50.0037 963.277 50.234C962.646 50.449 962.087 50.6545 961.597 50.8504L969.859 52.4047L969.155 54.4749L959.772 52.3309Z" fill="#DD4E0C"/>
<path d="M969.891 54.4926L970.216 53.2287C970.908 53.0819 971.979 52.9205 973.428 52.7443C976.076 52.4542 978.176 51.9897 979.73 51.3508C980.606 50.9644 981.259 50.4145 981.69 49.7011C982.06 49.0876 982.206 48.572 982.127 48.1545C982.057 47.7227 981.729 47.3302 981.144 46.9771C980.473 46.5722 979.717 46.3587 978.873 46.3364C978.045 46.3227 977.287 46.4979 976.6 46.8619L976.319 45.875C977.087 45.4426 978.002 45.265 979.065 45.3422C980.137 45.4051 981.072 45.6778 981.871 46.1601C982.941 46.8062 983.619 47.634 983.905 48.6438C984.004 49.0928 984.02 49.5016 983.953 49.8702C983.861 50.2815 983.728 50.6299 983.556 50.9152C983.229 51.4574 982.754 51.9206 982.133 52.3048C981.535 52.6833 980.929 52.9604 980.317 53.136C979.705 53.3115 978.954 53.4424 978.065 53.5286C977.185 53.6005 976.471 53.6372 975.925 53.6386C975.379 53.64 974.696 53.6267 973.876 53.5987C973.21 53.6055 972.614 53.6253 972.088 53.6582L979.447 57.7212L978.131 59.4669L969.891 54.4926Z" fill="#DD4E0C"/>
<path d="M996.253 60.8945L983.858 66.6311C981.193 67.8989 978.614 67.6474 976.12 65.8765L976.508 65.0686C977.205 65.4414 977.838 65.706 978.408 65.8626C978.969 66.0054 979.547 66.0256 980.142 65.923C980.724 65.8299 981.24 65.7004 981.692 65.5345C982.143 65.3686 982.763 65.1087 983.55 64.7548L993.934 59.8409L992.709 57.862L993.559 57.4659L996.253 60.8945ZM997.802 58.2385L1000.97 56.8436C1001.22 57.0724 1001.42 57.2902 1001.56 57.4969C1001.68 57.6761 1001.79 57.9063 1001.88 58.1874L998.661 59.5897C998.479 59.4111 998.322 59.2253 998.191 59.0324C998.069 58.8532 997.94 58.5886 997.802 58.2385Z" fill="#DD4E0C"/>
<path d="M1001.45 72.175C1001.61 72.6662 1001.72 73.1728 1001.79 73.695L1002.52 75.3754L990.508 77.327L991.011 79.267L990.085 79.4116L988.897 75.7757L996.485 74.6908L996.454 74.5958C993.788 74.4849 991.679 74.2007 990.127 73.7434C988.533 73.2647 987.555 72.4709 987.192 71.3619C987.037 70.8866 987.029 70.4333 987.169 70.0019C987.33 69.5812 987.587 69.2165 987.942 68.9077C988.318 68.6095 988.699 68.3535 989.085 68.1398C989.477 67.9419 989.894 67.7704 990.338 67.6255C992.841 66.8079 995.123 66.7636 997.185 67.4928C999.252 68.2379 1000.67 69.7986 1001.45 72.175ZM988.582 71.5916C988.763 72.1461 989.348 72.595 990.337 72.9383C991.347 73.2922 992.516 73.5153 993.843 73.6076C995.176 73.7158 996.412 73.768 997.55 73.7644C998.71 73.7713 999.69 73.7403 1000.49 73.6714C1000.6 73.0923 1000.58 72.5651 1000.42 72.0898C1000.12 71.1709 999.613 70.4431 998.894 69.9065C998.175 69.3698 997.357 69.0408 996.441 68.9193C995.541 68.7927 994.631 68.774 993.714 68.8634C992.817 68.9634 991.941 69.1531 991.086 69.4326C990.484 69.6292 989.878 69.9234 989.27 70.315C988.667 70.7225 988.437 71.148 988.582 71.5916Z" fill="#DD4E0C"/>
</svg>
