<svg width="1370" height="1041" viewBox="0 0 1370 1041" fill="none" xmlns="http://www.w3.org/2000/svg">
<rect x="68.4551" y="50.6812" width="1266.56" height="892.508" transform="rotate(-2.29334 68.4551 50.6812)" fill="#009A8F"/>
<rect x="39" y="59.6812" width="1266.56" height="920.173" transform="rotate(-2.29334 39 59.6812)" fill="#2A2927"/>
<rect x="2.68945" y="120.432" width="1253.12" height="923.249" transform="rotate(-4.36764 2.68945 120.432)" fill="#DAEA02"/>
<rect x="76.0625" y="131.907" width="398.142" height="861.761" transform="rotate(-4.49932 76.0625 131.907)" fill="white"/>
<mask id="path-5-inside-1_319_987" fill="white">
<path fill-rule="evenodd" clip-rule="evenodd" d="M480.939 589.24C478.032 691.667 418.07 783.056 354.745 834.431C361.63 802.19 360.914 729.716 302.962 697.742C293.651 690.027 278.948 680.063 262.495 668.912C231.571 647.954 194.463 622.804 175.341 600.526C136.652 555.451 131.125 517.607 135.653 476.087C136.309 470.073 137.936 464.184 140.296 458.613C162.353 406.56 179.685 383.501 249.476 335.244C254.833 330.476 262.086 314.036 261.366 305.461L289.851 336.169C282.586 335.34 265.912 335.59 257.342 343.218L226.995 375.991C253.904 365.095 311.78 357.353 348.48 383.053C371.417 399.116 392.977 433.044 394.847 438.164C401.208 451.062 413.624 483.504 412.404 510.087C410.878 543.317 372.941 622.781 275.522 628.088C313.251 648.905 407.154 670.278 480.939 589.24ZM288.012 605.451C228.817 610.425 176.69 565.191 171.583 504.417C166.477 443.644 210.324 390.345 269.519 385.371C328.714 380.397 380.841 425.632 385.948 486.405C391.054 547.179 347.207 600.478 288.012 605.451Z"/>
</mask>
<path d="M354.745 834.431L357.265 837.537L348.467 844.675L350.833 833.595L354.745 834.431ZM480.939 589.24L477.982 586.547L485.244 578.571L484.938 589.354L480.939 589.24ZM302.962 697.742L301.03 701.244L300.7 701.062L300.41 700.822L302.962 697.742ZM262.495 668.912L264.739 665.601L264.739 665.601L262.495 668.912ZM175.341 600.526L178.377 597.921L178.377 597.921L175.341 600.526ZM135.653 476.087L131.677 475.654L131.677 475.654L135.653 476.087ZM140.296 458.613L136.613 457.052L136.613 457.052L140.296 458.613ZM249.476 335.244L252.136 338.232L251.953 338.395L251.751 338.534L249.476 335.244ZM261.366 305.461L257.38 305.796L256.408 294.236L264.298 302.741L261.366 305.461ZM289.851 336.169L292.784 333.449L300.129 341.367L289.398 340.143L289.851 336.169ZM257.342 343.218L254.407 340.5L254.539 340.359L254.683 340.23L257.342 343.218ZM226.995 375.991L228.496 379.698L224.06 373.273L226.995 375.991ZM348.48 383.053L350.774 379.777L350.774 379.777L348.48 383.053ZM394.847 438.164L391.259 439.933L391.164 439.739L391.089 439.536L394.847 438.164ZM412.404 510.087L408.408 509.904L408.408 509.904L412.404 510.087ZM275.522 628.088L273.59 631.591L261.378 624.853L275.304 624.094L275.522 628.088ZM352.225 831.325C414.866 780.504 474.074 690.129 476.941 589.127L484.938 589.354C481.99 693.204 421.273 785.608 357.265 837.537L352.225 831.325ZM304.895 694.24C335.1 710.905 350.296 738.114 357.047 765.012C363.78 791.84 362.206 818.645 358.657 835.266L350.833 833.595C354.169 817.976 355.679 792.424 349.288 766.96C342.914 741.568 328.776 716.553 301.03 701.244L304.895 694.24ZM264.739 665.601C281.118 676.701 296.018 686.794 305.514 694.662L300.41 700.822C291.284 693.261 276.778 683.424 260.251 672.223L264.739 665.601ZM178.377 597.921C197.067 619.696 233.623 644.512 264.739 665.601L260.251 672.223C229.519 651.395 191.86 625.913 172.306 603.132L178.377 597.921ZM139.63 476.521C137.399 496.971 137.673 516.264 143.144 535.9C148.612 555.525 159.343 575.745 178.377 597.921L172.306 603.132C152.651 580.232 141.273 558.993 135.437 538.047C129.604 517.112 129.379 496.723 131.677 475.654L139.63 476.521ZM143.979 460.174C141.755 465.423 140.239 470.933 139.63 476.521L131.677 475.654C132.379 469.212 134.116 462.945 136.613 457.052L143.979 460.174ZM251.751 338.534C216.931 362.611 195.488 380.209 180.013 398.12C164.594 415.966 154.939 434.307 143.979 460.174L136.613 457.052C147.709 430.866 157.75 411.651 173.959 392.89C190.112 374.194 212.231 356.134 247.202 331.954L251.751 338.534ZM265.352 305.126C265.795 310.401 263.848 317.39 261.395 323.311C258.949 329.218 255.516 335.223 252.136 338.232L246.817 332.256C248.793 330.497 251.665 325.898 254.004 320.25C256.338 314.615 257.657 309.096 257.38 305.796L265.352 305.126ZM286.919 338.889L258.433 308.182L264.298 302.741L292.784 333.449L286.919 338.889ZM254.683 340.23C259.83 335.648 267.064 333.52 273.499 332.566C280.029 331.596 286.366 331.745 290.305 332.195L289.398 340.143C286.071 339.764 280.439 339.623 274.673 340.479C268.812 341.349 263.424 343.16 260.002 346.206L254.683 340.23ZM224.06 373.273L254.407 340.5L260.277 345.936L229.93 378.709L224.06 373.273ZM346.185 386.33C328.766 374.132 306.052 369.715 284.081 369.799C262.133 369.882 241.445 374.455 228.496 379.698L225.494 372.283C239.454 366.631 261.158 361.885 284.051 361.799C306.92 361.712 331.493 366.275 350.774 379.777L346.185 386.33ZM391.089 439.536C390.795 438.729 389.341 436.005 386.664 431.8C384.082 427.742 380.56 422.612 376.384 417.138C367.982 406.126 357.153 394.01 346.185 386.33L350.774 379.777C362.744 388.159 374.163 401.038 382.744 412.286C387.059 417.942 390.711 423.258 393.413 427.504C396.022 431.602 397.964 435.039 398.604 436.792L391.089 439.536ZM408.408 509.904C408.99 497.229 406.314 482.947 402.624 470.098C398.943 457.282 394.335 446.17 391.259 439.933L398.434 436.395C401.719 443.056 406.5 454.613 410.313 467.889C414.116 481.131 417.038 496.362 416.399 510.271L408.408 509.904ZM275.304 624.094C322.85 621.504 355.719 600.864 376.928 576.907C398.267 552.803 407.693 525.475 408.408 509.904L416.399 510.271C415.589 527.929 405.283 556.947 382.918 582.21C360.422 607.62 325.612 629.365 275.74 632.082L275.304 624.094ZM483.897 591.933C408.415 674.834 312.269 652.932 273.59 631.591L277.454 624.586C314.232 644.877 405.893 665.721 477.982 586.547L483.897 591.933ZM175.569 504.082C180.499 562.754 230.781 606.246 287.677 601.465L288.346 609.437C226.852 614.604 172.88 567.627 167.597 504.752L175.569 504.082ZM269.854 389.357C212.959 394.137 170.639 445.41 175.569 504.082L167.597 504.752C162.314 441.877 207.69 386.552 269.184 381.385L269.854 389.357ZM381.962 486.74C377.032 428.068 326.75 384.576 269.854 389.357L269.184 381.385C330.679 376.218 384.65 423.195 389.933 486.07L381.962 486.74ZM287.677 601.465C344.572 596.685 386.891 545.412 381.962 486.74L389.933 486.07C395.217 548.946 349.841 604.27 288.346 609.437L287.677 601.465Z" fill="#6965E2" mask="url(#path-5-inside-1_319_987)"/>
<path d="M133.409 349.068C131.82 349.096 130.48 349.493 129.387 350.258C128.293 350.97 127.447 352.051 126.849 353.5C126.304 354.948 125.913 356.207 125.675 357.276C125.438 358.346 125.21 359.761 124.99 361.523L124.133 368.33L134.06 368.152L133.588 371.436L123.661 371.614L116.619 425.114L126.163 425.502L125.918 428.303L105.27 428.673L105.516 425.872L110.584 425.222L117.626 371.723L111.988 371.824L112.459 368.539L118.167 368.038L119.028 361.39C119.506 357.334 121.082 353.763 123.757 350.679C126.484 347.541 129.779 345.937 133.644 345.867C135.973 345.826 138.527 346.259 141.305 347.168C141.838 347.318 142.29 347.39 142.661 347.384C142.715 347.436 142.795 347.461 142.901 347.459C143.06 347.456 143.403 347.397 143.929 347.281C143.467 351.923 142.957 355.768 142.399 358.814C141.347 359.099 140.504 359.247 139.869 359.259C139.074 359.273 138.197 359.156 137.238 358.907C137.419 357.731 137.557 356.903 137.65 356.422C137.696 356.155 137.74 355.808 137.782 355.381C137.877 354.953 137.922 354.633 137.916 354.42C137.911 354.207 137.929 353.887 137.971 353.46C138.066 353.032 138.137 352.685 138.183 352.418C138.219 351.778 138.28 351.058 138.365 350.257C137.231 349.425 135.579 349.029 133.409 349.068Z" fill="#DD4E0C"/>
<path d="M135.806 394.426C136.514 391.317 137.609 388.3 139.091 385.375C140.573 382.45 142.375 379.793 144.497 377.403C146.619 375.012 149.166 373.269 152.136 372.173C155.159 371.089 158.322 370.94 161.626 371.726C164.414 372.389 166.553 373.634 168.041 375.463C169.582 377.304 170.045 379.572 169.432 382.266C169.078 383.821 168.171 385.298 166.709 386.698C165.259 388.047 163.682 389.119 161.977 389.916C156.862 392.304 150.664 392.633 143.384 390.902C142.527 392.993 141.91 394.867 141.533 396.525C141.262 397.717 141.151 398.919 141.202 400.133C141.189 401.386 141.412 402.559 141.871 403.651C142.793 406.055 144.7 407.601 147.591 408.288C150.018 408.865 153.275 408.302 157.364 406.598L158.424 409.471C155.815 410.654 153.493 411.412 151.457 411.747C149.433 412.031 147.157 411.872 144.627 411.27C140.548 410.301 137.822 408.287 136.45 405.23C135.077 402.172 134.863 398.571 135.806 394.426ZM160.025 374.458C158.373 374.065 156.7 374.241 155.007 374.986C153.365 375.742 151.879 376.891 150.549 378.432C149.218 379.973 148.049 381.524 147.04 383.087C146.095 384.61 145.273 386.19 144.574 387.826C152.267 389.655 157.889 388.507 161.44 384.381C162.355 383.233 162.948 382.063 163.219 380.871C163.561 379.368 163.462 378.007 162.924 376.786C162.437 375.578 161.47 374.802 160.025 374.458Z" fill="#DD4E0C"/>
<path d="M166.441 413.178C167.247 414.562 168.894 415.973 171.381 417.412C172.395 417.998 173.391 418.452 174.371 418.774C176.555 419.669 178.47 419.797 180.117 419.158C180.865 418.917 181.5 418.335 182.023 417.413C182.728 416.168 183.049 414.793 182.984 413.287C182.62 410.26 181.667 407.138 180.126 403.921C177.222 397.712 176.527 393.27 178.042 390.596C180.028 387.091 182.882 385.13 186.605 384.712C190.328 384.294 193.986 385.124 197.58 387.202C198.547 387.761 199.568 388.443 200.641 389.248C202.143 390.483 202.95 391.164 203.062 391.29C203.799 391.717 204.957 392.264 206.535 392.932C204.503 395.98 201.886 399.303 198.686 402.9C197.634 402.598 196.854 402.3 196.348 402.007C195.657 401.608 194.962 401.053 194.263 400.343C195.349 399.073 197.25 396.744 199.965 393.356C199.205 391.998 197.65 390.64 195.301 389.282C193.181 388.056 191.225 387.353 189.431 387.173C187.132 387.129 185.46 388.029 184.415 389.873C183.292 391.856 183.422 394.594 184.806 398.088C185.357 399.815 185.997 401.439 186.724 402.962C188.339 406.589 189.263 409.816 189.495 412.644C189.507 414.243 189.134 415.71 188.377 417.048C186.417 420.506 183.642 422.328 180.049 422.516C176.503 422.73 172.933 421.798 169.339 419.72C166.667 418.175 164.613 416.62 163.176 415.054C163.13 415.027 163.014 414.961 162.83 414.854C162.672 414.702 162.547 414.599 162.455 414.545L161.902 414.226C161.369 413.979 160.777 413.728 160.126 413.474C160.558 412.928 161.231 412.063 162.147 410.878C163.089 409.648 163.726 408.792 164.06 408.312C164.544 407.673 165.195 406.795 166.012 405.676C166.902 404.537 167.549 403.718 167.955 403.218C168.073 403.225 168.26 403.273 168.517 403.36C168.773 403.447 168.984 403.507 169.148 403.541C169.405 403.628 169.763 403.805 170.224 404.071C170.869 404.444 171.541 404.986 172.239 405.696C171.127 407.011 170.198 408.219 169.453 409.318C168.079 411.095 167.075 412.381 166.441 413.178Z" fill="#DD4E0C"/>
<path d="M206.242 440.139L205.356 442.735C201.085 442.42 197.464 440.771 194.49 437.787C193.738 437.032 193.078 436.258 192.513 435.466C191.909 434.485 191.548 433.599 191.432 432.808C190.898 430.848 191.637 428.855 193.649 426.828C194.245 426.227 194.954 425.627 195.775 425.027L217.995 408.999L213.76 404.75L216.447 402.725L220.961 406.805L230.088 401.016L233.87 404.812L224.971 411.28L233.834 420.174L231.148 422.199L222.285 413.305L200.626 429.109C199.917 429.596 199.301 430.102 198.78 430.628C196.805 432.617 196.777 434.575 198.697 436.501C200.39 438.201 202.905 439.414 206.242 440.139Z" fill="#DD4E0C"/>
<path d="M215.128 460.978L218.492 458.568C220.48 459.64 223.423 461.457 227.32 464.022C234.373 468.782 240.446 471.988 245.539 473.64C248.462 474.506 251.175 474.515 253.678 473.665C255.83 472.934 257.235 471.978 257.892 470.797C258.598 469.6 258.597 467.966 257.887 465.897C257.074 463.525 255.661 461.441 253.648 459.646C251.652 457.901 249.446 456.762 247.028 456.231L248.351 453.246C251.104 453.777 253.699 455.234 256.137 457.617C258.625 459.984 260.354 462.58 261.323 465.406C262.621 469.191 262.593 472.61 261.236 475.662C260.564 476.961 259.772 477.99 258.859 478.751C257.796 479.563 256.765 480.139 255.764 480.478C253.862 481.124 251.761 481.274 249.463 480.927C247.232 480.614 245.191 480.04 243.34 479.204C241.488 478.367 239.39 477.136 237.044 475.51C234.748 473.867 232.932 472.483 231.597 471.359C230.261 470.235 228.621 468.792 226.675 467.03C225.035 465.671 223.54 464.488 222.189 463.482L231.889 488.585L225.123 490.122L215.128 460.978Z" fill="#DD4E0C"/>
<path d="M225.806 511.091C226.01 505.345 227.894 500.819 231.457 497.513C235.02 494.206 239.607 492.677 245.217 492.924C252.15 493.229 257.867 495.692 262.368 500.313C266.867 504.987 268.994 510.755 268.75 517.618C268.548 523.31 266.56 527.778 262.788 531.022C259.066 534.322 254.426 535.849 248.869 535.604C241.777 535.292 236.085 532.857 231.794 528.299C227.555 523.796 225.558 518.06 225.806 511.091ZM229.206 511.64C229.104 514.513 229.597 517.039 230.686 519.218C231.826 521.453 233.38 523.2 235.35 524.459C237.318 525.771 239.455 526.771 241.763 527.459C244.124 528.149 246.628 528.552 249.274 528.669C253.72 528.865 257.46 528.044 260.494 526.206C263.58 524.37 265.199 521.324 265.351 517.068C265.455 514.143 264.937 511.562 263.797 509.327C262.71 507.095 261.183 505.323 259.215 504.01C257.245 502.751 255.08 501.777 252.719 501.087C250.358 500.397 247.828 499.992 245.129 499.873C240.789 499.682 237.075 500.531 233.986 502.42C230.948 504.364 229.355 507.438 229.206 511.64Z" fill="#DD4E0C"/>
<path d="M225.375 535.313L229.494 535.828C230.254 537.961 231.223 541.289 232.402 545.811C234.455 554.083 236.822 560.551 239.503 565.215C241.096 567.832 243.108 569.678 245.54 570.753C247.631 571.676 249.317 571.928 250.597 571.508C251.927 571.11 253.021 569.911 253.881 567.914C254.867 565.624 255.213 563.138 254.921 560.457C254.607 557.825 253.729 555.495 252.287 553.466L255.274 552.176C256.965 554.431 257.918 557.258 258.133 560.659C258.396 564.081 257.941 567.156 256.766 569.884C255.193 573.539 252.878 576.024 249.822 577.342C248.451 577.838 247.171 578.055 245.982 577.994C244.647 577.868 243.494 577.59 242.521 577.16C240.673 576.344 239.011 575.03 237.533 573.217C236.084 571.475 234.951 569.67 234.135 567.801C233.319 565.933 232.583 563.607 231.929 560.825C231.324 558.064 230.901 555.818 230.662 554.089C230.422 552.359 230.17 550.189 229.905 547.578C229.597 545.471 229.278 543.59 228.948 541.936L219.325 566.912L213.262 563.45L225.375 535.313Z" fill="#DD4E0C"/>
<path d="M212.782 565.747L216.544 567.531C216.603 569.792 216.49 573.249 216.204 577.903C215.583 586.385 215.822 593.256 216.922 598.517C217.624 601.498 218.966 603.881 220.947 605.664C222.65 607.197 224.177 607.966 225.527 607.972C226.917 608.013 228.332 607.222 229.773 605.601C231.425 603.742 232.529 601.497 233.086 598.866C233.607 596.274 233.496 593.79 232.755 591.414L236.001 591.133C236.909 593.801 236.936 596.78 236.082 600.068C235.267 603.392 233.875 606.161 231.907 608.376C229.271 611.342 226.293 612.968 222.972 613.253C221.512 613.291 220.226 613.094 219.113 612.662C217.881 612.122 216.868 611.496 216.076 610.783C214.571 609.427 213.397 607.659 212.555 605.477C211.717 603.371 211.201 601.304 211.005 599.277C210.81 597.251 210.834 594.816 211.078 591.975C211.361 589.169 211.658 586.909 211.969 585.196C212.279 583.482 212.715 581.347 213.276 578.791C213.639 576.697 213.921 574.816 214.121 573.145L197.179 593.772L192.484 588.584L212.782 565.747Z" fill="#DD4E0C"/>
<path d="M177.568 644.57L166.793 602.214C164.369 593.086 166.643 585.147 173.615 578.395L175.916 580.101C174.35 582.061 173.157 583.888 172.339 585.582C171.569 587.254 171.173 589.055 171.149 590.985C171.105 592.866 171.212 594.565 171.47 596.082C171.728 597.599 172.182 599.699 172.834 602.383L182.198 637.935L189.088 635.291L189.835 638.195L177.568 644.57ZM184.973 651.041L187.507 661.808C186.644 662.474 185.849 662.964 185.122 663.28C184.491 663.554 183.711 663.747 182.78 663.861L180.255 652.915C180.918 652.452 181.589 652.074 182.268 651.779C182.898 651.505 183.8 651.259 184.973 651.041Z" fill="#DD4E0C"/>
<path d="M139.32 654.044C137.693 654.25 136.044 654.298 134.375 654.187L128.701 655.469L129.534 616.601L123.182 617.002L123.264 614.01L135.311 612.486L134.323 636.948L134.638 636.908C136.523 628.611 138.627 622.166 140.952 617.574C143.367 612.863 146.412 610.275 150.087 609.81C151.661 609.611 153.082 609.861 154.35 610.56C155.572 611.319 156.563 612.348 157.323 613.649C158.038 615.009 158.618 616.36 159.063 617.7C159.456 619.047 159.75 620.46 159.947 621.94C161.058 630.288 159.88 637.475 156.411 643.501C152.891 649.534 147.194 653.048 139.32 654.044ZM148.567 614.032C146.73 614.264 144.989 615.828 143.346 618.722C141.658 621.675 140.286 625.207 139.232 629.316C138.125 633.431 137.249 637.276 136.603 640.85C135.913 644.483 135.444 647.578 135.197 650.134C136.943 650.826 138.604 651.073 140.179 650.873C143.223 650.488 145.792 649.331 147.883 647.4C149.975 645.47 151.475 643.105 152.383 640.304C153.298 637.555 153.881 634.715 154.131 631.782C154.336 628.909 154.249 626.045 153.869 623.192C153.602 621.185 153.032 619.108 152.159 616.962C151.234 614.822 150.037 613.846 148.567 614.032Z" fill="#DD4E0C"/>
<rect x="472.082" y="100.509" width="398.142" height="861.761" transform="rotate(-4.49932 472.082 100.509)" fill="#DD4E0C"/>
<rect x="868.996" y="69.2754" width="398.142" height="861.761" transform="rotate(-4.49932 868.996 69.2754)" fill="#6965E2"/>
<path d="M1018.89 708.358L1007.22 700.114L1115.27 696.667L1106.05 704.562L1107.02 705.702L1105.99 704.616C1099.1 711.191 1095.01 720.17 1094.57 729.684L1092.88 766.714L1090.6 791.175L1089.56 802.279C1089.44 803.54 1089.53 804.812 1089.82 806.046L1089.96 806.647C1090.5 809.002 1091.87 811.084 1093.82 812.516C1095.58 813.809 1097.71 814.499 1099.89 814.484L1100.29 814.481C1103.03 814.463 1105.68 813.444 1107.73 811.617L1108.3 811.115C1109.77 809.806 1110.93 808.187 1111.7 806.375L1137.39 745.881L1137.39 745.874L1137.39 745.866L1180.49 641.345L1196.38 608.479C1197.19 606.8 1198.24 605.245 1199.49 603.863L1200.27 603.003C1202.06 601.026 1204.34 599.554 1206.88 598.735C1208.84 598.1 1210.92 597.872 1212.97 598.064L1214.47 598.204C1216.98 598.438 1219.43 599.088 1221.72 600.129L1226.7 602.393L1226.72 602.405L1226.75 602.415L1240.21 607.929C1241.87 608.608 1243.74 608.471 1245.29 607.561C1247.33 606.353 1249.8 606.098 1252.05 606.86L1272.05 613.646L1272.1 613.665L1272.16 613.679L1283.03 616.476L1271.07 625.255L1251.55 622.817C1248.4 622.423 1245.47 620.945 1243.28 618.636L1243.06 618.397C1242.64 617.954 1242.1 617.639 1241.51 617.49L1225.56 613.468C1223.11 612.85 1220.53 613.095 1218.24 614.16C1217.24 614.626 1216.31 615.24 1215.49 615.982L1214.98 616.453C1213.09 618.16 1211.65 620.302 1210.79 622.691L1195.61 664.511L1195.59 664.551L1195.58 664.591L1157.27 792.192L1145.1 827.272C1143.12 832.978 1140.6 838.48 1137.56 843.704L1133.62 850.493C1130.88 855.213 1127.36 859.436 1123.22 862.982C1118.88 866.685 1113.93 869.594 1108.58 871.572L1108.24 871.698C1102.71 873.743 1096.86 874.803 1090.97 874.829C1087.69 874.843 1084.42 874.538 1081.2 873.918L1080.62 873.807C1075.18 872.758 1069.93 870.881 1065.05 868.243L1063.18 867.229C1057.8 864.317 1053.08 860.319 1049.33 855.489C1046.93 852.402 1044.95 849.011 1043.45 845.404L1042.26 842.555C1039.94 837.003 1038.38 831.166 1037.62 825.2L1036.59 817.231L1036.84 781.202L1039.12 744.556C1039.48 738.871 1038.54 733.18 1036.37 727.912C1034.45 723.23 1031.44 719.072 1027.59 715.783L1019 708.443L1018.95 708.398L1018.89 708.358Z" stroke="white" stroke-width="3"/>
</svg>
