<svg width="401" height="321" viewBox="0 0 401 321" fill="none" xmlns="http://www.w3.org/2000/svg">
<path d="M27.9364 22.0833L23.5058 21.8868L16.1634 53.243L29.8333 54.9814C30.0845 54.1048 30.2602 53.4107 30.3602 52.8993C30.4558 52.4222 30.6336 51.7109 30.8936 50.7655C30.9067 50.6624 31.0067 50.1509 31.1936 49.2311C31.3804 48.3113 31.5389 47.6151 31.6689 47.1424C32.3098 47.0492 33.0085 47.0507 33.7651 47.1469C34.3841 47.2256 34.9922 47.3903 35.5893 47.641C35.5287 47.8429 35.429 48.2146 35.2902 48.7561C35.1859 49.302 35.1034 49.6759 35.0427 49.8779C34.7477 51.0984 34.5243 52.031 34.3724 52.6757C34.0687 53.965 33.8431 54.9148 33.6956 55.525C33.4743 56.4404 33.2727 57.2011 33.0908 57.807C32.3561 57.5388 31.7653 57.3763 31.3182 57.3195C30.9443 57.237 30.2587 57.1323 29.2614 57.0055L6.92525 54.1649L7.32273 52.276L11.8499 52.5372L19.1727 21.3357L14.8339 20.417L15.283 18.5346L28.3855 20.2009L27.9364 22.0833Z" fill="#6965E2"/>
<path d="M49.7238 58.0412L53.7705 59.072L53.2714 60.8345L45.1631 59.5082L52.8043 36.3095L48.7837 35.4411L49.4022 33.5927L57.7138 34.3199L49.7238 58.0412ZM56.131 28.2123L58.5555 21.4429C59.2678 21.3838 59.8805 21.3962 60.3936 21.4801C60.8384 21.5528 61.3376 21.7223 61.8912 21.9885L59.3985 28.8521C58.8686 28.8708 58.3641 28.841 57.8851 28.7627C57.4404 28.6899 56.8557 28.5065 56.131 28.2123Z" fill="#6965E2"/>
<path d="M70.3527 61.936C71.474 62.1627 72.8555 61.5401 74.497 60.0681C76.1725 58.6031 77.7877 56.7368 79.3425 54.4693C80.9042 52.1677 82.2855 49.9712 83.4864 47.8797C84.7281 45.7611 85.6734 43.9716 86.3223 42.5112C85.3858 41.7206 84.4078 41.2223 83.3884 41.0162C81.4516 40.6247 79.6292 40.8044 77.9211 41.5556C76.2131 42.3067 74.7796 43.4493 73.6206 44.9834C72.4617 46.5175 71.4963 48.1438 70.7245 49.8623C69.9527 51.5807 69.3813 53.3574 69.0104 55.1923C68.7768 56.3476 68.7128 57.714 68.8183 59.2915C68.9578 60.8759 69.4693 61.7574 70.3527 61.936ZM63.4043 73.476C64.3611 74.3414 65.5022 74.9081 66.8273 75.176C68.3564 75.4851 69.7673 75.4166 71.06 74.9706C72.3458 74.5585 73.4351 73.8061 74.328 72.7134C75.248 71.6615 76.0151 70.5787 76.6293 69.465C77.2435 68.3513 77.8241 67.0539 78.3711 65.5729C78.6718 64.7849 79.1094 63.5824 79.6839 61.9655C80.2923 60.3555 80.7503 59.1395 81.058 58.3175C81.9332 55.9125 82.948 53.4297 84.1022 50.869L83.8984 50.8278C77.7865 60.5917 72.6578 65.0546 68.5123 64.2166C67.493 64.0105 66.6645 63.56 66.0268 62.8653C65.43 62.1434 65.034 61.3029 64.8389 60.3439C64.6845 59.3577 64.6117 58.4058 64.6204 57.488C64.6631 56.577 64.7806 55.6458 64.973 54.6944C66.0583 49.3257 68.3173 45.1492 71.75 42.1649C75.2167 39.1874 79.4986 38.2139 84.5954 39.2442C85.6488 39.4572 86.6816 39.7721 87.6937 40.1889L91.4866 40.5843C89.6631 44.5305 87.4442 50.6958 84.8297 59.0799C84.3232 60.7106 83.8648 62.1034 83.4545 63.2583C83.085 64.3861 82.5724 65.6972 81.9166 67.1916C81.2609 68.6859 80.6022 69.9321 79.9407 70.9302C79.2791 71.9282 78.4578 72.9293 77.4767 73.9335C76.4956 74.9377 75.4607 75.6834 74.3719 76.1706C73.3102 76.6987 72.0551 77.0463 70.6066 77.2132C69.1513 77.4142 67.5911 77.3463 65.9261 77.0098C65.3485 76.893 64.7981 76.7287 64.2751 76.5168C64.078 76.4416 63.7825 76.3288 63.3885 76.1785C63.0285 76.0349 62.767 75.929 62.6039 75.8607C62.3119 75.7309 61.7583 75.4952 60.9431 75.1536C60.1413 74.9208 59.5366 74.7631 59.1288 74.6807C59.2315 74.3478 59.4504 73.7024 59.7855 72.7444C60.1138 71.8205 60.3565 71.1445 60.5138 70.7165C60.8283 69.8606 61.0812 69.222 61.2724 68.8009C61.3953 68.5428 61.5285 68.2337 61.6721 67.8737C61.8496 67.5205 61.9452 67.31 61.9589 67.242C62.6728 67.2095 63.2507 67.2379 63.6924 67.3272C64.338 67.4577 64.9495 67.6697 65.5267 67.9632C65.4584 68.1263 65.2945 68.4999 65.0349 69.084C64.7754 69.6682 64.5704 70.1573 64.42 70.5513C63.9348 71.7264 63.5963 72.7013 63.4043 73.476Z" fill="#6965E2"/>
<path d="M119.134 75.6573L111.334 73.6286C111.53 73.2857 112.084 72.1222 112.994 70.138C113.388 69.3093 113.989 68.0328 114.796 66.3083C116.521 62.5661 118.055 59.0786 119.397 55.8457C119.767 54.9747 120.065 54.1031 120.292 53.2308C120.475 52.5262 120.549 51.9005 120.512 51.3536C120.424 50.8651 120.145 50.5598 119.675 50.4376C118.87 50.2282 117.796 50.5039 116.451 51.2647C115.107 52.0256 113.748 53.0511 112.374 54.3414C111.042 55.6069 109.823 56.8482 108.719 58.0653C107.623 59.2489 106.726 60.2873 106.028 61.1804C103.287 64.6943 101.348 67.8795 100.212 70.736L96.5377 69.7805L111.622 35.1256L107.699 33.8903L108.485 32.1068L116.845 33.6363L104.409 60.3831L104.61 60.4354C105.615 59.0492 106.674 57.7307 107.788 56.48C108.91 55.1957 110.277 53.7961 111.889 52.281C113.509 50.7324 115.185 49.5921 116.916 48.8602C118.655 48.0946 120.246 47.8995 121.689 48.2747C123.131 48.6499 124.042 49.2807 124.42 50.1672C124.807 51.0201 124.809 52.1846 124.425 53.6609C124.102 54.9022 123.623 56.1926 122.988 57.5319C122.645 58.3022 122.091 59.5372 121.326 61.2368C120.604 62.9117 120.037 64.197 119.625 65.0927C118.114 68.4249 116.942 70.9321 116.111 72.6143L119.844 73.9613L119.134 75.6573Z" fill="#6965E2"/>
<path d="M144.325 79.6344L144.575 81.4077C142 82.5109 139.409 82.644 136.801 81.8071C136.141 81.5952 135.53 81.3444 134.967 81.0547C134.327 80.6672 133.857 80.2613 133.556 79.8371C132.668 78.8603 132.51 77.4807 133.082 75.6983C133.252 75.1702 133.487 74.6084 133.787 74.013L141.978 58.0192L138.265 56.8274L139.229 54.8432L143.056 55.8529L146.655 49.7445L149.972 50.8092L146.706 57.2428L154.479 59.7377L153.515 61.7218L145.741 59.2269L137.81 74.9218C137.541 75.4182 137.333 75.8974 137.184 76.3595C136.623 78.109 137.184 79.2538 138.867 79.7941C140.353 80.2709 142.172 80.2176 144.325 79.6344Z" fill="#6965E2"/>
<path d="M201.148 69.3583L196.948 67.9344L181.217 95.8574L185.053 97.8602L184.144 99.5634L172.026 94.3105L172.934 92.6072L177.209 94.1202L192.94 66.1972L189.029 64.1053L189.985 62.4228L202.104 67.6757L201.148 69.3583Z" fill="#6965E2"/>
<path d="M208.161 107.161L208.128 108.952C205.411 109.635 202.831 109.357 200.388 108.119C199.77 107.806 199.206 107.461 198.696 107.087C198.125 106.603 197.725 106.128 197.495 105.661C196.772 104.557 196.834 103.17 197.68 101.5C197.931 101.005 198.252 100.487 198.642 99.9469L209.256 85.4467L205.777 83.6836L207.043 81.8765L210.662 83.4776L215.18 78.0139L218.287 79.5889L214.046 85.4262L221.329 89.1169L220.063 90.924L212.781 87.2333L202.471 101.479C202.127 101.927 201.846 102.367 201.627 102.8C200.796 104.439 201.169 105.658 202.746 106.457C204.138 107.163 205.943 107.397 208.161 107.161Z" fill="#6965E2"/>
<path d="M244.367 101.517C245.282 102.081 246.143 102.733 246.949 103.473L250.372 105.153L233.937 124.407L237.343 126.81L236.069 128.285L229.294 124.113L239.874 112.186L239.697 112.077C235.318 115.487 231.589 117.873 228.512 119.235C225.339 120.619 222.719 120.676 220.653 119.403C219.767 118.858 219.145 118.149 218.786 117.277C218.475 116.394 218.394 115.468 218.542 114.501C218.737 113.522 218.997 112.603 219.322 111.745C219.677 110.905 220.109 110.071 220.617 109.245C223.489 104.581 227.051 101.44 231.303 99.8244C235.584 98.2266 239.939 98.7908 244.367 101.517ZM223.167 117.898C224.2 118.534 225.732 118.46 227.763 117.674C229.841 116.878 231.995 115.66 234.226 114.021C236.486 112.4 238.517 110.82 240.318 109.283C242.167 107.735 243.681 106.367 244.86 105.179C244.254 104.114 243.508 103.309 242.622 102.764C240.91 101.709 239.123 101.24 237.261 101.355C235.398 101.471 233.659 102.048 232.041 103.088C230.442 104.098 228.975 105.292 227.639 106.668C226.351 108.032 225.216 109.511 224.235 111.106C223.544 112.227 222.98 113.508 222.541 114.948C222.132 116.406 222.34 117.389 223.167 117.898Z" fill="#6965E2"/>
<path d="M249.627 135.611L252.764 138.367L251.518 139.711L244.898 134.846L271.74 108.238L268.552 105.638L269.943 104.272L277.017 108.695L249.627 135.611Z" fill="#6965E2"/>
<path d="M265.818 148.61L268.768 151.566L267.437 152.825L261.149 147.537L279.584 131.515L276.574 128.712L278.052 127.44L284.821 132.318L265.818 148.61ZM286.586 126.26L292.133 121.685C292.775 121.998 293.295 122.323 293.693 122.657C294.038 122.947 294.38 123.348 294.719 123.86L289.066 128.482C288.601 128.227 288.183 127.943 287.811 127.631C287.466 127.341 287.058 126.884 286.586 126.26Z" fill="#6965E2"/>
<path d="M304.449 150.83C304.867 151.246 305.223 151.674 305.518 152.115L306.402 153.437C307.065 154.392 307.79 155.261 308.576 156.045C307.033 157.395 305.319 158.624 303.434 159.73C303.189 159.877 302.895 160.049 302.552 160.246C302.234 160.467 302.05 160.602 302.001 160.651C301.388 160.284 300.946 159.966 300.676 159.697C300.283 159.306 299.927 158.828 299.607 158.265C300.293 157.822 301.101 157.306 302.032 156.717C303.011 156.127 303.844 155.513 304.529 154.874C304.233 153.796 303.619 152.792 302.686 151.862C301.532 150.712 300.085 150.101 298.344 150.03C296.653 149.959 294.937 150.33 293.198 151.141C291.484 151.929 289.879 152.826 288.386 153.833C286.916 154.865 285.631 155.933 284.53 157.038C283.159 158.413 282.316 159.873 282 161.418C281.708 162.987 282.213 164.42 283.514 165.717C284.913 167.112 287.121 167.991 290.136 168.354L289.662 170.304C286.058 169.942 283.102 168.611 280.794 166.31C278.854 164.376 278.079 162.306 278.468 160.1C278.856 157.893 280.054 155.783 282.061 153.77C283.97 151.855 286.235 150.319 288.856 149.163C291.477 148.007 294.234 147.5 297.127 147.642C300.044 147.809 302.485 148.872 304.449 150.83Z" fill="#6965E2"/>
</svg>
