<svg width="364" height="364" viewBox="0 0 364 364" fill="none" xmlns="http://www.w3.org/2000/svg">
<path d="M27.3031 223.223L25.9808 200.641L27.3994 200.558L27.6814 202.895L44.849 201.89L44.8275 199.538L46.2461 199.455L46.8106 209.095L45.392 209.178L45.1372 206.811L28.1144 207.808L28.584 215.827L45.6068 214.83L45.5853 212.479L47.0039 212.396L47.5684 222.036L46.1498 222.119L45.895 219.752L28.7274 220.757L28.7217 223.14L27.3031 223.223Z" fill="white"/>
<path d="M39.6264 185.807L39.4752 187.337L45.7376 187.956L46.2272 184.478L47.6413 184.618L46.577 195.382L45.1629 195.243L45.2814 192.865L28.1679 191.173L27.7896 193.525L26.3755 193.385L27.3057 183.977C27.8517 178.455 30.1063 175.89 34.0697 176.282C35.301 176.404 36.3335 176.768 37.1672 177.375C38.0008 177.982 38.6038 178.76 38.9762 179.71C39.3312 180.639 39.5563 181.604 39.6517 182.604C39.749 183.585 39.7406 184.653 39.6264 185.807ZM28.8245 184.826L28.6818 186.269L37.9745 187.188L38.14 185.514C38.2751 184.148 37.9643 183.166 37.2076 182.566C36.4509 181.967 35.3703 181.598 33.9658 181.459C32.4266 181.307 31.2254 181.47 30.3622 181.948C29.4816 182.405 28.9691 183.364 28.8245 184.826Z" fill="white"/>
<path d="M42.7623 161.983L42.3524 163.645C42.306 163.832 42.2573 163.989 42.2061 164.116C43.3903 164.966 44.4427 165.664 45.3634 166.21C47.1344 167.264 48.3779 168.358 49.0941 169.49C49.8149 170.604 49.9575 172.043 49.5221 173.807C49.258 174.877 48.9276 175.692 48.5307 176.251L47.2919 175.945C47.3945 175.772 47.4713 175.581 47.5223 175.375C47.6149 175 47.5834 174.643 47.4276 174.306C47.2718 173.969 47.0976 173.707 46.9047 173.52C46.7119 173.333 46.4228 173.092 46.0374 172.798C45.497 172.406 44.9238 172.025 44.3178 171.657C41.8565 170.253 40.7354 168.542 40.9543 166.525C39.5854 169.732 37.512 170.993 34.734 170.307C33.9457 170.113 33.2788 169.789 32.7335 169.336C32.1929 168.864 31.7857 168.335 31.512 167.75C31.2429 167.146 31.058 166.483 30.9573 165.761C30.8613 165.02 30.8475 164.31 30.9157 163.63C30.9699 162.926 31.085 162.218 31.261 161.505L33.561 152.185L34.9406 152.526L34.5116 154.869L51.2077 158.99L51.8901 156.709L53.2697 157.049L50.9558 166.425L49.5762 166.084L50.0264 163.776L42.7623 161.983ZM33.3585 159.663L33.0805 160.789C32.7516 162.121 32.8696 163.136 33.4344 163.833C33.9992 164.53 34.9761 165.05 36.365 165.393C37.6226 165.703 38.6331 165.684 39.3963 165.334C40.1408 164.981 40.6636 164.194 40.9647 162.973L41.2983 161.622L33.3585 159.663Z" fill="white"/>
<path d="M53.1395 152.208L53.4373 150.118L38.4431 143.298L37.2506 145.115L35.9 144.513L38.9261 137.733L54.0486 138.005L43.5952 127.273L46.7158 120.282L48.0663 120.885L47.4271 122.886L62.9983 129.836L64.0617 127.739L65.3593 128.318L61.4231 137.136L60.1255 136.557L60.9888 134.338L47.9863 128.534L59.824 140.932L59.5989 141.721C59.5693 141.835 59.5327 141.988 59.4893 142.18C59.4221 142.425 59.3904 142.591 59.3942 142.678L41.7186 142.505L54.2269 147.993L56.402 144.899L57.6996 145.478L54.4371 152.787L53.1395 152.208Z" fill="white"/>
<path d="M56.4968 104.968C58.2932 102.355 60.4584 100.759 62.9925 100.178C65.5375 99.5817 68.0766 100.154 70.6097 101.896C73.4136 103.824 75.1023 106.111 75.6758 108.757C76.2443 111.377 75.5921 114.049 73.7191 116.773C71.7913 119.577 69.5818 121.272 67.0905 121.859C64.5833 122.434 61.9755 121.791 59.2672 119.929C56.6226 118.111 55.0574 115.815 54.5715 113.041C54.0697 110.256 54.7115 107.565 56.4968 104.968ZM72.3107 115.699C74.2822 112.832 72.8226 109.717 67.9316 106.354C67.1988 105.85 66.5292 105.425 65.9228 105.079C65.3164 104.732 64.6209 104.43 63.8363 104.172C63.0626 103.898 62.3512 103.773 61.702 103.795C61.0478 103.791 60.3802 103.978 59.6991 104.354C59.029 104.714 58.431 105.277 57.9053 106.042C55.8242 109.069 57.1494 112.209 61.881 115.462C62.582 115.944 63.2651 116.366 63.9302 116.73C64.6063 117.077 65.3501 117.378 66.1616 117.631C66.9681 117.857 67.7174 117.961 68.4094 117.944C69.1014 117.927 69.7959 117.736 70.4929 117.371C71.19 117.005 71.7959 116.448 72.3107 115.699Z" fill="white"/>
<path d="M80.0078 93.3167L85.8158 98.7819L89.9892 94.3467C89.9039 94.2399 89.7556 94.0871 89.5444 93.8884C89.3324 93.6623 89.1701 93.4963 89.0574 93.3903L87.2411 91.6812C87.1707 91.615 87.0655 91.5293 86.9256 91.4241C86.7848 91.2916 86.6796 91.2059 86.61 91.167C86.8443 90.7769 87.2596 90.2651 87.8558 89.6315C88.293 89.1669 88.7058 88.7987 89.0942 88.527C89.249 88.6728 89.3824 88.785 89.4942 88.8636L90.9515 90.2349C91.5876 90.9131 92.2435 91.5701 92.9194 92.2061C93.0038 92.2856 93.131 92.4185 93.3008 92.6048C93.4697 92.7638 93.5828 92.8834 93.6399 92.9638C93.3319 93.1783 93.0387 93.4334 92.7605 93.7291L81.9693 105.197L80.9344 104.223L82.4795 102.412L69.9554 90.6271L68.2202 92.2596L67.1854 91.2858L77.5791 80.2401C77.8574 79.9444 78.0942 79.6363 78.2896 79.3158C78.4155 79.4077 78.6333 79.5994 78.9431 79.8909C79.252 80.1551 79.4839 80.36 79.6388 80.5057C80.0322 80.8494 80.5809 81.3524 81.2849 82.0149L82.0874 82.7701C82.3972 83.0615 82.6018 83.2673 82.7011 83.3874C82.4668 83.7775 82.1244 84.2119 81.674 84.6906C81.1175 85.2819 80.6318 85.7275 80.217 86.0274C79.99 85.7607 79.7213 85.468 79.4107 85.1492L77.7422 83.5792C77.4747 83.3275 77.2709 83.149 77.131 83.0439L73.355 87.0566L78.7617 92.1442L80.3516 90.4546L79.3128 88.0038L80.2866 86.969L85.4188 91.7982L84.445 92.8331L81.5778 91.6483L80.0078 93.3167Z" fill="white"/>
<path d="M100.292 63.4694L98.4336 64.9139L102.637 71.0686L109.51 66.3746L105.307 60.22L103.261 61.4414L102.46 60.2679L110.434 54.8217L111.236 55.9951L109.378 57.4396L119.076 71.6409L121.082 70.4119L121.883 71.5853L113.908 77.0316L113.107 75.8581L115.005 74.4212L110.475 67.7876L103.602 72.4815L108.132 79.1151L110.137 77.8862L110.939 79.0596L102.964 84.5058L102.163 83.3324L104.061 81.8955L94.3624 67.6942L92.3169 68.9156L91.5155 67.7422L99.4902 62.2959L100.292 63.4694Z" fill="white"/>
<path d="M122.376 69.7411L123.945 68.2372L122.796 48.6311L123.82 48.1512C124.713 47.7328 125.324 47.3721 125.651 47.0691L139.644 61.5532L141.283 60.8814L141.886 62.1681L133.141 66.2657L132.538 64.979L134.998 63.6664L131.488 59.8667L125.343 62.7461L125.769 67.4144L129.02 66.6279L129.623 67.9146L122.979 71.0278L122.376 69.7411ZM124.442 52.2796L125.213 61.2378L130.465 58.7768L124.442 52.2796Z" fill="white"/>
<path d="M157.015 55.8823L154.97 48.9265C153.797 49.7347 152.478 50.3541 151.013 50.7848C146.134 52.2185 143.085 50.8579 141.864 46.7029L140.703 42.752L138.38 43.2834L137.979 41.92L147.245 39.1971L147.645 40.5605L145.432 41.3619L146.577 45.2572C147.035 46.8153 147.61 47.9157 148.303 48.5585C149.009 49.1773 150.067 49.2795 151.476 48.8652C153.072 48.3964 154.086 47.9067 154.521 47.3962L152.166 39.3831L149.843 39.9145L149.443 38.5511L158.708 35.8282L159.108 37.1915L156.896 37.993L161.745 54.4922L164.031 53.9412L164.432 55.3045L155.167 58.0275L154.766 56.6641L157.015 55.8823Z" fill="white"/>
<path d="M174.92 44.1148L175.998 52.0165L182.032 51.1931C182.033 51.0564 182.014 50.8443 181.975 50.557C181.952 50.2479 181.93 50.0167 181.909 49.8635L181.572 47.3924C181.559 47.2966 181.531 47.1638 181.488 46.994C181.462 46.8025 181.434 46.6697 181.405 46.5957C181.832 46.4398 182.477 46.303 183.339 46.1854C183.971 46.0991 184.524 46.0725 184.996 46.1055C185.025 46.3162 185.058 46.4873 185.096 46.6188L185.366 48.6014C185.434 49.5288 185.531 50.4521 185.656 51.3716C185.672 51.4866 185.687 51.6698 185.702 51.9215C185.734 52.1514 185.746 52.3155 185.74 52.4139C185.366 52.3869 184.977 52.4009 184.575 52.4558L168.973 54.585L168.781 53.1771L171.121 52.7406L168.796 35.7015L166.42 35.8794L166.228 34.4714L181.256 32.4206C181.658 32.3657 182.036 32.2752 182.389 32.1489C182.429 32.2995 182.478 32.5855 182.536 33.007C182.61 33.4066 182.661 33.7118 182.69 33.9225C182.78 34.4371 182.89 35.1733 183.021 36.1311L183.17 37.223C183.227 37.6444 183.257 37.933 183.258 38.0889C182.831 38.2448 182.292 38.3672 181.64 38.4561C180.836 38.5659 180.178 38.6069 179.667 38.579C179.658 38.229 179.633 37.8324 179.592 37.3892L179.282 35.1192C179.233 34.7553 179.187 34.4884 179.144 34.3186L173.684 35.0636L174.688 42.4195L176.987 42.1058L177.721 39.5471L179.129 39.3549L180.082 46.3372L178.674 46.5293L177.19 43.805L174.92 44.1148Z" fill="white"/>
<path d="M198.521 44.3213L196.984 44.3167L196.965 50.6096L200.474 50.7653L200.469 52.1862L189.652 52.1535L189.657 50.7325L192.035 50.6237L192.087 33.4268L189.709 33.2746L189.714 31.8536L199.168 31.8822C204.716 31.899 207.485 33.8987 207.473 37.8814C207.469 39.1187 207.205 40.1812 206.68 41.069C206.155 41.9567 205.438 42.6312 204.528 43.0925C203.637 43.5345 202.698 43.8506 201.712 44.041C200.745 44.2314 199.681 44.3248 198.521 44.3213ZM198.467 33.4751L197.017 33.4707L196.989 42.8087L198.671 42.8138C200.043 42.8179 200.992 42.4148 201.516 41.6044C202.041 40.7939 202.305 39.6831 202.309 38.2717C202.314 36.7251 202.037 35.5449 201.479 34.7312C200.94 33.8983 199.936 33.4795 198.467 33.4751Z" fill="white"/>
<path d="M214.767 32.696L229.805 34.8781C230.207 34.9364 230.595 34.9537 230.97 34.9299C230.978 35.0092 230.966 35.1541 230.936 35.3645C230.927 35.5586 230.916 35.7035 230.902 35.7992C230.833 36.2775 230.788 36.652 230.768 36.9226L230.223 40.6823C230.156 41.1415 230.102 41.4462 230.061 41.5965C229.607 41.6283 229.055 41.597 228.404 41.5026C227.601 41.386 226.957 41.2438 226.474 41.0759C226.553 40.7945 226.64 40.3969 226.735 39.8831L227.143 37.0705C227.215 36.5731 227.257 36.2177 227.268 36.0045L224.369 35.5839L221.892 52.6601L225.028 53.2616L224.824 54.6679L213.602 53.0397L213.806 51.6334L217.013 51.9521L219.499 34.8186L216.514 34.3855L216.393 35.2177C216.344 35.4254 216.288 35.7397 216.227 36.1607C216.011 37.653 215.886 38.7779 215.855 39.5352C215.305 39.5531 214.648 39.5065 213.882 39.3955C213.232 39.3011 212.694 39.1741 212.267 39.0146C212.27 38.8588 212.305 38.5513 212.372 38.0921L212.734 35.5952C212.817 35.0212 212.888 34.6017 212.946 34.3366C213.021 33.82 213.085 33.4483 213.137 33.2215C213.198 32.8006 213.249 32.515 213.291 32.3647C213.72 32.5051 214.212 32.6155 214.767 32.696Z" fill="white"/>
<path d="M229.287 53.8622L231.459 53.785L243.657 38.393L244.741 38.7169C245.686 38.9993 246.381 39.1366 246.827 39.1288L247.622 59.2524L249.292 59.8424L248.885 61.2039L239.633 58.438L240.04 57.0766L242.748 57.735L242.66 52.563L236.158 50.6194L233.368 54.3859L236.316 55.9636L235.909 57.325L228.88 55.2236L229.287 53.8622ZM242.455 42.2107L237.065 49.4075L242.622 51.0687L242.455 42.2107Z" fill="white"/>
<path d="M268.336 49.2456L266.157 48.3562L262.921 55.0699L270.418 58.6839L273.655 51.9702L271.576 50.807L272.193 49.527L280.892 53.7202L280.275 55.0002L278.096 54.1109L270.628 69.6021L272.694 70.7266L272.077 72.0066L263.378 67.8134L263.995 66.5333L266.187 67.4614L269.676 60.2252L262.178 56.6112L258.69 63.8474L260.756 64.9719L260.139 66.2519L251.44 62.0587L252.057 60.7786L254.249 61.7067L261.716 46.2155L259.637 45.0523L260.254 43.7723L268.953 47.9655L268.336 49.2456Z" fill="white"/>
<path d="M293.954 64.1463L291.959 62.8985L283.258 75.0732L283.329 75.1238L299.877 66.6322L305.799 70.8643L304.973 72.0205L302.977 70.7727L292.979 84.7642L294.822 86.2243L293.996 87.3805L286.139 81.7657L286.965 80.6096L288.967 81.8978L297.685 69.6994L297.614 69.6489L281.066 78.1405L275.12 73.8915L275.947 72.7354L277.949 74.0236L287.948 60.0321L286.097 58.5315L286.923 57.3754L294.78 62.9901L293.954 64.1463Z" fill="white"/>
<path d="M308.568 88.4204L302.956 94.087L307.284 98.3722C307.393 98.2897 307.549 98.1454 307.753 97.9393C307.985 97.7331 308.155 97.5751 308.263 97.4652L310.018 95.693C310.086 95.6244 310.175 95.5214 310.283 95.3842C310.419 95.2468 310.508 95.1438 310.548 95.0753C310.932 95.3195 311.434 95.7477 312.052 96.3598C312.505 96.8088 312.863 97.2308 313.124 97.626C312.975 97.7771 312.859 97.9075 312.778 98.0173L311.37 99.4391C310.675 100.058 310.002 100.697 309.349 101.356C309.267 101.438 309.131 101.562 308.94 101.727C308.777 101.892 308.655 102.002 308.573 102.057C308.366 101.744 308.119 101.444 307.83 101.158L296.641 90.0781L297.641 89.0684L299.412 90.6593L311.513 78.4399L309.925 76.6636L310.925 75.6539L321.702 86.3261C321.991 86.6118 322.293 86.8564 322.608 87.0599C322.513 87.1834 322.316 87.3963 322.017 87.6985C321.745 88.0006 321.534 88.2272 321.384 88.3783C321.031 88.7628 320.514 89.2985 319.834 89.9854L319.058 90.7684C318.759 91.0706 318.548 91.2699 318.425 91.3662C318.041 91.122 317.616 90.7686 317.149 90.3061C316.572 89.7347 316.139 89.2378 315.85 88.8155C316.122 88.5954 316.421 88.3342 316.748 88.0318L318.36 86.4039C318.619 86.1429 318.802 85.9438 318.911 85.8066L314.996 81.9295L309.772 87.2046L311.42 88.8371L313.897 87.8612L314.906 88.8611L309.948 93.8683L308.938 92.8684L310.196 90.0324L308.568 88.4204Z" fill="white"/>
</svg>
