<svg width="1032" height="1041" viewBox="0 0 1032 1041" fill="none" xmlns="http://www.w3.org/2000/svg">
<path d="M162.279 596.377C161.347 578.391 156.166 560.881 147.162 545.284L145.061 541.644C137.409 528.389 126.699 517.155 113.824 508.88L77.1504 485.31L17.1909 454.027L439.075 395.33L398.215 436.99L391.326 444.82C374.389 464.068 365.855 489.291 367.626 514.868L377.158 652.538L378.82 737.84L379.57 776.32C379.647 780.273 380.39 784.185 381.77 787.891L382.232 789.133C384.887 796.264 390.027 802.198 396.707 805.842V805.842C402.424 808.961 408.966 810.236 415.437 809.493L417.201 809.29C425.914 808.289 433.993 804.241 440.01 797.861L441.321 796.471C445.725 791.801 449.012 786.192 450.934 780.068L519.351 562.03L633.229 184.824L677.404 65.5783C679.932 58.7544 683.448 52.3387 687.84 46.5362L689.769 43.9886C696.267 35.4029 704.882 28.65 714.771 24.3898V24.3898C722.173 21.2005 730.125 19.4796 738.184 19.3227L744.029 19.2088C753.814 19.0182 763.566 20.3891 772.919 23.2698L791.83 29.0947L850.223 44.7837L863.545 35.2282C867.175 32.6245 871.729 31.6569 876.104 32.5596L960.281 49.9274L1012.27 56.8082L962.394 100.616L874.076 99.7107C870.502 99.674 867.042 98.4413 864.25 96.2091L851.019 85.6323L789.516 77.7695C781.785 76.7811 773.944 78.3671 767.205 82.2823V82.2823C764.16 84.0513 761.395 86.264 759.002 88.8475L757.574 90.3898C751.953 96.4586 747.942 103.839 745.909 111.858L707.963 261.491L620.852 716.299L591.08 841.419C586.04 862.601 578.899 883.227 569.762 902.991L558.847 926.603C550.305 945.083 538.644 961.954 524.377 976.476V976.476C509.969 991.141 493.121 1003.19 474.585 1012.08L472.054 1013.3C452.523 1022.67 431.555 1028.69 410.028 1031.11L409.191 1031.21C397.016 1032.58 384.739 1032.82 372.52 1031.92L369.612 1031.71C349.341 1030.23 329.396 1025.78 310.415 1018.51L301.748 1015.19C281.027 1007.26 262.143 995.179 246.252 979.693V979.693C235.756 969.465 226.686 957.868 219.289 945.217L214.372 936.808C203.363 917.98 195.029 897.711 189.61 876.585L182.747 849.829L168.952 725.101L162.279 596.377Z" fill="#DAEA02"/>
<path d="M153.268 581.684C152.334 563.677 147.142 546.15 138.119 530.539L136.061 526.979C128.401 513.727 117.682 502.499 104.801 494.231L68.1385 470.7L8.17986 439.461L430.065 380.832L389.204 422.437L382.362 430.203C365.396 449.458 356.846 474.704 358.62 500.306L368.142 637.695L369.801 722.882L370.55 761.305C370.627 765.257 371.371 769.167 372.751 772.87L373.206 774.089C375.864 781.222 381.009 787.155 387.693 790.796V790.796C393.407 793.908 399.942 795.181 406.405 794.439L408.178 794.236C416.893 793.236 424.975 789.19 430.998 782.812L432.294 781.439C436.703 776.771 439.993 771.163 441.918 765.038L510.337 547.306L624.225 170.604L668.399 51.5281C670.93 44.7065 674.449 38.2936 678.844 32.495L680.758 29.9698C687.263 21.3868 695.883 14.6376 705.776 10.3811V10.3811C713.175 7.19755 721.122 5.4797 729.176 5.32283L735.03 5.2088C744.814 5.01821 754.566 6.38712 763.92 9.26409L782.83 15.0801L841.222 30.7465L854.549 21.2002C858.177 18.6017 862.725 17.6361 867.095 18.5365L951.281 35.8804L1003.27 42.7506L953.391 86.5008L865.069 85.5989C861.497 85.5624 858.041 84.3321 855.25 82.1039L842.017 71.5401L780.507 63.6886C772.78 62.7023 764.943 64.2859 758.206 68.1951V68.1951C755.159 69.963 752.392 72.1746 749.997 74.7573L748.575 76.2901C742.952 82.353 738.939 89.7295 736.903 97.7444L698.957 247.165L611.834 701.364L582.063 826.299C577.019 847.464 569.874 868.073 560.734 887.818L549.835 911.362C541.285 929.833 529.616 946.694 515.342 961.204V961.204C500.94 975.843 484.104 987.868 465.584 996.742L463.018 997.972C443.493 1007.33 422.536 1013.34 401.02 1015.76L400.163 1015.86C387.988 1017.22 375.714 1017.46 363.495 1016.57L360.568 1016.36C340.308 1014.87 320.374 1010.44 301.4 1003.18L292.696 999.853C271.992 991.937 253.12 979.881 237.236 964.422V964.422C226.734 954.202 217.659 942.613 210.255 929.967L205.353 921.595C194.342 902.787 186.005 882.537 180.583 861.428L173.725 834.725L159.934 710.166L153.268 581.684Z" fill="#2A2927"/>
</svg>
