<svg width="837" height="389" viewBox="0 0 837 389" fill="none" xmlns="http://www.w3.org/2000/svg">
<rect x="29.1777" y="0.232422" width="1048" height="105" transform="rotate(15.9163 29.1777 0.232422)" fill="white"/>
<rect x="130.152" y="29.0264" width="330" height="105" transform="rotate(15.9163 130.152 29.0264)" fill="#565656"/>
<rect x="447.502" y="119.523" width="548" height="105" transform="rotate(15.9163 447.502 119.523)" fill="#009A8F"/>
<path d="M462.799 170.405C463.854 169.153 464.925 167.847 466.012 166.488C467.109 165.092 468.159 163.723 469.164 162.379C470.168 161.034 471.06 159.813 471.839 158.716L477.062 160.205L477.109 160.859C476.212 161.962 475.159 163.137 473.949 164.384C472.75 165.595 471.491 166.808 470.174 168.024C468.867 169.204 467.593 170.336 466.353 171.418L462.799 170.405ZM452.89 167.579C453.945 166.327 455.016 165.022 456.103 163.662C457.236 162.277 458.304 160.912 459.309 159.568C460.349 158.234 461.241 157.013 461.984 155.905L467.153 157.38L467.2 158.033C466.267 159.126 465.196 160.296 463.986 161.543C462.823 162.764 461.583 163.982 460.265 165.198C458.994 166.389 457.738 167.525 456.498 168.608L452.89 167.579Z" fill="#2A2927"/>
<path d="M102.469 42.9687L86.0708 46.1566C82.6215 46.8271 81.651 51.3006 84.5123 53.3403L90.1752 57.3768C92.9108 59.3268 92.1695 63.5763 88.9353 64.4849L81.5983 66.5463C78.7292 67.3523 77.7175 70.9001 79.7299 73.0982L85.6262 79.5386C87.7513 81.8599 86.4873 85.6127 83.3908 86.1752L77.9662 87.1607C74.6232 87.768 73.5118 92.0031 76.1258 94.1737L90.4955 106.106" stroke="#C4C4C4" stroke-width="3"/>
<path d="M88.043 38.8554L71.645 42.0433C68.1957 42.7139 67.2252 47.1874 70.0866 49.227L75.7494 53.2635C78.485 55.2135 77.7438 59.463 74.5096 60.3716L67.1725 62.433C64.3034 63.239 63.2917 66.7869 65.3041 68.9849L71.2004 75.4253C73.3256 77.7466 72.0615 81.4994 68.965 82.0619L63.5404 83.0474C60.1975 83.6547 59.0861 87.8898 61.7 90.0604L76.0697 101.992" stroke="#C4C4C4" stroke-width="3"/>
<path d="M73.6172 34.7421L57.2192 37.93C53.7699 38.6006 52.7994 43.0741 55.6608 45.1137L61.3236 49.1503C64.0592 51.1002 63.318 55.3497 60.0838 56.2584L52.7467 58.3197C49.8777 59.1258 48.866 62.6736 50.8783 64.8717L56.7746 71.312C58.8998 73.6333 57.6357 77.3861 54.5393 77.9487L49.1146 78.9341C45.7717 79.5414 44.6603 83.7766 47.2743 85.9471L61.644 97.8791" stroke="#C4C4C4" stroke-width="3"/>
<path d="M59.1934 30.6288L42.7954 33.8167C39.3461 34.4873 38.3756 38.9608 41.237 41.0004L46.8998 45.037C49.6354 46.9869 48.8941 51.2364 45.6599 52.1451L38.3229 54.2064C35.4538 55.0125 34.4421 58.5603 36.4545 60.7584L42.3508 67.1987C44.476 69.52 43.2119 73.2729 40.1154 73.8354L34.6908 74.8208C31.3478 75.4281 30.2364 79.6633 32.8504 81.8338L47.2201 93.7658" stroke="#C4C4C4" stroke-width="3"/>
</svg>
