<svg width="847" height="457" viewBox="0 0 847 457" fill="none" xmlns="http://www.w3.org/2000/svg">
<path d="M802 146L802 351" stroke="#2A2927" stroke-width="10"/>
<path d="M686 146L686 351.5" stroke="#2A2927" stroke-width="10"/>
<line x1="451.999" y1="365.924" x2="452.999" y2="431.924" stroke="#2A2927" stroke-width="10"/>
<path d="M407 -7.94845e-06L407 289C460.414 137.321 722.589 139.898 847 160.147L847 129.774C545.209 157.017 427.921 54.6093 407 -7.94845e-06Z" fill="#2A2927"/>
<path fill-rule="evenodd" clip-rule="evenodd" d="M608.5 437V420.316C615.185 418.523 620.799 413.984 623.952 407.822L628.004 399.902V457L623.782 448.56C620.768 442.535 615.117 438.261 608.5 437ZM37.7223 373.997L847 370.83V346L42.8308 351.811L42.8059 351.906L38.1956 352.198C36.1245 352.33 34.0784 352.724 32.1068 353.372C30.8731 353.777 29.6736 354.281 28.5197 354.876L24.1149 357.151L20.1688 359.792C17.8403 361.195 15.7037 362.895 13.8127 364.848L13.592 365.076L10.0844 368.774L9.60646 369.254C8.17526 370.691 6.89916 372.274 5.79922 373.978C4.858 375.436 4.04992 376.976 3.38474 378.579L2.63072 380.396L1.31536 384.623C0.442458 387.778 0 391.037 0 394.311V395.189L0.459696 397.774C1.02759 400.967 2.0196 404.07 3.40938 407C4.34986 408.984 5.46771 410.878 6.7493 412.659L10.5229 417.906L13.9468 421.714C15.4616 423.399 17.1103 424.958 18.8767 426.377L22.7996 429.528C27.4495 432.68 32.5508 435.107 37.9294 436.727L38.5839 436.925L39.4309 437.095C44.1216 438.037 48.8739 438.641 53.6511 438.902L56.122 439.038V420L49.1068 419.491L42.53 417.906L42.2443 417.837C38.0748 416.832 34.0838 415.195 30.4101 412.981L29.8148 412.623L26.3903 409.997C25.4597 409.283 24.5921 408.491 23.7971 407.629L23.3701 407.166C21.5519 405.194 20.2047 402.836 19.4298 400.268C19.0468 398.999 18.8073 397.691 18.7159 396.368L18.5745 394.324C18.4691 392.801 18.6535 391.272 19.1177 389.817L19.6286 388.217C20.2764 386.188 21.2627 384.282 22.5458 382.582C24.1581 380.445 26.206 378.675 28.5538 377.389L29.8148 376.698L30.6947 376.236C32.8798 375.088 35.2563 374.35 37.707 374.057L37.7223 373.997Z" fill="#2A2927"/>
<path d="M55 439L610.686 437.417L612 420H55V439Z" fill="#2A2927"/>
<path d="M367 367L367 427" stroke="#2A2927" stroke-width="10"/>
<path d="M307 366L307 426" stroke="#2A2927" stroke-width="10"/>
</svg>
