<svg width="645" height="680" viewBox="0 0 645 680" fill="none" xmlns="http://www.w3.org/2000/svg">
<path d="M22.8227 617.945L21.9732 622.23L35.3498 626.419L36.5564 622.205L38.4643 622.743L35.8145 636.107L33.9167 635.518L34.4703 631.122L3.9523 621.678L2.74571 625.892L0.8479 625.304L3.56842 611.583C4.17523 608.522 5.35426 606.141 7.1055 604.438C8.82274 602.729 11.1266 602.161 14.017 602.734C17.0094 603.327 19.2891 604.663 20.8563 606.741C22.3894 608.812 23.1381 611.363 23.1024 614.396C24.8143 613.604 27.373 612.998 30.7785 612.578C31.2068 612.557 31.8152 612.518 32.6037 612.463C33.3583 612.4 33.8783 612.362 34.1639 612.348C35.9517 612.243 37.3481 611.795 38.353 611.005C39.3647 610.181 40.0357 608.935 40.3661 607.269C40.42 606.997 40.4468 606.773 40.4465 606.596C40.4802 606.426 40.4901 606.198 40.476 605.913L42.0779 606.389C42.3039 607.388 42.2955 608.5 42.0528 609.724C41.4123 612.954 40.0629 615.126 38.0048 616.237C35.9193 617.308 33.17 617.717 29.7566 617.464C27.6691 617.298 25.388 617.217 22.9133 617.221C22.9136 617.398 22.8834 617.639 22.8227 617.945ZM5.3972 613.589L4.73983 616.904L20.2183 621.723L21.0678 617.438C21.5465 615.024 20.9958 612.988 19.4158 611.332C17.8085 609.635 15.7637 608.54 13.2813 608.048C11.003 607.597 9.24252 607.831 7.99988 608.75C6.72324 609.664 5.85568 611.276 5.3972 613.589Z" fill="#DD4E0C"/>
<path d="M35.8451 594.63C33.8061 594.07 31.8526 593.264 29.9848 592.211C28.1262 591.125 26.4656 589.842 25.003 588.361C23.5069 586.871 22.4416 585.122 21.8071 583.114C21.1817 581.073 21.163 578.983 21.751 576.843C22.2563 575.005 23.1256 573.608 24.3588 572.653C25.5921 571.697 27.0945 571.463 28.8662 571.95C30.7047 572.455 32.1008 573.72 33.0546 575.744C33.9841 577.725 34.5272 579.869 34.6838 582.177C34.8228 584.157 34.5294 586.467 33.8037 589.108C35.0673 589.743 36.3342 590.235 37.6044 590.584C38.3732 590.795 39.1362 590.897 39.8933 590.889C40.708 590.934 41.4426 590.812 42.0968 590.524C43.6243 589.938 44.6269 588.775 45.1046 587.037C45.5456 585.432 45.2687 583.235 44.2738 580.445L46.1176 579.819C46.4628 580.525 46.7516 581.306 46.9841 582.161C47.7582 584.315 47.7962 586.662 47.098 589.202C46.363 591.877 44.9807 593.636 42.951 594.48C40.9214 595.325 38.5527 595.375 35.8451 594.63ZM23.4772 578.019C23.1005 579.389 23.4124 580.805 24.4129 582.267C25.38 583.719 26.492 584.905 27.7489 585.826C29.0059 586.747 30.3618 587.569 31.8168 588.292C33.1581 583.412 32.5053 579.835 29.8585 577.562C29.1331 576.931 28.386 576.51 27.6171 576.298C25.3441 575.674 23.9641 576.247 23.4772 578.019Z" fill="#DD4E0C"/>
<path d="M52.7993 561.414C53.1667 560.331 52.7192 558.898 51.4567 557.115C50.2054 555.3 48.5649 553.499 46.5351 551.713C44.4725 549.915 42.4803 548.288 40.5584 546.83C38.6365 545.373 36.9926 544.23 35.6265 543.401C34.6904 544.218 34.0554 545.119 33.7214 546.104C33.098 547.943 33.0722 549.746 33.644 551.514C34.183 553.271 35.1617 554.811 36.5799 556.134C37.9654 557.445 39.4669 558.577 41.0844 559.528C42.702 560.479 44.3808 561.25 46.1208 561.84C47.237 562.218 48.5678 562.45 50.1131 562.535C51.6255 562.608 52.5209 562.235 52.7993 561.414ZM63.4274 569.905C64.4074 569.066 65.1201 567.99 65.5654 566.677C67.1463 562.015 64.4546 557.862 57.4903 554.22C56.6484 553.788 55.402 553.145 53.7511 552.293C52.1112 551.407 51.0891 550.859 50.6845 550.649C48.6836 549.641 46.4429 548.368 43.9623 546.832L43.8788 547.078C45.178 548.104 46.4113 549.163 47.5787 550.254C48.7132 551.335 50.0107 552.69 51.4712 554.32C52.9101 555.906 53.9485 557.539 54.5866 559.22C55.2247 560.901 55.3155 562.414 54.859 563.76C54.525 564.745 53.9674 565.526 53.186 566.103C52.4158 566.647 51.5427 566.955 50.5666 567.026C49.5689 567.054 48.599 567 47.6569 566.863C46.7148 566.727 45.7841 566.503 44.8649 566.191C39.7105 564.443 35.8715 561.677 33.3478 557.893C30.8241 554.109 30.3916 549.771 32.0505 544.879C32.4067 543.828 32.8782 542.762 33.4648 541.68L34.4561 537.623C38.1385 539.933 43.9717 542.918 51.9554 546.577C53.5085 547.287 54.8317 547.919 55.9251 548.472C57.0185 549.026 58.2646 549.723 59.6634 550.564C61.0623 551.404 62.2147 552.216 63.1205 552.999C64.0263 553.782 64.9149 554.724 65.7862 555.825C66.6575 556.926 67.2656 558.047 67.6105 559.189C67.9882 560.342 68.1622 561.664 68.1325 563.155C68.1468 564.624 67.8812 566.163 67.3357 567.771C66.9683 568.855 66.4145 569.948 65.6743 571.051C65.431 571.445 65.1102 572.013 64.7117 572.757C64.3788 573.522 64.14 574.119 63.9953 574.545C62.6498 573.979 61.3706 573.326 60.1575 572.585C59.7747 572.419 58.6708 571.788 56.8457 570.693C56.9593 569.926 57.0773 569.362 57.1998 569.001C57.4447 568.279 57.7606 567.617 58.1474 567.016C58.2676 567.094 58.6173 567.304 59.1965 567.647C59.7758 567.99 60.2513 568.261 60.623 568.46C61.5739 569.002 62.5087 569.484 63.4274 569.905Z" fill="#DD4E0C"/>
<path d="M40.026 526.109L42.5683 517.995C42.6518 518.066 43.7668 518.777 45.9132 520.128C46.2923 520.393 46.8996 520.788 47.735 521.311C48.5704 521.835 49.1842 522.213 49.5762 522.446C51.2471 523.493 52.4907 524.256 53.307 524.735C53.7825 525.039 54.4541 525.459 55.3217 525.996C56.1893 526.532 56.6392 526.807 56.6713 526.82C57.6675 527.409 58.622 527.962 59.5347 528.479C60.5309 529.068 61.3505 529.492 61.9936 529.751C63.4404 530.334 64.3129 530.256 64.611 529.517C64.948 528.681 64.8609 527.599 64.3495 526.271C63.8511 524.912 63.0856 523.519 62.053 522.094C60.9883 520.655 59.9843 519.391 59.0409 518.3C58.1106 517.178 57.2152 516.2 56.3548 515.367C53.3952 512.417 50.2603 509.995 46.9502 508.099L48.6029 504L69.7542 516.62L71.5703 512.811L73.2669 513.887L70.0587 521.845L57.4118 513.719L57.3341 513.912C58.3868 515.009 59.2726 515.964 59.9914 516.777C60.7231 517.558 61.6631 518.703 62.8113 520.213C63.9725 521.69 64.8572 523.019 65.4656 524.198C66.0739 525.378 66.5145 526.696 66.7874 528.151C67.0732 529.575 66.9828 530.865 66.5161 532.023C65.9458 533.437 65.1903 534.292 64.2496 534.585C63.2898 534.834 62.0703 534.66 60.5913 534.063C59.3696 533.571 58.1932 532.966 57.0621 532.248C56.1302 531.685 54.8223 530.897 53.1385 529.881C51.4225 528.853 50.4167 528.242 50.1211 528.048C47.5696 526.496 45.2915 525.054 43.2866 523.723L41.6937 527.117L40.026 526.109Z" fill="#DD4E0C"/>
<path d="M78.1943 497.673L80.2363 494.031L81.8573 494.99L78.2872 502.906L46.7628 482.243L44.8155 485.928L43.1899 484.853L46.1865 476.564L78.1943 497.673Z" fill="#DD4E0C"/>
<path d="M69.5198 458.082C70.0111 457.087 70.6187 456.092 71.3425 455.096L72.8817 451.159L93.5794 465.733L95.655 462.119L97.2885 463.273L93.5575 470.826L81.0017 461.608L80.9095 461.794C84.5715 465.653 87.2237 469.089 88.8661 472.105C90.4927 475.073 90.7764 477.63 89.717 479.775C88.8264 481.577 87.3967 482.476 85.4277 482.47C83.4741 482.433 81.4871 481.915 79.4669 480.917C76.3277 479.366 73.7526 477.456 71.7417 475.187C69.7308 472.918 68.4778 470.288 67.9828 467.298C67.4721 464.262 67.9844 461.19 69.5198 458.082ZM85.1739 478.052C86.6171 478.34 87.546 478.064 87.9605 477.225C88.3751 476.386 88.3154 475.254 87.7814 473.831C87.2163 472.392 86.3331 470.892 85.1318 469.332C83.9459 467.741 82.8697 466.397 81.9032 465.301C80.9367 464.205 80.0016 463.202 79.098 462.291C77.3687 460.548 75.4301 458.797 73.2821 457.04C72.2313 457.759 71.4833 458.568 71.0381 459.47C70.1475 461.273 69.8695 463.088 70.2039 464.916C70.5072 466.728 71.2748 468.383 72.5068 469.881C73.7077 471.364 75.0474 472.683 76.5258 473.838C78.0196 474.963 79.6056 475.94 81.284 476.769C82.434 477.337 83.7306 477.765 85.1739 478.052Z" fill="#DD4E0C"/>
<path d="M89.7147 426.819C89.5067 426.981 89.3359 427.184 89.2024 427.427C88.6014 428.521 88.8663 430.091 89.9971 432.136C91.1141 434.134 92.7317 436.229 94.8497 438.422C96.9678 440.614 98.9027 442.528 100.655 444.163C102.423 445.767 104.007 447.132 105.406 448.257L103.403 451.903L84.0598 437.002L81.8992 440.502L80.3633 439.302L83.9277 431.412L94.8417 441.028L94.9418 440.846C93.1276 438.82 91.7479 437.192 90.8028 435.961C86.9523 431.234 85.8117 427.443 87.381 424.587C88.0154 423.433 88.6545 422.558 89.2982 421.962C92.1498 424.043 94.3109 425.725 95.7816 427.008C95.5996 427.699 95.4001 428.242 95.183 428.637C94.8825 429.184 94.5061 429.689 94.0537 430.152C93.9048 429.991 93.6951 429.797 93.4247 429.569C93.1406 429.295 92.9681 429.141 92.9073 429.107C92.7858 429.04 92.6202 428.91 92.4106 428.715C92.2009 428.521 92.0353 428.391 91.9138 428.324C91.8089 428.227 91.6502 428.12 91.4375 428.003C91.2111 427.839 91.0372 427.724 90.9157 427.657C90.5541 427.379 90.1538 427.1 89.7147 426.819Z" fill="#DD4E0C"/>
<path d="M107.72 378.41L105.611 382.312L130.412 402.448L133.03 399.003L134.6 400.212L127.161 411.626L125.619 410.373L127.8 406.456L102.999 386.32L100.281 389.824L98.7388 388.571L106.178 377.157L107.72 378.41Z" fill="#DD4E0C"/>
<path d="M146.044 376.897L147.853 377.223C148.106 380.163 147.431 382.765 145.827 385.028C145.427 385.594 144.993 386.115 144.528 386.593C142.732 388.167 140.802 388.223 138.737 386.76C138.285 386.439 137.806 386.036 137.3 385.55L124.655 373.085L122.43 376.225L120.786 374.677L122.901 371.333L118.106 365.959L120.33 362.819L125.566 367.931L130.256 361.312L131.9 362.86L127.18 369.521L139.619 381.648C140.096 382.114 140.532 382.487 140.928 382.768C141.777 383.369 142.473 383.586 143.016 383.419C143.588 383.272 144.104 382.873 144.565 382.222C145.467 380.949 145.96 379.174 146.044 376.897Z" fill="#DD4E0C"/>
<path d="M145.348 339.747C146.033 338.874 146.832 338.025 147.745 337.198L150.058 333.66L167.328 352.168L170.101 349.056L171.463 350.521L166.263 357.149L155.863 345.552L155.735 345.716C158.528 350.243 160.419 354.15 161.409 357.438C162.392 360.677 162.146 363.238 160.669 365.12C159.428 366.702 157.844 367.288 155.918 366.878C154.014 366.441 152.175 365.527 150.403 364.136C147.648 361.975 145.519 359.578 144.016 356.944C142.513 354.311 141.826 351.48 141.955 348.452C142.077 345.376 143.208 342.474 145.348 339.747ZM156.576 362.503C157.929 363.08 158.895 363.001 159.473 362.264C160.05 361.528 160.224 360.408 159.993 358.905C159.735 357.381 159.178 355.732 158.322 353.959C157.488 352.158 156.71 350.622 155.989 349.352C155.267 348.081 154.558 346.907 153.86 345.831C152.525 343.77 150.986 341.659 149.244 339.499C148.069 339.986 147.17 340.626 146.55 341.417C145.309 342.998 144.664 344.718 144.617 346.576C144.542 348.412 144.954 350.189 145.853 351.908C146.724 353.605 147.765 355.171 148.975 356.605C150.207 358.012 151.559 359.293 153.032 360.449C154.041 361.241 155.222 361.925 156.576 362.503Z" fill="#DD4E0C"/>
<path d="M180.293 336.931L183.284 334.017L184.567 335.397L178.898 341.976L154.527 313.222L151.615 316.203L150.361 314.711L155.585 307.612L180.293 336.931Z" fill="#DD4E0C"/>
<path d="M193.887 321.898L196.981 319.093L198.213 320.517L192.313 326.889L177.189 307.709L174.245 310.582L173.046 309.046L178.521 302.139L193.887 321.898ZM172.384 300.424L168 294.52C168.343 293.894 168.716 293.365 169.116 292.932C169.517 292.5 169.992 292.114 170.544 291.774L174.969 297.786C174.692 298.238 174.353 298.68 173.953 299.112C173.552 299.545 173.029 299.982 172.384 300.424Z" fill="#DD4E0C"/>
<path d="M197.133 283.121C197.554 282.709 197.998 282.345 198.467 282.031L199.837 281.125C200.429 280.739 200.873 280.424 201.169 280.182C201.416 280.037 201.737 279.771 202.133 279.382L202.504 279.018C203.522 280.254 205.069 282.499 207.146 285.755C206.773 286.364 206.425 286.827 206.103 287.142C205.633 287.604 205.114 287.991 204.548 288.304C204.379 288.033 204.113 287.614 203.751 287.046C203.389 286.43 203.136 285.998 202.991 285.752C202.412 284.815 201.783 283.951 201.104 283.16C200.097 283.371 199.123 283.937 198.183 284.86C197.019 286.001 196.405 287.429 196.339 289.144C196.274 290.811 196.638 292.518 197.43 294.266C198.247 295.99 199.163 297.592 200.178 299.073C201.169 300.529 202.211 301.813 203.303 302.927C204.639 304.288 206.077 305.136 207.618 305.469C209.135 305.778 210.537 305.301 211.824 304.039C213.284 302.607 214.163 300.409 214.461 297.445L216.405 297.942C215.976 301.762 214.636 304.777 212.384 306.986C210.428 308.904 208.325 309.68 206.073 309.315C203.797 308.926 201.664 307.716 199.673 305.687C198.29 304.276 197.092 302.61 196.081 300.688C195.095 298.742 194.391 296.737 193.97 294.674C193.548 292.611 193.593 290.552 194.103 288.498C194.613 286.394 195.623 284.602 197.133 283.121Z" fill="#DD4E0C"/>
</svg>
