<svg width="491" height="653" viewBox="0 0 491 653" fill="none" xmlns="http://www.w3.org/2000/svg">
<path d="M48.2462 229.213L52.1723 228.674L61.8452 198.142L58.5516 196.314L58.8469 195.371L67.7189 198.513L71.1705 232.867L91.737 207.019L101.148 210.352L100.853 211.295L96.6625 210.418L86.6369 242.424L90.7435 244.265L90.4638 245.158L77.0332 240.401L77.313 239.508L81.6217 240.703L91.3675 209.59L68.8367 237.884C68.6079 237.803 68.3903 237.744 68.1839 237.708L67.5467 237.482C67.2526 237.378 67.0513 237.325 66.9429 237.324C66.7142 237.243 66.5293 237.195 66.3882 237.182L62.7287 199.667L53.5603 229.111L58.7357 232.928L58.4559 233.822L47.9664 230.107L48.2462 229.213Z" fill="#DD4E0C"/>
<path d="M123.126 256.421L123.472 257.129C121.835 258.248 120.04 258.4 118.088 257.587C116.616 256.974 115.665 256.202 115.236 255.272C114.806 254.343 114.854 253.124 115.379 251.617C114.013 252.999 112.095 253.682 109.624 253.665C108.867 253.613 108.008 253.386 107.048 252.986C105.129 252.186 103.764 251.036 102.956 249.536C102.16 248.003 102.113 246.294 102.816 244.411C103.289 243.144 104.021 242.173 105.012 241.498C106.035 240.836 107.16 240.498 108.385 240.483C109.655 240.449 110.876 240.545 112.049 240.771C113.254 241.011 114.448 241.377 115.632 241.871C116.24 242.124 117.16 242.582 118.392 243.246L120.717 237.459C121.165 236.257 121.493 235.231 121.7 234.379C121.879 233.402 121.931 232.617 121.857 232.024C121.605 230.718 120.647 229.718 118.983 229.024C118.279 228.731 117.541 228.48 116.768 228.27C115.972 228.126 115.275 228.061 114.678 228.075C114.586 228.224 114.461 228.51 114.303 228.932C114.186 229.146 114.037 229.496 113.855 229.984L113.11 231.981C112.807 232.793 112.593 233.417 112.467 233.852C112.164 234.664 111.95 235.288 111.825 235.724C111.124 235.62 110.422 235.421 109.718 235.127C109.206 234.914 108.66 234.593 108.081 234.164C108.206 233.728 108.451 233.023 108.814 232.049C108.976 231.516 109.257 230.713 109.657 229.641C109.984 228.764 110.243 228.121 110.432 227.713C110.735 226.901 110.969 226.323 111.134 225.979C111.41 226.131 111.804 226.314 112.316 226.527L112.844 226.747C113.444 226.923 114.095 227.062 114.795 227.167C116.901 227.369 118.802 227.823 120.498 228.53C124.434 230.17 126.367 232.571 126.297 235.732C126.202 236.78 125.972 237.792 125.609 238.766L120.964 250.623L119.891 253.497C119.649 254.147 119.553 254.801 119.603 255.46C119.697 256.099 120.032 256.539 120.608 256.779C121.312 257.073 122.151 256.953 123.126 256.421ZM109.851 252.015C111.611 252.748 113.543 252.278 115.647 250.602L118.064 244.123C117.493 243.772 116.839 243.443 116.103 243.136C112.071 241.456 109.407 242.354 108.11 245.829C106.935 248.979 107.515 251.041 109.851 252.015Z" fill="#DD4E0C"/>
<path d="M155.339 245.936C155.258 245.86 155.06 245.75 154.745 245.606C152.949 244.781 150.669 245.354 147.904 247.324L140.249 265.823L144.146 267.956L143.828 268.725L131.778 263.19L132.096 262.422L135.524 263.652L144.491 241.983L140.554 239.946L140.912 239.081L150.084 241.921L148.274 246.293C149.596 245.185 151.052 244.519 152.643 244.297C154.28 244.058 155.885 244.3 157.46 245.023C158.437 245.471 159.298 246.019 160.042 246.666C159.994 246.873 159.884 247.184 159.712 247.601C159.584 248 159.474 248.311 159.381 248.535L158.526 250.601L157.532 253.004C157.426 253.26 157.251 253.637 157.007 254.135C156.809 254.616 156.647 254.961 156.523 255.171C155.826 255.041 155.226 254.861 154.722 254.63C153.935 254.268 153.133 253.804 152.317 253.239C152.41 253.015 152.558 252.702 152.762 252.3C152.966 251.898 153.108 251.601 153.187 251.409L153.883 249.727L154.639 247.901L155.076 246.844C155.116 246.748 155.16 246.597 155.208 246.39C155.287 246.198 155.331 246.046 155.339 245.936Z" fill="#DD4E0C"/>
<path d="M178.392 243.683L174.467 241.513L174.849 240.658L184.077 243.824L179.105 254.697L168.115 279.289L171.718 281.416L171.379 282.175L159.722 276.421L160.061 275.661L163.499 277.01L178.392 243.683Z" fill="#DD4E0C"/>
<path d="M206.695 285.824L192.216 276.81L191.7 277.713C187.488 285.088 187.678 290.205 192.269 293.064C194.799 294.639 197.587 295.171 200.632 294.659L200.79 295.431C196.859 296.167 193.408 295.609 190.435 293.759C187.081 291.67 185.118 288.959 184.549 285.625C184.026 282.28 184.753 278.876 186.73 275.414C188.655 272.043 191.203 269.712 194.373 268.421C197.573 267.149 200.748 267.493 203.897 269.453C206.898 271.322 208.602 273.648 209.008 276.43C209.46 279.201 208.809 282.122 207.056 285.192L206.695 285.824ZM203.381 270.356C202.263 269.66 201.166 269.345 200.092 269.41C199.046 269.494 198.04 269.928 197.073 270.714C196.153 271.487 195.37 272.265 194.724 273.046C194.125 273.816 193.461 274.769 192.731 275.907L202.664 282.091L203.437 280.736C204.847 278.267 205.644 276.173 205.829 274.451C205.933 272.802 205.117 271.437 203.381 270.356Z" fill="#DD4E0C"/>
<path d="M226.006 290.695L223.108 287.343L223.766 286.678L231.235 292.728L227.539 296.459C231.94 295.758 235.418 296.753 237.973 299.442C239.835 301.402 240.612 303.301 240.303 305.139C240.019 306.953 238.889 308.857 236.913 310.852C234.205 313.586 230.071 317.661 224.51 323.077L227.299 326.54L226.713 327.131L217.723 317.669L218.308 317.078L220.892 319.344C221.208 319.074 221.647 318.655 222.208 318.089C222.818 317.523 223.269 317.092 223.562 316.797C225.463 315.025 227.329 313.215 229.158 311.368L231.72 308.782C232.598 307.896 233.575 306.861 234.649 305.677C235.065 305.159 235.383 304.74 235.604 304.418C235.849 304.073 236.082 303.664 236.304 303.194C236.55 302.749 236.675 302.327 236.68 301.929C236.708 301.556 236.627 301.144 236.439 300.695C236.275 300.22 235.99 299.769 235.584 299.342C233.769 297.432 230.819 296.767 226.733 297.346L213.083 311.126L215.765 314.401L215.18 314.993L206.189 305.531L206.775 304.94L209.502 307.357L226.006 290.695Z" fill="#DD4E0C"/>
<path d="M255.264 345.714L246.018 331.381L245.155 331.962C238.108 336.702 236.05 341.345 238.982 345.889C240.598 348.394 242.903 350.081 245.897 350.95L245.704 351.706C241.807 350.652 238.909 348.653 237.011 345.711C234.869 342.39 234.265 339.12 235.199 335.902C236.182 332.693 238.327 329.976 241.635 327.751C244.856 325.584 248.191 324.615 251.638 324.844C255.105 325.102 257.843 326.79 259.854 329.907C261.771 332.878 262.307 335.692 261.464 338.348C260.667 341.014 258.802 343.334 255.868 345.308L255.264 345.714ZM258.991 330.487C258.277 329.38 257.417 328.622 256.41 328.213C255.423 327.833 254.318 327.783 253.096 328.062C251.921 328.351 250.869 328.703 249.941 329.119C249.061 329.544 248.041 330.105 246.881 330.801L253.224 340.633L254.518 339.762C256.877 338.175 258.515 336.655 259.434 335.202C260.247 333.778 260.1 332.206 258.991 330.487Z" fill="#DD4E0C"/>
<path d="M279.912 388.33L277.962 384.538L264.453 391.695L266.153 395.796L265.326 396.235L258.809 383.564L259.636 383.126L261.957 386.957L291.87 371.109L290.147 366.962L290.974 366.524L297.705 379.61C299.338 382.786 299.973 385.725 299.609 388.428C299.245 391.132 297.593 393.262 294.652 394.82C292.018 396.216 289.475 396.425 287.023 395.449C284.619 394.487 282.635 392.713 281.071 390.129C281.331 391.089 281.391 392.078 281.251 393.093C281.127 394.14 280.786 395.183 280.23 396.223C279.689 397.294 279.192 398.185 278.739 398.896C278.317 399.591 277.712 400.46 276.924 401.505C276.257 402.33 275.696 403.058 275.242 403.691C274.818 404.308 274.343 405.089 273.816 406.035C273.32 406.965 273.024 407.867 272.928 408.742C272.848 409.647 273.006 410.485 273.402 411.256C273.593 411.626 273.837 411.987 274.135 412.339L273.446 412.704C272.683 412.206 271.944 411.263 271.231 409.876C269.804 407.102 269.55 404.372 270.47 401.688C271.248 398.883 273.625 395.584 277.6 391.792C278.68 390.709 279.577 389.763 280.291 388.953C280.181 388.815 280.055 388.608 279.912 388.33ZM295.956 378.712L294.458 375.799L278.973 384.003L280.899 387.748C281.882 389.66 283.379 390.75 285.388 391.019C287.444 391.303 289.468 390.917 291.459 389.863C293.818 388.613 295.486 387.082 296.464 385.269C297.331 383.241 297.162 381.055 295.956 378.712Z" fill="#DD4E0C"/>
<path d="M300.032 433.998L292.765 418.567L291.829 419.019C284.179 422.71 281.507 427.002 283.811 431.895C285.081 434.592 287.146 436.578 290.008 437.853L289.714 438.572C285.979 436.988 283.366 434.611 281.874 431.444C280.19 427.868 280.03 424.558 281.394 421.514C282.803 418.486 285.303 416.106 288.894 414.373C292.391 412.686 295.838 412.196 299.237 412.904C302.65 413.643 305.147 415.691 306.728 419.047C308.234 422.246 308.389 425.096 307.191 427.599C306.04 430.117 303.872 432.145 300.687 433.682L300.032 433.998ZM305.791 419.499C305.23 418.307 304.476 417.439 303.53 416.895C302.599 416.382 301.506 416.178 300.253 416.282C299.045 416.403 297.952 416.603 296.973 416.883C296.039 417.18 294.949 417.59 293.702 418.115L298.687 428.7L300.092 428.022C302.652 426.787 304.487 425.517 305.596 424.211C306.597 422.92 306.662 421.349 305.791 419.499Z" fill="#DD4E0C"/>
<path d="M307.092 445.774C309.975 444.494 312.707 444.342 315.289 445.32C317.915 446.315 319.852 448.243 321.098 451.103C321.347 451.676 321.586 452.442 321.815 453.402C321.971 454.281 322.016 455.209 321.951 456.187C323.234 458.613 324.45 461.013 325.597 463.386L323.079 464.505C322.772 463.541 322.489 462.415 322.231 461.126C321.96 460.071 321.745 458.839 321.585 457.43C321.418 458.87 320.81 460.164 319.76 461.313C318.742 462.448 317.504 463.339 316.047 463.987C313.005 465.338 310.257 465.496 307.803 464.462C305.38 463.414 303.518 461.397 302.217 458.409L301.386 456.502C300.737 455.88 300.137 455.502 299.587 455.367C299.019 455.278 298.592 455.297 298.307 455.423C297.768 455.662 297.6 456.23 297.801 457.127C298.242 459.094 298.975 461.556 299.999 464.515C300.444 465.797 300.751 466.893 300.921 467.804C301.136 468.732 301.225 469.717 301.187 470.758C301.149 471.799 300.808 472.709 300.164 473.488C299.534 474.299 298.617 474.972 297.414 475.507C295.481 476.365 293.566 476.438 291.667 475.726C289.737 475.028 288.122 473.925 286.822 472.416C285.491 470.922 284.416 469.237 283.599 467.362C280.623 460.528 281.051 456.26 284.885 454.558C287.388 453.446 290.037 454.45 292.833 457.57L292.901 457.597C292.791 455.521 293.528 454.132 295.113 453.428C296.95 452.612 298.905 453.28 300.977 455.432L301.214 455.327C300.856 450.858 302.815 447.674 307.092 445.774ZM296.457 469.275C295.552 465.808 294.689 462.872 293.868 460.467L293.723 460.134C293.685 459.961 293.604 459.731 293.48 459.445C293.442 459.272 293.368 459.059 293.257 458.804L293.207 458.428C290.988 457.328 288.928 457.2 287.027 458.044C285.285 458.818 284.319 459.986 284.13 461.55C283.956 463.145 284.277 464.88 285.093 466.755C285.564 467.835 286.123 468.858 286.77 469.822C287.385 470.801 288.134 471.739 289.017 472.636C289.913 473.566 290.919 474.181 292.033 474.483C293.161 474.816 294.296 474.729 295.436 474.223C296.894 473.576 297.234 471.926 296.457 469.275ZM302.984 456.134C302.885 456.861 303.015 457.637 303.375 458.464C303.735 459.29 304.182 459.926 304.716 460.371C305.173 460.813 305.825 461.093 306.67 461.21C308.196 461.329 310.464 460.72 313.474 459.383C316.579 458.004 318.676 456.655 319.765 455.337C320.588 454.099 320.673 452.733 320.023 451.24C319.649 450.381 319.124 449.742 318.449 449.321C317.775 448.9 317.099 448.65 316.422 448.572C315.758 448.525 314.926 448.61 313.924 448.828C312.968 449.063 312.182 449.298 311.566 449.534C310.982 449.755 310.246 450.063 309.359 450.457C308.535 450.823 307.829 451.156 307.241 451.455C306.685 451.74 306.045 452.138 305.322 452.648C304.613 453.191 304.068 453.718 303.685 454.229C303.349 454.758 303.115 455.393 302.984 456.134Z" fill="#DD4E0C"/>
<path d="M316.295 507.448L317.729 511.694L316.959 512.009L312.791 503.489L317.92 501.332C314.646 500.351 312.205 498.934 310.597 497.083C309.99 496.32 309.505 495.488 309.142 494.588C308.143 492.113 308.109 490.085 309.042 488.505C310.006 486.911 311.787 485.582 314.386 484.518L318.428 482.863C319.377 482.436 320.718 481.868 322.451 481.159L324.183 480.45C325.017 480.108 325.649 479.868 326.079 479.729C326.945 479.375 327.593 479.128 328.024 478.989L329.708 478.299L328.265 474.17L329.132 473.815L333.916 482.195C332.671 482.63 331.647 483.012 330.845 483.34L327.525 484.7C325.504 485.528 323.938 486.188 322.828 486.68L318.498 488.453C317.343 488.926 316.072 489.484 314.687 490.126C313.269 490.782 312.218 491.512 311.533 492.316C310.881 493.108 310.808 494.131 311.314 495.385C312.339 497.924 314.881 499.73 318.94 500.802L335.975 493.826L334.221 488.926L335.087 488.571L340.164 497.674L316.295 507.448Z" fill="#DD4E0C"/>
<path d="M356.894 511.946L355.498 507.691L356.371 507.355L360.994 515.996L349.794 520.191L324.652 529.857L325.84 533.857L325.064 534.155L320.441 522.005L321.217 521.706L322.821 525.045L356.894 511.946Z" fill="#DD4E0C"/>
<path d="M339.381 566.122L339.087 566.838C337.134 566.334 335.797 565.088 335.075 563.101C334.53 561.602 334.459 560.391 334.862 559.469C335.265 558.546 336.209 557.795 337.695 557.215C335.73 557.084 333.911 556.089 332.239 554.227C331.763 553.626 331.347 552.837 330.992 551.859C330.282 549.904 330.213 548.139 330.784 546.565C331.388 544.978 332.634 543.839 334.522 543.149C335.792 542.684 337.017 542.605 338.198 542.912C339.391 543.251 340.41 543.874 341.257 544.783C342.148 545.712 342.908 546.689 343.538 547.714C344.18 548.771 344.72 549.902 345.158 551.108C345.383 551.727 345.667 552.712 346.01 554.063L351.924 552.066C353.128 551.625 354.12 551.207 354.898 550.812C355.751 550.316 356.374 549.848 356.768 549.409C357.573 548.376 357.668 547.012 357.052 545.318C356.792 544.601 356.477 543.886 356.107 543.172C355.672 542.482 355.246 541.918 354.829 541.48C354.654 541.507 354.355 541.598 353.932 541.753C353.692 541.804 353.328 541.918 352.84 542.097L350.837 542.829C350.023 543.127 349.411 543.369 348.999 543.557C348.185 543.855 347.573 544.097 347.161 544.284C346.762 543.692 346.432 543.038 346.172 542.321C345.982 541.8 345.851 541.183 345.777 540.472C346.188 540.285 346.882 540.012 347.859 539.655C348.368 539.432 349.16 539.124 350.234 538.731C351.113 538.41 351.77 538.188 352.205 538.066C353.019 537.768 353.611 537.57 353.981 537.471C354.055 537.777 354.187 538.19 354.376 538.711L354.571 539.249C354.85 539.812 355.188 540.389 355.588 540.981C356.872 542.689 357.828 544.407 358.455 546.134C359.911 550.142 359.432 553.14 357.02 555.13C356.17 555.736 355.257 556.218 354.281 556.575L342.245 560.755L339.363 561.809C338.712 562.047 338.157 562.398 337.698 562.861C337.284 563.345 337.183 563.88 337.396 564.466C337.657 565.183 338.318 565.735 339.381 566.122ZM333.629 553.331C334.28 555.123 335.949 556.266 338.636 556.76L345.131 554.384C345.004 553.729 344.804 553.027 344.532 552.278C343.041 548.172 340.554 546.756 337.07 548.031C333.912 549.186 332.765 550.952 333.629 553.331Z" fill="#DD4E0C"/>
<path d="M369.926 583.892C369.924 583.783 369.867 583.564 369.753 583.237C369.105 581.37 367.094 580.07 363.72 579.337L344.815 585.926L345.97 590.204L345.185 590.478L340.835 577.952L341.62 577.678L343.109 581.014L365.254 573.295L364.001 569.051L364.885 568.743L369.202 577.371L364.734 578.928C366.468 579.168 367.972 579.8 369.246 580.825C370.563 581.871 371.506 583.213 372.075 584.85C372.427 585.865 372.626 586.861 372.671 587.836C372.486 587.937 372.181 588.062 371.756 588.211C371.374 588.38 371.069 588.505 370.84 588.585L368.728 589.321L366.273 590.176C366.011 590.268 365.613 590.388 365.078 590.538C364.587 590.709 364.221 590.818 363.98 590.865C363.589 590.268 363.303 589.707 363.121 589.183C362.836 588.364 362.617 587.468 362.462 586.494C362.691 586.414 363.024 586.316 363.461 586.2C363.898 586.085 364.215 585.993 364.411 585.924L366.13 585.325L367.996 584.675L369.076 584.299C369.174 584.264 369.316 584.197 369.501 584.095C369.697 584.027 369.839 583.959 369.926 583.892Z" fill="#DD4E0C"/>
</svg>
