<svg width="490" height="490" viewBox="0 0 490 490" fill="none" xmlns="http://www.w3.org/2000/svg">
<path d="M117.068 154.005L123.659 146.864L131.619 158.688L132.432 157.387C132.941 156.706 133.317 155.994 133.559 155.25C133.999 154.217 133.984 152.805 133.511 151.013C133.124 149.816 132.82 148.931 132.599 148.358C132.183 147.241 131.879 146.356 131.687 145.704C131.496 145.051 131.337 144.239 131.211 143.267C131.085 142.294 131.157 141.423 131.427 140.653C131.725 139.857 132.236 139.123 132.959 138.45L133.543 137.907L134.295 137.208C134.406 137.104 134.53 137.015 134.668 136.939C134.779 136.836 134.875 136.772 134.957 136.748C135.013 136.696 135.054 136.657 135.082 136.631C135.319 136.775 135.568 136.958 135.828 137.183L136.721 138.143C137.079 138.64 137.335 138.999 137.489 139.219C137.716 139.631 137.852 139.945 137.898 140.162L137.147 140.861C136.729 141.249 136.436 141.547 136.267 141.756C135.21 142.74 134.613 143.632 134.476 144.434C134.341 145.182 134.489 146.29 134.92 147.757C135.717 150.233 136.022 152.207 135.834 153.679L150.195 159.161L152.971 157.125L154.159 158.821L148.524 164.061L134.342 158.101L132.804 160.465L140.343 171.669L136.669 175.085L121.706 152.883L118.212 155.821L117.068 154.005Z" fill="#2A2927"/>
<path d="M174.01 136.209L168.204 120.391L168.008 120.506C168.167 121.909 168.277 123.077 168.338 124.009C168.431 124.923 168.51 126.263 168.573 128.03C168.67 129.778 168.633 131.296 168.461 132.585C168.322 133.854 168.104 135.213 167.807 136.663C167.542 138.094 167.078 139.333 166.413 140.381C165.73 141.396 164.896 142.191 163.912 142.766C162.402 143.648 161.165 143.865 160.199 143.416C159.168 143.007 158.23 142.08 157.387 140.636C156.678 139.422 156.071 138.082 155.567 136.616C155.137 135.503 154.533 133.942 153.756 131.931C152.959 129.889 152.497 128.684 152.371 128.317C151.202 125.26 150.195 122.481 149.351 119.982L145.643 121.883L144.924 119.861L152.573 114.536C152.598 114.653 153.087 116.018 154.04 118.63C154.191 119.114 154.452 119.863 154.825 120.878C155.197 121.892 155.475 122.632 155.659 123.097C156.404 125.126 156.97 126.622 157.356 127.585C157.564 128.167 157.864 128.982 158.256 130.03C158.647 131.077 158.853 131.617 158.872 131.65C159.48 133.143 159.926 134.246 160.211 134.96C160.616 135.956 161.068 136.88 161.566 137.733C162.429 139.21 163.237 139.728 163.992 139.287C164.911 138.75 165.571 137.243 165.972 134.764C166.372 132.286 166.557 129.89 166.526 127.576C166.475 125.229 166.346 123.236 166.137 121.598C165.536 116.801 164.478 112.578 162.963 108.93L167.245 106.429L177.245 132.141C178.124 134.4 178.761 136.47 179.156 138.352C179.603 140.247 179.779 142.169 179.684 144.116C179.609 146.097 179.037 147.905 177.968 149.541C176.918 151.21 175.36 152.649 173.293 153.856C172.735 154.182 172.148 154.458 171.533 154.686C171.082 154.817 170.424 155.047 169.56 155.376C169.109 155.507 168.451 155.738 167.587 156.066C166.761 156.46 166.135 156.782 165.708 157.031C165.549 156.684 165.258 155.996 164.833 154.968L163.892 152.679C163.733 152.332 163.254 150.983 162.454 148.634C163.015 148.087 163.557 147.66 164.082 147.353C164.804 146.932 165.508 146.63 166.195 146.45C167.039 148.949 167.858 151.067 168.652 152.804C170.099 152.795 171.413 152.445 172.594 151.756C173.808 151.046 174.712 150.145 175.305 149.05C175.813 147.961 176.091 146.743 176.14 145.394C176.155 143.009 175.445 139.947 174.01 136.209Z" fill="#2A2927"/>
<path d="M200.408 133.061L206.38 131.111L206.928 133.102L193.32 138.524L192.825 136.513L195.907 134.855L187.308 97.1096L182.988 98.5859L182.525 96.5001L191.093 92.2879L194.386 108.095L194.598 108.011C194.203 96.5505 196.23 89.9341 200.678 88.1617C202.09 87.599 203.452 87.6289 204.763 88.2516C206.075 88.8743 207.118 89.7471 207.893 90.87C208.654 91.9577 209.315 93.2075 209.878 94.6196C211.313 98.2202 212.007 101.707 211.96 105.08C211.935 108.403 211.01 111.472 209.186 114.285C207.397 117.084 204.72 119.194 201.155 120.615C200.449 120.896 199.912 121.089 199.545 121.195C199.368 121.265 199.09 121.335 198.708 121.405C198.341 121.511 198.045 121.588 197.819 121.637L200.408 133.061ZM200.239 91.527C199.039 92.0053 198.127 93.4119 197.503 95.7468C196.9 98.0323 196.59 100.692 196.572 103.726C196.54 106.725 196.593 109.527 196.731 112.131C196.904 114.721 197.12 116.905 197.378 118.684C198.084 118.811 198.722 118.823 199.294 118.718C199.809 118.676 200.349 118.543 200.914 118.318C202.856 117.544 204.343 116.297 205.375 114.576C206.443 112.842 207.049 110.923 207.192 108.821C207.336 106.718 207.24 104.629 206.904 102.554C206.568 100.479 206.041 98.5415 205.324 96.7412C205.113 96.2117 204.86 95.6786 204.564 95.1419C204.304 94.5912 203.93 93.9627 203.444 93.2564C202.994 92.5361 202.483 92.0238 201.912 91.7197C201.362 91.3662 200.804 91.3019 200.239 91.527Z" fill="#2A2927"/>
<path d="M238.073 81.0787C238.71 80.9697 239.337 80.92 239.956 80.9297L241.755 80.9685C242.53 80.99 243.127 80.9842 243.545 80.9511C243.858 80.9747 244.313 80.9351 244.913 80.8325L245.474 80.7363C245.62 82.4848 245.611 85.4742 245.449 89.7043C244.732 90.0199 244.13 90.2193 243.643 90.3027C242.932 90.4246 242.223 90.4497 241.516 90.3779C241.534 90.028 241.556 89.4843 241.584 88.747C241.643 87.9659 241.684 87.4191 241.708 87.1066C241.771 85.9006 241.744 84.7294 241.626 83.5929C240.587 83.154 239.375 83.0532 237.989 83.2906C236.229 83.5921 234.784 84.4951 233.653 85.9995C232.554 87.46 231.815 89.225 231.437 91.2946C231.053 93.3266 230.856 95.3266 230.846 97.2946C230.83 99.225 230.966 101.033 231.254 102.718C231.614 104.816 232.365 106.499 233.507 107.769C234.681 108.994 236.26 109.437 238.246 109.097C240.306 108.744 242.489 107.31 244.795 104.794L246.18 106.465C243.408 109.639 240.318 111.518 236.91 112.101C233.951 112.608 231.571 111.994 229.77 110.259C227.963 108.487 226.796 106.065 226.27 102.994C225.898 100.821 225.857 98.5539 226.146 96.1911C226.473 93.822 227.094 91.5952 228.009 89.5107C228.918 87.3889 230.244 85.5618 231.986 84.0297C233.759 82.4537 235.788 81.47 238.073 81.0787Z" fill="#2A2927"/>
<path d="M260.038 85.2924L269.356 85.0606C269.312 85.1724 268.968 86.5807 268.326 89.2856C268.185 89.7726 267.99 90.5421 267.742 91.5942C267.494 92.6462 267.319 93.4167 267.216 93.9058C266.72 96.0099 266.369 97.57 266.161 98.5861C266.014 99.187 265.815 100.032 265.565 101.122C265.315 102.212 265.189 102.776 265.187 102.814C264.872 104.395 264.637 105.562 264.481 106.315C264.271 107.369 264.139 108.389 264.085 109.376C263.992 111.083 264.382 111.961 265.254 112.009C266.506 112.077 268.001 111.189 269.739 109.343C271.476 107.497 272.89 105.653 273.981 103.81C275.111 101.931 276.104 100.139 276.958 98.4354C278.972 94.3214 280.377 90.2121 281.173 86.1074L286.067 86.3755L280.397 112.781L284.991 113.318L284.531 115.462L275.083 114.945L278.985 98.946L278.757 98.9335C277.949 100.488 277.27 101.763 276.721 102.761C276.212 103.722 275.376 105.085 274.214 106.848C273.09 108.613 272.023 110.02 271.014 111.068C270.007 112.079 268.797 112.983 267.383 113.781C266.008 114.581 264.637 114.943 263.271 114.868C261.525 114.773 260.373 114.272 259.814 113.366C259.179 112.456 258.907 111.166 258.998 109.497C259.075 108.093 259.307 106.64 259.694 105.139C259.948 103.973 260.304 102.337 260.762 100.231C261.222 98.0873 261.5 96.8276 261.596 96.4523C262.304 93.2563 262.995 90.3827 263.667 87.8317L259.525 87.3764L260.038 85.2924Z" fill="#2A2927"/>
<path d="M302.528 132.127C299.026 131.658 296.501 130.323 294.956 128.123C293.448 125.927 292.928 123.078 293.397 119.575C293.71 117.24 294.354 115.007 295.329 112.876C296.309 110.706 297.542 108.801 299.027 107.16C300.512 105.518 302.326 104.285 304.468 103.46C306.616 102.597 308.913 102.33 311.361 102.657C316.71 103.373 319.104 105.822 318.544 110.002C318.232 112.338 317.263 113.991 315.638 114.962C314.013 115.933 311.887 116.491 309.26 116.638L309.245 116.751C311.334 117.184 312.951 117.995 314.095 119.183C315.277 120.377 315.735 121.971 315.467 123.968C315.024 127.282 313.604 129.584 311.207 130.873C308.811 132.163 305.918 132.581 302.528 132.127ZM303.098 130.018C305.17 130.295 306.821 129.845 308.052 128.668C309.321 127.496 310.099 125.837 310.386 123.69C310.648 121.731 310.265 120.3 309.236 119.395C308.249 118.458 306.721 117.851 304.649 117.574L299.056 116.825C298.706 118.005 298.41 119.499 298.168 121.307C297.463 126.58 299.106 129.483 303.098 130.018ZM310.396 104.713C305.763 104.093 302.142 107.519 299.531 114.991L303.995 115.588C309.72 116.355 312.91 114.29 313.565 109.393C313.938 106.606 312.882 105.046 310.396 104.713Z" fill="#2A2927"/>
</svg>
