<svg width="1289" height="1004" viewBox="0 0 1289 1004" fill="none" xmlns="http://www.w3.org/2000/svg">
<path d="M186.694 955.864L18.0341 664.211C44.4146 647.533 39.4469 624.199 33.6655 614.617L800.114 171.388C831.376 212.364 886.839 167.483 865.717 133.45L1052.27 25.5704C1066.88 47.8547 1091.93 42.241 1102.63 36.6486L1271.28 328.302C1245.52 344.054 1250.18 367.187 1255.73 376.784L1069.1 485.776C1043.2 445.97 981.262 484.635 1003.77 523.558L237.591 966.63C221.927 943.529 197.133 949.827 186.694 955.864Z" fill="#2A2927"/>
<path d="M232.248 975.339L47.8765 705.261C71.8628 687.438 65.2841 665.268 58.9965 656.41L759.108 178.472C792.263 215.918 841.929 168.984 819.033 137.564L989.437 21.2358C1005.18 41.7575 1028.75 34.6921 1038.57 28.5941L1222.94 298.672C1199.47 315.561 1205.74 337.558 1211.81 346.445L1041.41 463.85C1013.49 427.179 957.131 468.547 981.736 504.59L281.871 982.36C265.058 961.12 241.783 968.829 232.248 975.339Z" fill="#6965E2"/>
<path d="M247.013 937.306L79.9746 668.642C103.903 652.403 98.4622 630.702 92.7511 621.881L789.407 188.742C819.906 226.304 869.867 182.983 849.036 151.668L1018.6 46.2443C1032.97 66.73 1056.05 60.8714 1065.79 55.3814L1232.83 324.045C1209.44 339.403 1214.59 360.924 1220.08 369.765L1050.49 476.231C1025.01 439.632 968.813 477.297 991.105 513.152L294.695 946.138C279.322 924.914 256.502 931.407 247.013 937.306Z" fill="white"/>
<line x1="838.043" y1="198.539" x2="1003.84" y2="465.2" stroke="#2A2927" stroke-width="2" stroke-dasharray="24 24"/>
</svg>
