<svg width="450" height="479" viewBox="0 0 450 479" fill="none" xmlns="http://www.w3.org/2000/svg">
<path d="M93.6433 179.867L92.3691 183.712C92.2118 184.186 92.0544 184.582 91.8969 184.898C94.3487 187.036 97.0612 189.183 100.034 191.337C102.248 192.921 104.036 194.362 105.396 195.661C106.709 196.944 107.904 198.424 108.981 200.102C110.01 201.765 110.566 203.585 110.648 205.563C110.745 207.494 110.393 209.669 109.591 212.09C108.694 214.795 107.678 216.828 106.542 218.188L105.191 217.736C105.506 217.261 105.742 216.787 105.9 216.312C106.293 215.126 106.094 213.978 105.302 212.87C104.495 211.809 103.388 210.701 101.98 209.544C100.525 208.372 98.9829 207.224 97.354 206.099C90.6804 201.442 87.8929 196.581 88.9916 191.518C84.8164 199.507 79.22 202.327 72.2021 199.98C70.2106 199.314 68.5582 198.339 67.2451 197.056C65.9478 195.726 65.0057 194.278 64.4189 192.71C63.8478 191.096 63.5057 189.347 63.3924 187.464C63.2948 185.533 63.4028 183.698 63.7163 181.957C63.998 180.154 64.4378 178.35 65.0356 176.546L72.8457 152.982L74.1971 153.434L72.6179 159.391L118.993 174.902L121.283 169.183L122.634 169.635L114.777 193.342L113.426 192.89L114.981 187.004L93.6433 179.867ZM68.6778 171.517L67.734 174.365C66.5856 177.829 66.7712 180.528 68.2906 182.459C69.7626 184.375 72.3479 185.952 76.0465 187.189C79.7925 188.442 82.85 188.832 85.2191 188.359C87.5565 187.822 89.2758 185.893 90.3769 182.571L91.5095 179.154L68.6778 171.517Z" fill="#2A2927"/>
<path d="M101.679 111.849C110.136 102.848 117.55 101.382 123.922 107.45C128.702 112.002 128.569 118.021 123.526 125.508L123.797 125.766C126.987 122.59 130.336 120.705 133.844 120.11C137.353 119.516 140.664 120.701 143.778 123.667C145.95 125.736 147.352 127.968 147.982 130.364C148.577 132.725 148.484 135.088 147.703 137.452C146.923 139.816 145.873 141.992 144.554 143.98C143.271 146.004 141.671 148.035 139.753 150.076C136.946 153.064 133.257 156.041 128.687 159.008C128.105 159.627 127.594 160.28 127.155 160.967C126.821 161.615 126.502 162.174 126.197 162.644C125.837 162.37 125.223 161.819 124.354 160.991C123.849 160.58 123.053 159.856 121.967 158.822C121.39 158.341 120.522 157.549 119.363 156.446C118.749 155.93 117.918 155.173 116.868 154.173L115.184 152.569C114.605 152.018 114.205 151.603 113.986 151.325C114.695 150.205 115.683 148.971 116.95 147.623C118.627 145.837 119.968 144.593 120.97 143.891C121.553 144.585 122.153 145.224 122.768 145.811L128.471 151.242C129.268 152 129.864 152.534 130.26 152.842L131.564 154.083C133.79 153.028 135.623 151.735 137.061 150.204C139.936 147.143 141.141 144.182 140.673 141.32C140.24 138.422 138.467 135.49 135.353 132.525C132.239 129.56 129.38 128.148 126.775 128.292C124.171 128.435 121.431 130.038 118.555 133.099L116.347 135.449L114.718 133.897L116.823 131.656C119.391 128.923 120.535 126.354 120.257 123.948C120.013 121.506 118.515 118.975 115.763 116.354C110.223 111.079 105.382 110.645 101.24 115.055C99.8362 116.549 98.7413 118.372 97.9552 120.523L99.0414 121.557L100.562 123.005C100.89 123.387 101.38 123.888 102.031 124.508L103.226 125.646C104.494 126.853 105.452 127.731 106.102 128.281C106.862 129.005 107.602 129.641 108.323 130.189C107.716 131.2 106.54 132.634 104.794 134.493C103.493 135.877 102.324 136.939 101.287 137.678C101 137.473 100.566 137.094 99.9868 136.543L98.3575 134.991C97.3075 133.991 96.5099 133.197 95.9648 132.609C94.8786 131.574 94.0811 130.78 93.5722 130.227C92.5222 129.227 91.7789 128.484 91.3425 128C90.5097 127.207 89.9475 126.637 89.6559 126.29C90.4169 125.772 90.9696 125.366 91.3139 125.073C92.0408 124.591 92.7123 124.022 93.3285 123.366C95.8488 118.931 98.6325 115.092 101.679 111.849Z" fill="#2A2927"/>
<path d="M201.786 116.159L201.307 114.817L206.959 112.355L190.538 66.2939L184.635 68.0499L184.157 66.7077L207.617 58.1419L208.096 59.4841L202.515 61.9209L218.935 107.982L224.768 106.251L225.246 107.594L201.786 116.159ZM147.986 81.8307L142.083 83.5868L141.605 82.2445L167.883 72.6497L168.361 73.992L159.963 77.4577L166.762 96.5319L170.496 95.1686C172.516 94.4312 174.475 93.8223 176.374 93.3419C178.273 92.8615 180.341 92.5587 182.579 92.4336C184.817 92.3084 186.817 92.4831 188.578 92.9577C190.37 93.368 192.029 94.2259 193.556 95.5313C195.083 96.8367 196.241 98.5962 197.031 100.81C200.624 110.888 195.68 118.389 182.201 123.31L159.234 131.696L158.755 130.354L164.406 127.891L147.986 81.8307ZM176.358 123.448L179.88 122.162C183.497 120.841 185.551 118.787 186.044 115.999C186.519 113.164 186.043 109.745 184.616 105.742C183.24 101.88 181.516 99.1292 179.445 97.49C177.422 95.8337 174.648 95.6486 171.126 96.9347L167.392 98.2981L176.358 123.448Z" fill="#2A2927"/>
<path d="M245.437 54.6604L239.413 53.3733L239.63 51.965L264.326 55.6869L264.109 57.0952L258.044 56.5605L254.61 78.7968L262.471 79.9815C264.198 79.2811 265.749 77.922 267.123 75.9043C267.671 74.9756 268.265 73.7504 268.905 72.2288C269.152 71.6088 269.769 69.9067 270.756 67.1227C271.343 65.2896 271.876 63.8025 272.356 62.6613C273.125 60.2996 274.53 58.7415 276.569 57.987C278.052 57.5532 280.203 57.5487 283.021 57.9734C283.268 58.0107 283.611 58.0875 284.048 58.204C284.493 58.2711 284.811 58.3442 285.001 58.4234L286.969 58.9476C287.425 59.9264 287.405 62.0218 286.908 65.2337C286.649 66.9138 286.357 67.9823 286.034 68.4392C285.844 68.3599 285.576 68.2943 285.23 68.2421C284.891 68.1405 284.623 68.0748 284.425 68.045C281.706 67.6352 279.667 67.4038 278.31 67.3509C276.4 67.2654 274.93 67.4484 273.899 67.8998C272.868 68.3512 272.078 69.3698 271.53 70.9558C269.595 76.2768 267.359 79.454 264.821 80.4874L264.838 80.8692C266.496 81.2708 267.852 81.829 268.905 82.544C270.015 83.2169 270.914 84.1109 271.602 85.2258C272.29 86.3408 272.809 87.4049 273.158 88.4183C273.508 89.4317 273.874 90.8269 274.257 92.6038L275.725 99.8029C276.052 101.622 276.412 103.218 276.807 104.593C277.471 107.17 278.267 108.731 279.195 109.276C279.693 109.654 280.239 109.888 280.832 109.978C281.376 110.059 281.726 110.087 281.882 110.06L282.132 111.387C281.714 111.476 281.094 111.559 280.272 111.638C277.754 111.562 275.902 111.434 274.715 111.255C272.243 110.883 270.174 110.192 268.509 109.182C266.893 108.18 265.635 106.828 264.734 105.124C263.841 103.372 263.192 101.681 262.786 100.052C262.437 98.3817 262.103 96.2836 261.785 93.758C261.375 91.1681 261.085 89.2788 260.915 88.0901C260.858 87.4748 260.718 86.4171 260.494 84.917C260.32 83.4244 260.171 82.2642 260.045 81.4363C259.692 81.4335 259.193 81.3837 258.551 81.2869L254.323 80.6498L250.58 104.887L256.53 106.163L256.312 107.572L231.616 103.85L231.833 102.441L237.972 102.987L245.437 54.6604Z" fill="#2A2927"/>
<path d="M330.738 81.2273L325.08 78.9843L306.232 119.351L306.436 119.446L346.003 86.8234L363.042 94.8267L362.44 96.1179L356.782 93.8749L336.094 138.183L341.434 141.105L340.831 142.397L318.225 131.779L318.828 130.487L324.553 132.762L343.402 92.3959L343.198 92.3002L303.63 124.923L286.523 116.888L287.126 115.597L292.851 117.872L313.54 73.5637L308.132 70.6093L308.735 69.3181L331.34 79.9361L330.738 81.2273Z" fill="#2A2927"/>
<line x1="46.2592" y1="291.398" x2="219.994" y2="233.906" stroke="#2A2927" stroke-width="3"/>
<line x1="258.917" y1="221.026" x2="427.905" y2="165.105" stroke="#2A2927" stroke-width="3"/>
</svg>
