<svg width="623" height="829" viewBox="0 0 623 829" fill="none" xmlns="http://www.w3.org/2000/svg">
<path d="M32.1658 736.889L32.4812 733.116L4.93003 722.47L2.98469 725.848L0.504297 724.909L5.21509 712.459L32.3139 711.37L12.4837 693.248L17.3417 680.408L19.8221 681.347L18.8863 684.995L47.4838 695.816L49.1688 691.95L51.552 692.851L45.4243 709.047L43.0411 708.145L44.3555 704.084L20.4756 695.048L42.9571 716.008L42.6364 717.444C42.5953 717.651 42.5457 717.928 42.4879 718.277C42.4056 718.691 42.3661 718.991 42.3696 719.177L10.711 720.709L33.6734 729.231L37.2446 723.465L39.6278 724.367L34.5489 737.79L32.1658 736.889Z" fill="#DAEA02"/>
<path d="M60.6728 656.074L62.6412 655.623C64.2538 658.612 64.5875 661.298 63.6425 663.683C63.1188 665.004 62.3365 665.944 61.2954 666.501C60.261 667.135 58.8192 667.197 56.97 666.688L56.8934 666.882C58.0755 668.133 58.8206 669.64 59.1289 671.403C59.4049 673.153 59.2172 674.85 58.5659 676.494C57.6719 678.75 56.373 680.193 54.6691 680.823C53.8913 681.186 53.0807 681.349 52.2373 681.313C51.4133 681.323 50.5662 681.155 49.6961 680.81C48.3747 680.286 47.3808 679.501 46.7144 678.454C46.0285 677.361 45.6673 676.156 45.6309 674.836C45.6072 673.484 45.7286 672.19 45.995 670.953C46.2292 669.703 46.5953 668.45 47.0934 667.193C47.4637 666.259 47.8824 665.343 48.3495 664.447L42.9834 662.32C42.1777 662.001 41.5204 661.778 41.0114 661.651C40.483 661.479 39.8582 661.362 39.137 661.3C38.3963 661.193 37.7691 661.317 37.2552 661.673C36.7091 662.016 36.2892 662.558 35.9955 663.299C35.523 664.491 35.4375 665.93 35.739 667.616C35.9841 667.75 36.3805 667.926 36.9284 668.143L38.1853 668.641C39.829 669.293 41.3209 669.809 42.6611 670.191C42.503 671.061 42.1877 672.092 41.7151 673.284C41.3959 674.09 40.9768 674.912 40.4581 675.751C40.0264 675.617 39.2787 675.339 38.2152 674.918C37.6545 674.733 36.778 674.404 35.5855 673.932C34.6187 673.549 33.916 673.252 33.4776 673.04C32.6074 672.696 32.0015 672.437 31.6597 672.264C31.903 671.839 32.0949 671.448 32.2353 671.094C32.4014 670.675 32.5194 670.33 32.5893 670.06C32.908 669.067 33.095 668.172 33.1504 667.373C33.3347 664.65 33.7973 662.353 34.538 660.484C35.2021 658.808 36.0055 657.393 36.948 656.237C37.8584 655.069 39.0305 654.228 40.4644 653.715C41.8983 653.202 43.4371 653.271 45.0808 653.922L56.6739 658.684L57.7374 659.106C59.5611 659.679 60.69 659.418 61.1242 658.322C61.2392 658.032 61.2638 657.688 61.1982 657.289C61.1647 656.903 60.9896 656.498 60.6728 656.074ZM56.5411 671.441C56.8221 670.732 56.81 669.962 56.5047 669.133C56.1801 668.258 55.7143 667.552 55.1074 667.013L50.2348 665.194C49.9338 665.671 49.6875 666.152 49.496 666.635C48.3849 669.439 49.2312 671.397 52.0351 672.508C54.3878 673.44 55.8898 673.084 56.5411 671.441Z" fill="#DAEA02"/>
<path d="M53.8882 624.882C53.8427 624.9 53.7791 625.005 53.6974 625.196C53.4797 625.706 53.5193 626.364 53.8163 627.169C54.095 627.929 54.4601 628.575 54.9114 629.107C55.1851 629.525 55.4975 629.941 55.8486 630.355L71.4393 637.011L73.8018 632.14L75.9539 633.058L68.9917 649.366L66.8396 648.448L68.0775 645.018L49.2826 636.994L47.4235 640.554L45.1758 639.595L48.4843 627.607L53.458 629.73L53.5192 629.587C50.8424 626.145 50.1778 622.846 51.5253 619.689C51.9336 618.733 52.4491 617.878 53.0716 617.127C54.5472 617.643 56.6878 618.501 59.4935 619.699L61.263 620.454C61.9325 620.74 62.388 620.953 62.6295 621.094C62.4078 622.055 62.1268 622.934 61.7865 623.731C61.6096 624.145 61.4507 624.473 61.3099 624.715C61.0785 625.257 60.8924 625.648 60.7517 625.89C60.5475 626.368 60.3818 626.712 60.2547 626.921C60.2138 627.017 60.173 627.113 60.1322 627.208C60.0595 627.29 60.0095 627.363 59.9823 627.427C59.9232 627.477 59.8868 627.518 59.8732 627.55C58.8938 627.019 57.8142 626.502 56.6346 625.998L55.2955 625.426C54.7216 625.181 54.2525 625 53.8882 624.882Z" fill="#DAEA02"/>
<path d="M51.6111 600.539L49.6376 604.036L47.4222 603.004L51.2711 590.8L85.2571 606.631L87.1802 602.995L89.3014 603.983L82.3632 618.878L80.242 617.89L81.5904 614.503L51.6111 600.539Z" fill="#DAEA02"/>
<path d="M81.8441 589.703C78.1535 587.783 75.6465 585.053 74.3231 581.512C72.9997 577.971 73.2658 574.417 75.1215 570.849C76.9131 567.405 79.3038 565.288 82.2935 564.498C85.2524 563.693 88.4233 564.17 91.8064 565.93L93.5133 566.817L85.7868 581.672C87.1105 582.282 88.2583 582.743 89.2302 583.053C90.1713 583.347 91.2145 583.557 92.3599 583.684C93.5213 583.78 94.564 583.541 95.4879 582.967C96.4119 582.392 97.1939 581.49 97.8338 580.26C99.1295 577.769 99.4921 574.968 98.9216 571.858L101.09 571.52C102.733 575.423 102.459 579.481 100.267 583.694C98.3319 587.416 95.6883 589.831 92.337 590.94C89.0016 592.019 85.5039 591.607 81.8441 589.703ZM77.0996 572.23C75.8039 574.721 77.8692 577.437 83.2956 580.376L87.2549 572.764L86.1477 572.189C84.4869 571.325 82.8525 570.748 81.2446 570.459C79.2011 570.256 77.8195 570.846 77.0996 572.23Z" fill="#DAEA02"/>
<path d="M92.142 549.907L89.7851 553.158L87.7008 551.882L92.7169 540.503L97.9499 543.707L98.0314 543.574C97.1294 541.396 96.6555 539.215 96.6097 537.033C96.5524 534.803 97.085 532.771 98.2073 530.938C99.5649 528.721 101.232 527.526 103.207 527.354C105.182 527.181 107.323 527.801 109.629 529.213C112.704 531.095 117.31 533.996 123.446 537.916L125.877 534.344L127.873 535.566L119.292 549.58L117.297 548.358L118.911 545.322C118.575 545.075 118.037 544.726 117.298 544.273C116.577 543.791 116.039 543.441 115.684 543.224C115.318 542.959 114.765 542.601 114.026 542.148C113.275 541.648 112.708 541.28 112.323 541.045L105.893 537.108C104.089 536.003 102.745 535.444 101.859 535.43C100.973 535.416 100.25 535.868 99.6887 536.784C99.2181 537.553 99.0437 538.767 99.1655 540.427C99.3616 541.767 99.7145 543.182 100.224 544.673L114.105 553.172L116.428 549.777L118.423 550.999L109.843 565.013L107.847 563.791L109.571 560.578L92.142 549.907Z" fill="#DAEA02"/>
<path d="M122.606 520.93C119.26 518.459 117.209 515.371 116.454 511.667C115.699 507.963 116.516 504.494 118.905 501.259C121.212 498.136 123.903 496.418 126.979 496.104C130.028 495.77 133.085 496.735 136.153 499.001L137.701 500.144L127.753 513.612C128.965 514.422 130.027 515.055 130.939 515.513C131.823 515.95 132.82 516.321 133.932 516.625C135.064 516.901 136.131 516.827 137.134 516.404C138.136 515.98 139.049 515.211 139.873 514.095C141.541 511.837 142.336 509.127 142.257 505.966L144.452 505.97C145.466 510.081 144.563 514.047 141.741 517.867C139.249 521.241 136.262 523.215 132.778 523.789C129.315 524.334 125.925 523.381 122.606 520.93ZM120.644 502.932C118.976 505.19 120.592 508.194 125.494 511.944L130.592 505.042L129.588 504.301C128.082 503.189 126.557 502.365 125.014 501.828C123.027 501.309 121.571 501.677 120.644 502.932Z" fill="#DAEA02"/>
<path d="M178.938 470.638L167.994 484.057L166.019 482.446L168.553 479.01L144.656 459.522L141.76 462.662L139.785 461.051L150.959 447.35C152.208 445.819 153.538 444.6 154.949 443.693C156.355 442.737 157.93 442.232 159.674 442.178C161.417 442.124 163.042 442.71 164.546 443.937C167.824 446.61 167.994 450.708 165.056 456.23L165.257 456.394C167.207 454.003 169.551 452.336 172.289 451.392C175.026 450.449 177.51 450.886 179.74 452.705C181.271 453.954 182.338 455.361 182.941 456.926C183.538 458.442 183.672 460.005 183.343 461.616C183.014 463.226 182.48 464.758 181.741 466.213C181.023 467.641 180.089 469.116 178.938 470.638ZM174.059 472.094L176.163 469.515C177.653 467.688 178.207 465.993 177.827 464.43C177.446 462.868 176.302 461.308 174.395 459.753C172.595 458.285 170.8 457.716 169.01 458.045C167.242 458.348 165.602 459.426 164.091 461.28L162.776 462.892L174.059 472.094ZM150.284 452.704L160.842 461.315L161.729 460.226C162.825 458.883 163.11 457.327 162.585 455.557C162.033 453.765 161.046 452.288 159.622 451.127C158.171 449.944 156.707 449.353 155.229 449.356C153.772 449.331 152.475 450.017 151.335 451.414L150.284 452.704Z" fill="#DAEA02"/>
<path d="M203.987 441.226C201.204 444.548 198.155 446.38 194.839 446.723C191.522 447.065 188.243 445.878 185 443.163C181.598 440.314 179.66 437.04 179.185 433.341C178.706 429.594 179.858 426.059 182.64 422.737C185.489 419.335 188.623 417.483 192.042 417.181C195.456 416.83 198.824 418.046 202.146 420.828C205.734 423.833 207.672 427.107 207.961 430.649C208.25 434.192 206.925 437.718 203.987 441.226ZM202.393 439.484C204.619 436.826 202.689 432.949 196.603 427.852C193.307 425.092 190.677 423.454 188.712 422.939C186.982 422.575 185.527 423.097 184.347 424.506C182.21 427.057 184.132 430.837 190.112 435.845C193.274 438.494 195.794 440.129 197.67 440.751C199.572 441.395 201.147 440.972 202.393 439.484Z" fill="#DAEA02"/>
<path d="M194.723 396.279L191.88 399.116L190.024 397.525L197.019 386.809L225.484 411.21L228.315 408.226L230.092 409.749L219.397 422.225L217.621 420.702L219.832 417.803L194.723 396.279Z" fill="#DAEA02"/>
<path d="M221.958 364.828L218.327 368.559L216.492 366.945L224.525 355.38L232.77 362.777L252.012 379.716L254.931 376.951L256.766 378.566L249.742 388.04L246.159 385.578L245.987 385.774C246.308 387.35 246.277 388.985 245.894 390.68C245.507 392.326 244.81 393.721 243.802 394.866C242.52 396.323 241.121 397.308 239.606 397.822C238.065 398.313 236.521 398.363 234.973 397.97C233.425 397.577 231.951 396.996 230.551 396.225C229.174 395.428 227.809 394.434 226.456 393.243C223.178 390.357 221.379 387.18 221.06 383.713C220.764 380.219 222.013 376.885 224.808 373.71C226.022 372.331 227.305 371.267 228.657 370.518L224.495 367.062L221.958 364.828ZM227.295 374.584C224.844 377.368 226.507 381.303 232.283 386.388C237.592 391.061 241.128 392.395 242.891 390.392C244.197 388.909 244.596 386.881 244.089 384.31L230.662 372.49C229.963 372.707 229.341 372.967 228.796 373.272C228.208 373.678 227.707 374.115 227.295 374.584Z" fill="#DAEA02"/>
</svg>
