<svg width="869" height="584" viewBox="0 0 869 584" fill="none" xmlns="http://www.w3.org/2000/svg">
<rect x="47.998" y="471.1" width="1118.37" height="118.029" transform="rotate(-24.6306 47.998 471.1)" fill="#009A8F"/>
<rect x="68.3037" y="471.227" width="1048" height="105" transform="rotate(-22.1121 68.3037 471.227)" fill="white"/>
<rect x="171.14" y="429.444" width="330" height="105" transform="rotate(-22.1121 171.14 429.444)" fill="#DAEA02"/>
<rect x="475.94" y="305.602" width="548" height="105" transform="rotate(-22.1121 475.94 305.602)" fill="#565656"/>
<path d="M156.995 457.859L146.042 470.472C143.738 473.125 145.729 477.247 149.24 477.09L156.187 476.781C159.543 476.632 161.577 480.436 159.589 483.144L155.08 489.288C153.316 491.691 154.705 495.108 157.644 495.6L166.257 497.041C169.361 497.56 170.677 501.295 168.584 503.646L164.918 507.764C162.659 510.302 164.393 514.322 167.789 514.422L186.459 514.968" stroke="#C4C4C4" stroke-width="3"/>
<path d="M143.098 463.505L132.145 476.118C129.841 478.771 131.833 482.893 135.343 482.737L142.291 482.428C145.647 482.279 147.681 486.083 145.693 488.791L141.183 494.935C139.42 497.337 140.809 500.755 143.748 501.247L152.36 502.687C155.464 503.207 156.78 506.941 154.688 509.292L151.022 513.41C148.763 515.948 150.496 519.969 153.893 520.068L172.562 520.615" stroke="#C4C4C4" stroke-width="3"/>
<path d="M129.203 469.151L118.25 481.764C115.946 484.417 117.937 488.539 121.448 488.383L128.395 488.074C131.751 487.924 133.785 491.728 131.797 494.437L127.288 500.58C125.524 502.983 126.913 506.401 129.852 506.892L138.465 508.333C141.569 508.852 142.885 512.587 140.792 514.938L137.126 519.056C134.867 521.594 136.601 525.615 139.997 525.714L158.667 526.26" stroke="#C4C4C4" stroke-width="3"/>
<path d="M115.305 474.798L104.352 487.411C102.048 490.064 104.04 494.186 107.55 494.03L114.498 493.721C117.854 493.571 119.888 497.375 117.9 500.084L113.39 506.227C111.627 508.63 113.016 512.048 115.955 512.539L124.567 513.98C127.671 514.499 128.987 518.234 126.895 520.585L123.229 524.703C120.97 527.241 122.703 531.262 126.1 531.361L144.769 531.907" stroke="#C4C4C4" stroke-width="3"/>
<path d="M275.798 463.642L277.101 463.714C277.38 464.364 277.748 465.382 278.204 466.77C279.007 469.309 279.873 471.279 280.803 472.678C281.353 473.461 282.02 473.994 282.804 474.277C283.478 474.52 284.013 474.562 284.407 474.403C284.816 474.25 285.137 473.852 285.369 473.209C285.635 472.472 285.696 471.688 285.553 470.857C285.405 470.041 285.085 469.332 284.593 468.73L285.506 468.262C286.081 468.93 286.434 469.792 286.566 470.85C286.714 471.913 286.629 472.884 286.312 473.762C285.888 474.938 285.209 475.765 284.274 476.242C283.853 476.427 283.456 476.523 283.081 476.529C282.66 476.519 282.292 476.457 281.979 476.344C281.383 476.129 280.836 475.755 280.338 475.221C279.849 474.708 279.459 474.168 279.167 473.602C278.876 473.036 278.6 472.326 278.342 471.47C278.099 470.621 277.924 469.929 277.816 469.394C277.708 468.858 277.587 468.186 277.454 467.376C277.317 466.724 277.181 466.144 277.046 465.634L274.501 473.646L272.531 472.696L275.798 463.642Z" fill="#DD4E0C"/>
<path d="M268.455 478.022C269.64 476.667 270.996 475.938 272.525 475.836C274.054 475.733 275.483 476.264 276.813 477.427C278.456 478.864 279.375 480.586 279.568 482.593C279.751 484.612 279.134 486.431 277.719 488.049C276.545 489.392 275.174 490.086 273.606 490.132C272.04 490.202 270.598 489.66 269.281 488.508C267.6 487.038 266.682 485.328 266.528 483.378C266.375 481.451 267.017 479.665 268.455 478.022ZM269.182 478.824C268.589 479.501 268.212 480.211 268.049 480.955C267.887 481.721 267.925 482.451 268.16 483.144C268.384 483.85 268.712 484.513 269.144 485.133C269.587 485.765 270.123 486.355 270.75 486.904C271.804 487.825 272.886 488.361 273.994 488.512C275.115 488.673 276.115 488.251 276.992 487.248C277.596 486.558 277.978 485.829 278.139 485.063C278.313 484.307 278.288 483.576 278.063 482.871C277.828 482.178 277.488 481.515 277.044 480.884C276.6 480.252 276.059 479.656 275.419 479.097C274.39 478.197 273.309 477.673 272.177 477.524C271.047 477.399 270.048 477.832 269.182 478.824Z" fill="#DD4E0C"/>
<path d="M263.625 483.666L264.542 484.594C264.312 485.263 263.9 486.265 263.306 487.599C262.193 490.019 261.512 492.059 261.261 493.721C261.142 494.67 261.278 495.513 261.668 496.25C262.004 496.883 262.371 497.273 262.77 497.42C263.176 497.581 263.681 497.502 264.285 497.182C264.977 496.815 265.55 496.276 266.002 495.564C266.44 494.86 266.68 494.12 266.721 493.344L267.711 493.611C267.687 494.491 267.369 495.367 266.756 496.239C266.151 497.126 265.437 497.788 264.612 498.225C263.508 498.811 262.449 498.967 261.436 498.693C261 498.547 260.641 498.351 260.36 498.104C260.054 497.813 259.824 497.52 259.667 497.226C259.371 496.666 259.217 496.021 259.207 495.291C259.19 494.583 259.264 493.921 259.428 493.306C259.592 492.691 259.866 491.98 260.249 491.173C260.64 490.38 260.975 489.75 261.255 489.281C261.534 488.812 261.897 488.233 262.343 487.544C262.679 486.969 262.969 486.448 263.211 485.98L255.942 490.202L255.122 488.176L263.625 483.666Z" fill="#DD4E0C"/>
<path d="M254.648 488.559L255.23 489.728C254.803 490.291 254.099 491.114 253.118 492.196C251.306 494.149 250.022 495.875 249.265 497.375C248.856 498.24 248.722 499.083 248.864 499.905C248.985 500.611 249.212 501.096 249.545 501.36C249.881 501.641 250.386 501.723 251.059 501.607C251.831 501.474 252.543 501.14 253.195 500.605C253.831 500.073 254.289 499.444 254.57 498.72L255.428 499.282C255.131 500.111 254.556 500.845 253.701 501.482C252.85 502.136 251.964 502.542 251.044 502.7C249.813 502.912 248.758 502.73 247.881 502.154C247.512 501.879 247.233 501.581 247.042 501.258C246.843 500.887 246.715 500.537 246.658 500.208C246.551 499.584 246.606 498.923 246.824 498.226C247.029 497.548 247.305 496.943 247.653 496.409C248.001 495.876 248.483 495.286 249.099 494.638C249.718 494.008 250.233 493.513 250.645 493.155C251.057 492.796 251.582 492.359 252.22 491.844C252.719 491.403 253.157 490.997 253.533 490.628L245.31 492.373L245.163 490.192L254.648 488.559Z" fill="#DD4E0C"/>
<path d="M230.261 500.808L235.945 488.39C237.144 485.694 239.267 484.207 242.314 483.93L242.544 484.796C241.773 484.966 241.119 485.177 240.585 485.429C240.066 485.685 239.614 486.046 239.228 486.511C238.847 486.96 238.539 487.394 238.304 487.814C238.069 488.233 237.767 488.834 237.399 489.615L232.707 500.101L234.925 500.807L234.537 501.661L230.261 500.808ZM230.811 503.834L229.315 506.951C228.972 506.943 228.679 506.907 228.438 506.841C228.229 506.785 227.999 506.679 227.747 506.524L229.28 503.366C229.534 503.383 229.774 503.422 229.999 503.483C230.208 503.54 230.479 503.657 230.811 503.834Z" fill="#DD4E0C"/>
<path d="M219.181 495.693C218.738 495.426 218.322 495.116 217.932 494.763L216.279 493.968L224.105 484.648L222.458 483.506L223.065 482.792L226.339 484.771L221.299 490.546L221.384 490.598C223.476 488.942 225.26 487.78 226.734 487.113C228.254 486.435 229.513 486.398 230.511 487.001C230.939 487.26 231.241 487.598 231.417 488.016C231.57 488.44 231.613 488.884 231.545 489.35C231.455 489.821 231.334 490.264 231.181 490.678C231.014 491.083 230.809 491.486 230.568 491.885C229.206 494.139 227.506 495.662 225.468 496.456C223.416 497.241 221.32 496.986 219.181 495.693ZM229.309 487.735C228.809 487.433 228.073 487.475 227.1 487.86C226.104 488.251 225.073 488.845 224.007 489.642C222.927 490.43 221.957 491.197 221.097 491.943C220.214 492.695 219.491 493.359 218.929 493.934C219.225 494.444 219.587 494.828 220.014 495.087C220.842 495.587 221.703 495.806 222.598 495.743C223.492 495.68 224.327 495.396 225.1 494.889C225.865 494.398 226.566 493.818 227.202 493.151C227.816 492.49 228.356 491.775 228.822 491.005C229.149 490.463 229.416 489.845 229.621 489.151C229.812 488.448 229.708 487.976 229.309 487.735Z" fill="#DD4E0C"/>
<path d="M210.971 488.455L205.979 482.332C206.147 482.195 206.292 482.044 206.416 481.879L219.928 482.153L216.231 477.619C215.931 477.778 215.75 477.872 215.687 477.901C215.649 477.932 215.591 477.98 215.513 478.043C215.412 478.104 215.337 478.144 215.288 478.162C215.238 478.181 215.181 478.217 215.117 478.269C215.029 478.32 214.965 478.36 214.927 478.392C214.862 478.445 214.716 478.542 214.488 478.685C214.213 478.479 214.002 478.286 213.854 478.105C213.728 477.95 213.602 477.73 213.477 477.445C214.805 476.621 215.962 475.956 216.949 475.453C217.077 475.714 217.251 475.981 217.472 476.252L222.891 482.898C222.751 482.991 222.6 483.135 222.438 483.332L209.059 483.143L212.25 487.057L213.159 486.51C213.185 486.489 213.242 486.454 213.33 486.403C213.405 486.364 213.462 486.328 213.5 486.296C213.638 486.227 213.789 486.136 213.955 486.023C214.23 486.228 214.441 486.422 214.589 486.602C214.652 486.68 214.713 486.781 214.771 486.905L214.95 487.243C213.661 488.036 212.504 488.7 211.478 489.236C211.277 488.883 211.108 488.623 210.971 488.455Z" fill="#DD4E0C"/>
<path d="M203.14 476.789L200.278 469.426C200.48 469.347 200.665 469.249 200.834 469.13L213.604 473.554L211.485 468.101C211.15 468.16 210.948 468.194 210.88 468.202C210.833 468.22 210.764 468.247 210.67 468.284C210.556 468.31 210.472 468.325 210.419 468.328C210.367 468.33 210.301 468.347 210.224 468.377C210.125 468.397 210.052 468.417 210.005 468.435C209.927 468.465 209.758 468.513 209.498 468.579C209.299 468.298 209.158 468.049 209.073 467.832C209.001 467.645 208.949 467.397 208.918 467.087C210.435 466.712 211.741 466.437 212.835 466.262C212.876 466.55 212.959 466.858 213.086 467.184L216.192 475.176C216.031 475.221 215.843 475.312 215.628 475.449L202.959 471.147L204.788 475.854L205.821 475.613C205.852 475.601 205.917 475.585 206.017 475.564C206.1 475.549 206.166 475.533 206.212 475.515C206.364 475.492 206.536 475.451 206.729 475.395C206.927 475.675 207.069 475.924 207.153 476.142C207.189 476.235 207.216 476.35 207.233 476.486L207.299 476.863C205.829 477.22 204.523 477.495 203.382 477.688C203.299 477.291 203.219 476.991 203.14 476.789Z" fill="#DD4E0C"/>
<path d="M193.811 449.883C193.771 450.381 193.853 450.814 194.058 451.182C194.245 451.548 194.555 451.849 194.988 452.084C195.422 452.303 195.801 452.468 196.127 452.578C196.453 452.688 196.886 452.806 197.428 452.933L199.52 453.428L199.771 450.313L200.778 450.57L200.527 453.685L216.96 457.67L217.376 454.694L218.24 454.864L217.717 461.343L216.853 461.172L216.807 459.564L200.374 455.579L200.232 457.348L199.224 457.091L199.244 455.287L197.202 454.796C195.954 454.512 194.892 453.899 194.014 452.959C193.122 452.001 192.725 450.915 192.822 449.703C192.881 448.972 193.095 448.186 193.464 447.347C193.527 447.184 193.564 447.045 193.573 446.929C193.591 446.914 193.601 446.889 193.604 446.856C193.608 446.806 193.6 446.697 193.58 446.528C195.011 446.828 196.192 447.115 197.122 447.391C197.179 447.73 197.199 447.999 197.183 448.198C197.162 448.448 197.099 448.718 196.992 449.011C196.632 448.915 196.378 448.844 196.231 448.799C196.15 448.776 196.043 448.75 195.911 448.723C195.781 448.679 195.683 448.654 195.616 448.649C195.55 448.644 195.451 448.627 195.319 448.6C195.189 448.556 195.083 448.522 195.001 448.499C194.803 448.466 194.581 448.423 194.335 448.37C194.041 448.697 193.866 449.202 193.811 449.883Z" fill="#DD4E0C"/>
<path d="M208.002 450.64C207.057 450.315 206.151 449.872 205.287 449.311C204.422 448.749 203.651 448.096 202.973 447.352C202.294 446.608 201.831 445.753 201.581 444.786C201.337 443.803 201.389 442.807 201.735 441.799C202.028 440.948 202.482 440.319 203.097 439.914C203.717 439.493 204.437 439.423 205.257 439.704C205.73 439.867 206.162 440.2 206.552 440.705C206.927 441.204 207.212 441.733 207.407 442.294C207.993 443.975 207.903 445.927 207.14 448.15C207.764 448.487 208.328 448.743 208.833 448.916C209.195 449.041 209.566 449.116 209.945 449.14C210.335 449.186 210.707 449.155 211.061 449.048C211.838 448.839 212.378 448.293 212.681 447.41C212.935 446.669 212.861 445.63 212.457 444.293L213.384 444.057C213.671 444.913 213.835 445.666 213.877 446.314C213.903 446.958 213.783 447.665 213.517 448.438C213.089 449.683 212.379 450.47 211.385 450.798C210.391 451.126 209.263 451.073 208.002 450.64ZM202.536 442.391C202.363 442.896 202.366 443.425 202.545 443.98C202.73 444.52 203.042 445.023 203.48 445.491C203.919 445.959 204.365 446.377 204.82 446.745C205.265 447.091 205.732 447.401 206.219 447.675C207.026 445.326 206.842 443.527 205.668 442.278C205.339 441.953 204.993 441.729 204.631 441.604C204.174 441.447 203.747 441.432 203.35 441.561C202.959 441.673 202.688 441.95 202.536 442.391Z" fill="#DD4E0C"/>
<path d="M214.784 441.669C215.24 441.463 215.73 440.994 216.255 440.263C216.468 439.965 216.64 439.668 216.771 439.372C217.117 438.717 217.216 438.122 217.068 437.585C217.016 437.343 216.855 437.124 216.584 436.93C216.218 436.668 215.8 436.522 215.329 436.492C214.376 436.505 213.375 436.7 212.326 437.075C210.304 437.778 208.9 437.848 208.115 437.285C207.085 436.547 206.563 435.587 206.548 434.407C206.533 433.228 206.904 432.109 207.662 431.053C207.866 430.769 208.11 430.472 208.393 430.162C208.824 429.733 209.061 429.503 209.104 429.472C209.259 429.255 209.465 428.911 209.722 428.439C210.608 429.177 211.561 430.107 212.582 431.229C212.455 431.548 212.339 431.782 212.232 431.931C212.086 432.134 211.892 432.334 211.649 432.529C211.288 432.146 210.622 431.474 209.651 430.511C209.205 430.704 208.734 431.145 208.239 431.836C207.792 432.459 207.513 433.048 207.401 433.604C207.317 434.323 207.545 434.876 208.087 435.265C208.669 435.683 209.525 435.733 210.655 435.416C211.21 435.3 211.735 435.154 212.232 434.977C213.41 434.592 214.443 434.41 215.331 434.431C215.828 434.48 216.274 434.646 216.666 434.928C217.682 435.656 218.164 436.586 218.111 437.718C218.068 438.836 217.668 439.923 216.91 440.979C216.347 441.764 215.799 442.356 215.267 442.754C215.258 442.768 215.233 442.802 215.194 442.856C215.142 442.9 215.106 442.936 215.087 442.963L214.97 443.126C214.877 443.284 214.781 443.461 214.681 443.657C214.525 443.504 214.276 443.264 213.936 442.938C213.582 442.602 213.335 442.374 213.196 442.253C213.012 442.08 212.759 441.847 212.436 441.554C212.109 441.238 211.874 441.008 211.731 440.864C211.737 440.827 211.758 440.77 211.793 440.693C211.828 440.615 211.853 440.551 211.869 440.501C211.904 440.423 211.97 440.317 212.067 440.182C212.203 439.992 212.392 439.8 212.635 439.604C213.01 439.997 213.357 440.328 213.676 440.598C214.187 441.087 214.556 441.444 214.784 441.669Z" fill="#DD4E0C"/>
<path d="M224.405 430.1L225.186 430.464C224.956 431.791 224.331 432.871 223.31 433.703C223.052 433.913 222.791 434.094 222.527 434.245C222.203 434.401 221.916 434.485 221.666 434.495C221.04 434.597 220.442 434.299 219.873 433.602C219.705 433.395 219.54 433.153 219.379 432.876L215.077 425.384L213.624 426.569L213.076 425.66L214.486 424.382L212.966 421.331L214.264 420.273L216.002 423.275L219.044 420.795L219.592 421.703L216.55 424.183L220.799 431.492C220.929 431.731 221.067 431.94 221.215 432.121C221.773 432.806 222.381 432.88 223.04 432.342C223.621 431.869 224.077 431.121 224.405 430.1Z" fill="#DD4E0C"/>
<path d="M231.166 428.01L230.52 426.876C230.915 426.289 231.572 425.428 232.49 424.293C234.19 422.242 235.375 420.447 236.046 418.907C236.406 418.02 236.493 417.171 236.306 416.358C236.145 415.66 235.891 415.188 235.544 414.944C235.193 414.682 234.684 414.628 234.018 414.782C233.255 414.958 232.563 415.331 231.942 415.902C231.337 416.469 230.915 417.122 230.674 417.861L229.786 417.348C230.037 416.503 230.57 415.739 231.387 415.055C232.201 414.354 233.062 413.899 233.972 413.689C235.19 413.409 236.253 413.531 237.161 414.058C237.544 414.311 237.84 414.594 238.049 414.905C238.269 415.265 238.416 415.607 238.491 415.932C238.633 416.549 238.615 417.212 238.436 417.92C238.27 418.608 238.028 419.228 237.71 419.781C237.393 420.333 236.945 420.949 236.366 421.63C235.784 422.294 235.297 422.817 234.906 423.198C234.515 423.578 234.015 424.044 233.406 424.595C232.933 425.063 232.519 425.492 232.164 425.882L240.276 423.679L240.545 425.849L231.166 428.01Z" fill="#DD4E0C"/>
<path d="M247.092 426.332C245.31 426.077 243.96 425.337 243.041 424.111C242.122 422.885 241.788 421.398 242.038 419.649C242.347 417.488 243.29 415.779 244.867 414.523C246.461 413.27 248.322 412.795 250.45 413.1C252.216 413.352 253.545 414.123 254.438 415.413C255.35 416.688 255.682 418.192 255.434 419.924C255.118 422.135 254.184 423.837 252.633 425.029C251.1 426.207 249.253 426.642 247.092 426.332ZM247.368 425.286C248.259 425.413 249.06 425.343 249.772 425.074C250.503 424.792 251.095 424.363 251.547 423.788C252.017 423.215 252.394 422.579 252.679 421.879C252.967 421.162 253.17 420.392 253.288 419.567C253.486 418.181 253.346 416.982 252.868 415.971C252.392 414.943 251.494 414.335 250.174 414.146C249.267 414.016 248.448 414.093 247.717 414.375C246.989 414.642 246.39 415.061 245.921 415.634C245.468 416.209 245.098 416.854 244.81 417.571C244.522 418.287 244.318 419.066 244.198 419.908C244.004 421.26 244.154 422.452 244.646 423.482C245.157 424.498 246.065 425.099 247.368 425.286Z" fill="#DD4E0C"/>
<path d="M254.617 427.273L254.905 426C255.592 425.833 256.658 425.64 258.102 425.421C260.74 425.053 262.826 424.527 264.36 423.842C265.224 423.43 265.861 422.862 266.27 422.136C266.622 421.512 266.753 420.992 266.662 420.577C266.579 420.147 266.24 419.765 265.644 419.429C264.962 419.044 264.199 418.853 263.356 418.856C262.527 418.866 261.775 419.064 261.099 419.448L260.789 418.47C261.543 418.015 262.453 417.81 263.518 417.856C264.591 417.887 265.534 418.132 266.347 418.591C267.435 419.205 268.138 420.013 268.453 421.014C268.565 421.46 268.593 421.868 268.537 422.238C268.457 422.652 268.335 423.004 268.171 423.294C267.86 423.846 267.4 424.323 266.79 424.725C266.203 425.121 265.606 425.416 264.999 425.61C264.393 425.803 263.646 425.956 262.76 426.068C261.882 426.166 261.17 426.224 260.624 426.241C260.079 426.259 259.395 426.266 258.575 426.262C257.909 426.288 257.314 426.326 256.789 426.374L264.265 430.218L263 432.002L254.617 427.273Z" fill="#DD4E0C"/>
<path d="M263.7 432.229L264.372 431.11C265.077 431.167 266.149 431.317 267.589 431.561C270.21 432.038 272.355 432.191 274.027 432.022C274.976 431.901 275.759 431.56 276.375 430.999C276.905 430.517 277.192 430.064 277.235 429.641C277.291 429.207 277.089 428.738 276.629 428.233C276.101 427.653 275.437 427.233 274.635 426.971C273.844 426.722 273.068 426.674 272.306 426.827L272.318 425.801C273.177 425.605 274.105 425.696 275.102 426.073C276.111 426.439 276.93 426.967 277.558 427.657C278.4 428.581 278.814 429.568 278.8 430.617C278.767 431.076 278.666 431.472 278.497 431.806C278.291 432.174 278.064 432.47 277.818 432.695C277.35 433.121 276.763 433.43 276.058 433.621C275.377 433.813 274.717 433.906 274.081 433.9C273.444 433.894 272.687 433.806 271.81 433.635C270.946 433.453 270.251 433.285 269.728 433.13C269.204 432.976 268.553 432.769 267.775 432.508C267.135 432.325 266.558 432.174 266.044 432.055L271.94 438.047L270.18 439.345L263.7 432.229Z" fill="#DD4E0C"/>
<path d="M287.144 445.879L273.629 447.845C270.713 448.3 268.312 447.324 266.427 444.916L267.029 444.252C267.59 444.808 268.122 445.242 268.624 445.555C269.12 445.851 269.669 446.035 270.269 446.107C270.853 446.183 271.385 446.206 271.865 446.176C272.345 446.146 273.013 446.073 273.868 445.958L285.222 444.208L284.612 441.962L285.539 441.824L287.144 445.879ZM289.387 443.774L292.816 443.339C292.997 443.631 293.125 443.897 293.201 444.135C293.266 444.341 293.302 444.592 293.309 444.887L289.824 445.314C289.701 445.091 289.604 444.869 289.533 444.646C289.467 444.44 289.418 444.149 289.387 443.774Z" fill="#DD4E0C"/>
<path d="M288.91 458.173C288.924 458.689 288.888 459.207 288.801 459.726L289.025 461.546L276.954 459.992L276.883 461.995L275.954 461.87L275.852 458.046L283.435 459.169L283.432 459.069C280.908 458.203 278.967 457.329 277.61 456.449C276.218 455.536 275.507 454.496 275.476 453.33C275.463 452.83 275.584 452.393 275.841 452.019C276.115 451.662 276.466 451.386 276.894 451.191C277.34 451.012 277.778 450.876 278.209 450.781C278.64 450.702 279.089 450.657 279.556 450.645C282.188 450.574 284.388 451.182 286.157 452.469C287.925 453.772 288.843 455.673 288.91 458.173ZM276.743 453.946C276.758 454.529 277.191 455.126 278.041 455.737C278.908 456.364 279.965 456.911 281.211 457.378C282.458 457.861 283.627 458.264 284.72 458.585C285.829 458.922 286.778 459.172 287.566 459.334C287.835 458.81 287.963 458.298 287.95 457.798C287.924 456.832 287.643 455.989 287.107 455.27C286.571 454.55 285.881 454.002 285.037 453.624C284.21 453.246 283.344 452.969 282.439 452.793C281.551 452.634 280.657 452.566 279.758 452.59C279.125 452.607 278.461 452.716 277.766 452.918C277.071 453.137 276.73 453.479 276.743 453.946Z" fill="#DD4E0C"/>
</svg>
