<svg width="615" height="740" viewBox="0 0 615 740" fill="none" xmlns="http://www.w3.org/2000/svg">
<path d="M35.7235 732.62L34.7969 728.912L4.69724 725.032L4.01112 728.765L1.67576 728.466L1.86236 717.236L29.1529 708.64L2.2416 694.411L2.43684 682.66L4.7722 682.959L5.22647 686.919L36.1598 690.71L36.4906 686.451L38.7748 686.697L38.5174 702.19L36.234 701.892L36.0449 697.625L9.05526 694.368L38.6434 710.254C38.6406 710.427 38.6547 710.618 38.6859 710.826C38.7166 711.07 38.7304 711.278 38.7276 711.451L38.9633 712.911L8.74388 722.499L34.5931 725.528L35.9429 719.414L38.2262 719.712L38.0077 732.866L35.7235 732.62Z" fill="#6965E2"/>
<path d="M30.0621 675.379C27.1181 675.255 24.3006 674.598 21.6097 673.409C18.9203 672.185 16.6888 670.391 14.915 668.026C13.1081 665.625 12.2675 662.935 12.3933 659.956C12.4826 657.843 13.0587 656.115 14.1217 654.772C15.1515 653.393 16.6708 652.746 18.6797 652.831C20.2729 652.898 21.6364 653.476 22.7701 654.565C23.9038 655.654 24.748 657.026 25.3027 658.68C25.8228 660.332 26.205 661.962 26.4494 663.568C26.6606 665.139 26.7521 666.669 26.7238 668.16C27.6532 668.338 28.532 668.479 29.3603 668.584C30.1872 668.723 30.9643 668.808 31.6916 668.838C33.2502 668.904 34.5298 668.594 35.5303 667.908C36.4962 667.22 37.0114 666.114 37.0758 664.59C37.1723 662.304 36.354 659.91 34.6207 657.408L36.221 656.487C38.9929 659.865 40.3071 663.252 40.1637 666.646C40.0364 669.659 39.074 671.909 37.2763 673.394C35.4455 674.844 33.0408 675.505 30.0621 675.379ZM14.4839 660.981C14.4459 661.882 14.791 662.746 15.5194 663.575C16.2145 664.368 17.1573 665.05 18.3476 665.62C19.5393 666.156 20.6309 666.602 21.6221 666.956C22.6149 667.275 23.6264 667.561 24.6567 667.813C24.8337 663.622 23.3697 660.905 20.2647 659.664C19.3412 659.347 18.4639 659.172 17.6326 659.136C15.5891 659.05 14.5395 659.665 14.4839 660.981Z" fill="#6965E2"/>
<path d="M14.5868 626.617C14.6915 625.269 14.9385 623.88 15.3278 622.45L5.69797 620.189L5.02386 625.509L3.03015 624.989L3.08735 612.841L40.163 621.668L40.7047 617.381L42.854 617.913L42.0242 628.593L28.8378 625.117L28.8177 625.376C29.9287 625.845 31.0025 626.345 32.039 626.878C33.0437 627.373 34.1918 628.036 35.4833 628.867C36.7748 629.697 37.8909 630.549 38.8314 631.422C39.7374 632.292 40.4931 633.307 41.0984 634.467C41.6718 635.589 41.9129 636.738 41.8216 637.913C41.6444 640.194 40.6501 641.803 38.8387 642.74C37.0273 643.678 34.8947 644.051 32.4407 643.86C29.0882 643.6 26.0378 642.806 23.2896 641.48C20.5441 640.119 18.3508 638.141 16.7096 635.545C15.0339 632.946 14.3263 629.97 14.5868 626.617ZM38.7448 635.222C38.8226 634.22 38.0245 633.08 36.3505 631.803C34.6791 630.491 32.6181 629.27 30.1676 628.141C27.7197 626.977 25.4339 625.965 23.3102 625.104C21.1519 624.241 19.3763 623.599 17.9834 623.178C17.2726 624.27 16.877 625.335 16.7964 626.372C16.6595 628.134 17.1448 629.719 18.2525 631.127C19.3282 632.497 20.7738 633.583 22.5891 634.384C24.4045 635.186 26.1987 635.812 27.9718 636.263C29.713 636.677 31.4304 636.949 33.1239 637.081C33.5732 637.116 34.0585 637.136 34.5796 637.142C35.1034 637.113 35.699 637.055 36.3664 636.967C37.002 636.843 37.5565 636.643 38.03 636.367C38.4716 636.053 38.7099 635.672 38.7448 635.222Z" fill="#6965E2"/>
<path d="M42.672 599.658L43.4304 595.507L45.5102 596.07L44.2195 606.861L20.8164 600.238L20.0456 604.493L18.0752 603.891L18.5191 592.736L42.672 599.658ZM12.7877 596.869L5.02782 594.317C4.8954 593.673 4.90536 592.714 5.05769 591.44C5.14415 590.718 5.22312 590.203 5.29459 589.898C5.38254 589.454 5.51388 589.086 5.68862 588.793L13.5456 591.408C13.5968 592.148 13.5668 592.982 13.4557 593.911C13.3075 595.151 13.0848 596.136 12.7877 596.869Z" fill="#6965E2"/>
<path d="M21.3062 579.564L22.2829 568.808C27.7558 570.923 33.349 572.953 39.0625 574.899C40.3306 575.296 41.1465 575.561 41.5102 575.695C42.3061 575.974 43.1138 576.186 43.9335 576.328C44.5482 576.435 45.0212 576.448 45.3523 576.364C45.7459 576.327 45.9754 576.121 46.0408 575.745C46.2134 574.755 45.7972 573.609 44.7923 572.308C43.7874 571.007 42.4402 569.752 40.7507 568.542C39.0671 567.299 37.5588 566.262 36.2255 565.432C34.8641 564.561 33.6014 563.831 32.4373 563.241C29.5243 561.783 26.7485 560.649 24.11 559.837L25.2258 553.433L48.745 561.437L49.6996 557.17L51.7798 557.955L49.9411 568.508L38.431 564.285L38.3953 564.49C39.9156 565.459 41.1998 566.369 42.2479 567.22C43.302 568.037 44.4399 569.08 45.6616 570.348C46.8833 571.617 47.7538 572.982 48.2731 574.445C48.7924 575.908 48.9181 577.408 48.6504 578.945C48.097 582.121 45.9931 583.391 42.3389 582.754C41.3484 582.581 40.2734 582.289 39.1138 581.875C38.4204 581.614 37.1272 581.16 35.234 580.513C34.404 580.228 33.1932 579.806 31.6015 579.247C29.8108 578.618 28.62 578.182 28.0291 577.938C26.773 577.473 25.4857 576.985 24.1672 576.474L23.2505 580.22L21.3062 579.564Z" fill="#6965E2"/>
<path d="M46.8392 520.193L46.8945 519.992C45.696 519.122 44.7129 518.384 43.9454 517.777C43.1444 517.16 42.189 516.321 41.0792 515.26C39.9452 514.156 39.0785 513.126 38.4792 512.17C37.8798 511.213 37.4314 510.101 37.134 508.832C36.8365 507.563 36.8583 506.311 37.1993 505.074C38.0563 501.966 40.2393 500.896 43.7484 501.864C44.6841 502.122 45.7547 502.543 46.9601 503.127C48.6726 503.959 49.9236 504.573 50.713 504.971C51.0956 505.148 51.6983 505.44 52.5211 505.847C53.3532 506.22 53.9726 506.517 54.3794 506.737L61.7849 510.397L63.1413 506.456L65.1137 507.324L62.2109 517.851C56.9674 515.218 51.6933 512.631 46.3887 510.089C45.098 509.554 44.2948 509.206 43.979 509.047C43.2138 508.693 42.4302 508.405 41.6281 508.183C41.06 508.027 40.595 507.952 40.2332 507.961C39.8621 508.002 39.6305 508.19 39.5384 508.524C39.2158 509.694 40.1293 511.402 42.2786 513.649C44.428 515.896 46.7134 517.91 49.1347 519.693C51.5226 521.466 53.571 522.84 55.2801 523.815C57.0226 524.799 58.568 525.584 59.9163 526.172L58.1469 532.589C52.9034 529.956 47.6294 527.369 42.3248 524.827C41.4685 524.412 40.6411 524.022 39.8425 523.657C39.0773 523.303 38.2936 523.015 37.4916 522.793C36.9234 522.637 36.4706 522.584 36.1329 522.635C35.7861 522.719 35.5712 522.911 35.4882 523.212C35.2118 524.215 35.8296 525.626 37.3417 527.445C38.863 529.231 40.4321 530.778 42.049 532.087C43.6417 533.354 45.1209 534.445 46.4865 535.361C50.0614 537.785 53.2018 539.568 55.9076 540.709L54.1798 546.976L32.0292 536.93L30.6312 541.022L28.773 540.132L30.7683 529.57L42.7338 535.081L42.7891 534.881C41.715 534.081 40.7654 533.352 39.9403 532.693C39.0909 531.991 38.1326 531.097 37.0654 530.012C36.0074 528.893 35.1667 527.834 34.5431 526.835C33.8862 525.827 33.409 524.688 33.1115 523.42C32.8141 522.151 32.8266 520.932 33.1492 519.762C33.6007 518.125 34.3243 517.065 35.3199 516.585C36.3155 516.104 37.6487 516.094 39.3197 516.555C39.6205 516.638 40.1293 516.814 40.8461 517.084C41.4292 517.316 42.369 517.755 43.6654 518.401L44.936 519.075C45.027 519.136 45.3958 519.363 46.0423 519.757C46.1668 519.827 46.3201 519.924 46.5022 520.046C46.6935 520.135 46.8058 520.184 46.8392 520.193Z" fill="#6965E2"/>
<path d="M50.7792 449.253L49.5547 453.35L77.5995 467.524L79.3402 463.679L81.4047 464.687L75.8948 479.171L73.8488 478.114L75.1219 474.036L47.0771 459.862L45.2878 463.688L43.2233 462.68L48.7332 448.197L50.7792 449.253Z" fill="#6965E2"/>
<path d="M87.1864 437.919L89.2342 437.861C89.8786 439.85 90.0669 442.082 89.799 444.558C89.662 445.439 89.4024 446.344 89.0203 447.274C88.2956 449.038 87.4281 450.237 86.4179 450.871C85.8996 451.22 85.2379 451.417 84.4328 451.461C83.6918 451.531 82.8243 451.362 81.8303 450.954C81.4134 450.782 81.0993 450.635 80.8881 450.51L79.9373 449.951L65.5653 441.009L64.1423 444.472L62.1446 443.314L63.4345 439.628L57.2793 434.906L59.3941 429.759L65.9617 433.751L68.9462 426.488L71.0203 427.734L68.0161 435.045L82.1305 443.656C82.6813 443.957 83.0624 444.17 83.2736 444.294C83.4849 444.419 83.799 444.567 84.2158 444.738C85.0816 445.094 85.6926 445.157 86.0488 444.929C86.4559 444.759 86.7979 444.337 87.0746 443.664C87.6016 442.381 87.6389 440.466 87.1864 437.919Z" fill="#6965E2"/>
<path d="M77.4792 403.563C77.636 403.216 77.9597 402.582 78.4505 401.663C78.6847 401.312 79.1388 400.642 79.813 399.653L81.9255 393.704L103.197 407.631L105.182 403.735L107.002 405.012L102.641 414.682L91.2093 407.017L91.1238 407.206C92.2832 408.262 93.3509 409.352 94.3268 410.476C95.317 411.569 96.3553 412.893 97.4416 414.448C98.5421 415.971 99.264 417.532 99.6073 419.132C99.9506 420.732 99.8302 422.18 99.2459 423.476C98.3053 425.561 96.8384 426.706 94.845 426.91C92.8516 427.114 90.733 426.71 88.4893 425.698C85.4239 424.316 82.8393 422.542 80.7356 420.376C78.6002 418.196 77.1781 415.616 76.4691 412.634C75.7602 409.652 76.0969 406.629 77.4792 403.563ZM97.2642 419.901C97.7915 418.732 97.0082 416.8 94.9143 414.107C92.8205 411.413 90.5668 408.99 88.1532 406.837C85.7539 404.652 83.6586 402.889 81.8672 401.549C80.8392 402.226 80.1043 403.055 79.6625 404.035C78.9357 405.646 78.8388 407.295 79.3717 408.98C79.9047 410.666 80.9048 412.2 82.3722 413.585C83.8222 414.923 85.296 416.082 86.7937 417.062C88.2914 418.041 89.8303 418.887 91.4104 419.6C92.0109 419.871 92.6413 420.117 93.3019 420.339C93.9624 420.561 94.7274 420.677 95.5967 420.689C96.4661 420.701 97.0219 420.438 97.2642 419.901Z" fill="#6965E2"/>
<path d="M112.752 387.997L114.844 384.332L116.643 385.506L111.823 395.305L81.3101 373.809L79.1721 377.567L77.5129 376.345L81.6307 365.969L112.752 387.997Z" fill="#6965E2"/>
<path d="M123.28 367.573L125.471 363.966L127.213 365.235L122.154 374.854L102.658 360.312L100.419 364.011L98.7934 362.745L103.19 352.485L123.28 367.573ZM96.3612 354.299L90.0237 349.145C90.13 348.496 90.4817 347.603 91.0787 346.468C91.4175 345.824 91.6749 345.372 91.8508 345.112C92.0912 344.729 92.3454 344.432 92.6134 344.22L99.0187 349.468C98.8026 350.177 98.4767 350.946 98.0411 351.774C97.4602 352.879 96.9003 353.72 96.3612 354.299Z" fill="#6965E2"/>
<path d="M115.894 329.272C116.204 328.73 116.55 328.229 116.932 327.769L119.319 325.06C119.697 324.677 120.058 324.185 120.402 323.583C120.595 323.733 121.154 324.152 122.079 324.84C122.273 324.991 122.584 325.249 123.014 325.614C123.462 325.95 123.773 326.208 123.95 326.388C124.113 326.521 124.41 326.771 124.84 327.136C125.257 327.454 125.569 327.712 125.775 327.91C126.605 328.624 127.093 329.062 127.239 329.226C127.046 329.914 126.743 330.619 126.33 331.341C125.797 332.274 125.301 332.969 124.841 333.425C123.43 331.98 121.63 330.413 119.441 328.723C119.089 328.921 118.741 329.181 118.397 329.504C118.096 329.891 117.868 330.22 117.713 330.491C116.957 331.815 116.806 333.267 117.262 334.845C117.688 336.405 118.546 337.874 119.836 339.249C121.126 340.625 122.44 341.855 123.777 342.938C125.102 343.974 126.426 344.871 127.751 345.627C129.346 346.539 130.851 346.979 132.266 346.949C133.698 346.889 134.843 346.106 135.703 344.601C136.615 343.006 136.778 340.623 136.193 337.455L138.147 337.493C138.891 340.314 139.033 342.93 138.574 345.342C138.32 346.275 137.892 347.269 137.29 348.322C135.794 350.941 133.877 352.481 131.538 352.941C129.216 353.371 126.715 352.821 124.036 351.291C121.538 349.863 119.416 347.952 117.67 345.558C115.894 343.146 114.793 340.46 114.366 337.502C113.94 334.544 114.45 331.801 115.894 329.272Z" fill="#6965E2"/>
</svg>
