<svg width="643" height="625" viewBox="0 0 643 625" fill="none" xmlns="http://www.w3.org/2000/svg">
<path d="M190.79 596.87L190.074 613.703L187.539 613.335L187.508 609.17L156.837 604.637L156.403 608.73L153.868 608.362L154.6 591.165C154.721 588.325 155.481 585.963 156.88 584.08C158.246 582.16 160.245 581.256 162.877 581.369C167.518 581.566 170.271 584.962 171.135 591.557L171.392 591.62C171.513 588.78 172.382 586.302 173.999 584.184C175.581 582.066 177.706 581.063 180.373 581.177C182.035 581.248 183.494 581.622 184.749 582.3C186.005 582.943 187.011 583.767 187.767 584.771C188.522 585.774 189.147 586.981 189.642 588.39C190.104 589.763 190.428 591.13 190.613 592.491C190.763 593.85 190.822 595.31 190.79 596.87ZM187.769 600.593L187.909 597.32C188.117 592.437 185.536 589.88 180.168 589.652C178.09 589.563 176.469 590.136 175.306 591.371C174.109 592.603 173.466 594.259 173.377 596.337L173.289 598.415L187.769 600.593ZM157.254 596.067L170.806 598.049L170.866 596.646C170.95 594.672 170.203 593.062 168.626 591.815C167.049 590.533 165.239 589.849 163.196 589.762C161.568 589.692 160.2 590.051 159.091 590.836C157.981 591.622 157.393 592.811 157.325 594.404L157.254 596.067Z" fill="#DAEA02"/>
<path d="M193.397 561.158C193.168 564.34 192.045 566.9 190.029 568.841C187.98 570.744 185.417 571.585 182.34 571.363C177.326 571.002 173.194 569.263 169.942 566.144C166.691 563.025 165.24 559.045 165.588 554.204C165.832 550.816 166.977 548.187 169.023 546.319C171.037 544.413 173.687 543.578 176.971 543.815C181.847 544.166 185.888 545.968 189.094 549.223C192.304 552.443 193.738 556.421 193.397 561.158ZM191.252 560.535C191.352 559.152 190.798 557.913 189.591 556.818C188.383 555.723 186.81 554.88 184.872 554.289C182.936 553.663 181.128 553.185 179.449 552.856C177.769 552.526 176.204 552.31 174.751 552.205C173.437 552.11 172.503 552.061 171.947 552.055C169.344 552.007 167.98 552.847 167.855 554.576C167.758 555.925 168.331 557.148 169.572 558.245C170.817 559.308 172.407 560.152 174.343 560.778C176.279 561.404 178.12 561.901 179.866 562.27C181.58 562.602 183.129 562.818 184.512 562.917C186.725 563.076 188.292 563.033 189.213 562.786C189.776 562.688 190.246 562.444 190.621 562.054C190.992 561.733 191.202 561.226 191.252 560.535Z" fill="#DAEA02"/>
<path d="M193.432 525.997L194.065 521.775L196.357 522.371L195.099 534.892L159.303 525.494L158.556 529.809L156.523 529.239L156.72 516.35L193.432 525.997Z" fill="#DAEA02"/>
<path d="M172.196 492.59C172.233 492.315 172.365 491.598 172.592 490.44C172.74 489.865 172.996 489.008 173.361 487.867L164.281 485.167L163.259 490.381L161.247 489.74L162.01 475.99L198.365 486.903L199.172 482.5L201.435 483.227L199.779 495.439L187.949 491.735L187.914 491.993C189.198 492.587 190.453 493.264 191.679 494.025C192.906 494.786 194.162 495.709 195.45 496.793C196.703 497.873 197.672 499.106 198.359 500.494C199.015 501.842 199.251 503.204 199.064 504.578C198.733 507.017 197.625 508.738 195.74 509.742C193.82 510.741 191.607 511.07 189.099 510.73C185.801 510.283 182.818 509.319 180.15 507.837C177.487 506.322 175.391 504.236 173.862 501.579C172.299 498.918 171.744 495.922 172.196 492.59ZM195.832 500.938C195.981 499.839 194.625 498.361 191.763 496.503C188.867 494.641 186.02 493.065 183.221 491.776C180.422 490.487 178.025 489.462 176.029 488.702C175.218 489.781 174.749 490.785 174.624 491.712C174.409 493.292 174.858 494.753 175.971 496.093C177.049 497.429 178.511 498.519 180.355 499.364C182.204 500.174 183.989 500.819 185.708 501.297C187.427 501.775 189.077 502.121 190.657 502.335C193.921 502.778 195.646 502.312 195.832 500.938Z" fill="#DAEA02"/>
<path d="M178.138 426.111L177.529 430.235L207.023 439.793L208.079 435.817L210.518 436.601L207.019 453.081L204.58 452.298L205.241 448.185L175.747 438.628L174.639 442.592L172.201 441.809L175.7 425.328L178.138 426.111Z" fill="#DAEA02"/>
<path d="M212.165 408.844L214.35 408.499C215.095 409.767 215.576 411.432 215.792 413.494C216.017 415.522 215.934 417.292 215.542 418.801C214.722 421.955 213.306 423.683 211.294 423.984C210.535 424.145 209.586 424.077 208.445 423.781C207.975 423.659 207.627 423.55 207.401 423.456C207.175 423.361 206.802 423.211 206.283 423.004L191.425 416.296L190.496 419.869L188.272 418.915L189.076 415.202L182.065 410.962L183.791 404.319L191.127 407.515L193.063 400.066L195.374 401.096L193.439 408.545L208.01 414.91C208.63 415.143 209.171 415.337 209.632 415.493C210.218 415.717 210.612 415.855 210.813 415.907C211.518 416.09 212.001 416.091 212.264 415.908C212.56 415.734 212.795 415.312 212.969 414.641C213.283 413.433 213.015 411.501 212.165 408.844Z" fill="#DAEA02"/>
<path d="M198.501 377.217C198.716 376.558 199.02 375.8 199.41 374.943C199.996 373.821 200.441 372.964 200.745 372.371L202.581 364.764L225.267 376.356L226.857 372.171L228.951 373.295L225.13 384.957L214.149 379.225L214.068 379.472C215.223 380.288 216.352 381.187 217.453 382.168C218.521 383.138 219.574 384.267 220.611 385.556C221.648 386.844 222.379 388.232 222.803 389.721C223.205 391.166 223.19 392.547 222.759 393.865C221.992 396.204 220.607 397.647 218.604 398.195C216.568 398.731 214.347 398.606 211.942 397.818C208.747 396.771 205.982 395.3 203.648 393.404C201.282 391.498 199.581 389.117 198.547 386.261C197.48 383.394 197.464 380.379 198.501 377.217ZM220.238 389.701C220.443 389.075 220.142 388.211 219.337 387.108C218.541 385.972 217.45 384.793 216.063 383.573C214.675 382.352 213.475 381.339 212.462 380.533C211.46 379.694 210.547 378.975 209.721 378.376C207.499 376.809 205.272 375.368 203.039 374.052C202.003 374.99 201.344 375.886 201.063 376.743C200.567 378.258 200.75 379.759 201.613 381.246C202.442 382.722 203.71 384.031 205.415 385.173C207.098 386.272 208.742 387.211 210.346 387.993C211.929 388.73 213.477 389.347 214.993 389.843C216.442 390.318 217.6 390.57 218.466 390.598C219.442 390.626 220.033 390.327 220.238 389.701Z" fill="#DAEA02"/>
<path d="M234.178 354.514L236.07 350.687L238.071 351.954L233.05 363.493L201.833 343.615L199.804 347.496L198.042 346.332L202.165 334.119L234.178 354.514Z" fill="#DAEA02"/>
<path d="M245.639 333.259L247.952 329.671L249.797 331.157L243.502 342.053L224.688 326.802L222.207 330.473L220.588 329.118L226.093 317.405L245.639 333.259ZM218.81 320.344L212.291 314.476C212.514 313.605 212.999 312.523 213.744 311.232C214.577 309.792 215.237 308.892 215.724 308.533L222.334 314.452C222.067 315.259 221.622 316.203 220.998 317.284C220.044 318.935 219.315 319.955 218.81 320.344Z" fill="#DAEA02"/>
<path d="M242.162 294.533C242.537 294.034 242.974 293.539 243.473 293.047C243.654 292.922 243.91 292.725 244.243 292.454C244.549 292.163 244.777 291.945 244.93 291.8C246.047 290.947 246.99 290.095 247.76 289.243C247.989 289.458 248.505 289.954 249.309 290.731C249.51 290.925 249.801 291.23 250.182 291.646C250.563 292.063 250.854 292.368 251.055 292.562C251.644 293.221 252.216 293.845 252.77 294.435C253.387 295.115 253.848 295.656 254.153 296.058C253.729 296.911 253.268 297.67 252.768 298.335C252.04 299.305 251.356 300.071 250.718 300.632C249.132 298.531 247.378 296.564 245.459 294.733C244.835 295.044 244.367 295.408 244.054 295.824C243.18 296.988 242.892 298.354 243.189 299.921C243.459 301.467 244.172 303 245.329 304.519C246.479 305.99 247.643 307.297 248.821 308.442C249.972 309.565 251.143 310.575 252.335 311.47C255.634 313.947 258.178 313.993 259.968 311.609C261.03 310.195 261.412 307.838 261.116 304.538L263.009 304.788C264.081 309.365 263.452 313.206 261.12 316.311C259.205 318.861 257.003 320.264 254.514 320.519C252.025 320.774 249.533 319.965 247.038 318.092C244.626 316.281 242.72 314.027 241.321 311.329C239.922 308.631 239.255 305.767 239.319 302.737C239.403 299.68 240.351 296.945 242.162 294.533Z" fill="#DAEA02"/>
</svg>
